{"glyphs":{"0":{"ha":1101,"x_min":82,"x_max":1019,"o":"m 554 -26 q 310 44 417 -26 q 142 263 203 115 q 82 638 82 411 q 97 843 82 750 q 143 1010 113 936 q 215 1138 174 1083 q 310 1227 257 1192 q 424 1281 363 1263 q 554 1299 486 1299 q 794 1228 689 1299 q 959 1010 899 1157 q 1019 638 1019 863 q 1004 431 1019 524 q 959 264 989 338 q 888 135 929 190 q 794 45 846 81 q 681 -8 742 10 q 554 -26 621 -26 m 550 92 q 644 107 600 92 q 727 152 689 122 q 795 227 765 182 q 847 333 825 272 q 878 469 868 393 q 889 638 889 546 q 847 942 889 822 q 728 1122 804 1063 q 550 1181 651 1181 q 456 1166 500 1181 q 374 1122 411 1151 q 307 1047 338 1092 q 256 942 276 1003 q 224 806 235 882 q 213 638 213 731 q 255 332 213 453 q 374 151 297 211 q 550 92 450 92 z "},"1":{"ha":650,"x_min":6,"x_max":411,"o":"m 351 -19 q 304 -9 318 -19 q 290 19 290 1 l 290 1126 q 224 1073 258 1100 q 158 1023 190 1046 q 97 982 125 1000 q 59 972 76 972 q 24 997 42 971 q 8 1042 6 1025 q 40 1078 11 1058 q 118 1130 82 1104 q 192 1188 154 1156 q 278 1268 231 1221 q 300 1287 290 1281 q 322 1296 310 1293 q 356 1299 335 1299 q 400 1287 389 1299 q 411 1261 411 1275 l 411 19 q 397 -9 411 1 q 351 -19 383 -19 z "},"2":{"ha":957,"x_min":53,"x_max":869,"o":"m 103 0 q 70 15 85 0 q 54 51 56 29 q 72 92 53 72 l 360 378 q 478 501 425 443 q 572 610 531 558 q 642 708 613 661 q 691 799 672 756 q 719 883 710 842 q 728 963 728 924 q 694 1094 728 1046 q 599 1164 661 1142 q 450 1186 538 1186 q 303 1155 367 1186 q 178 1071 239 1124 q 138 1053 154 1053 q 100 1071 121 1053 q 78 1112 75 1094 q 96 1144 82 1129 q 183 1217 128 1182 q 310 1276 238 1253 q 467 1299 383 1299 q 616 1278 547 1299 q 738 1217 685 1258 q 820 1115 790 1176 q 850 971 850 1054 q 840 874 850 922 q 808 774 829 825 q 753 670 786 724 q 676 558 721 617 q 572 436 631 500 q 442 301 514 372 l 251 111 l 831 111 q 860 100 850 111 q 869 60 869 89 q 862 15 869 31 q 831 0 854 0 l 103 0 z "},"3":{"ha":967,"x_min":31,"x_max":879,"o":"m 457 -26 q 312 -3 383 -26 q 174 67 240 19 q 50 185 107 115 q 33 219 36 200 q 54 260 31 238 q 94 279 75 278 q 131 257 113 281 q 231 165 178 203 q 340 106 283 126 q 454 85 396 85 q 576 102 521 85 q 671 154 631 119 q 732 241 711 189 q 753 361 753 293 q 713 499 753 439 q 602 596 674 560 q 432 632 531 632 l 351 632 q 322 647 329 632 q 314 692 314 663 q 324 733 314 722 q 351 743 333 743 l 438 743 q 555 762 506 743 q 637 814 604 781 q 685 889 669 847 q 700 974 700 931 q 678 1071 700 1031 q 620 1137 657 1111 q 540 1175 583 1163 q 451 1188 496 1188 q 350 1173 399 1188 q 257 1133 301 1158 q 171 1076 213 1108 q 129 1058 146 1058 q 93 1076 113 1057 q 72 1117 69 1099 q 89 1149 75 1135 q 183 1222 128 1188 q 306 1277 238 1256 q 451 1299 375 1299 q 597 1278 529 1299 q 717 1218 665 1258 q 797 1117 768 1178 q 825 978 825 1057 q 813 888 825 932 q 774 805 800 843 q 707 737 749 767 q 606 690 665 707 q 760 618 700 668 q 849 501 819 568 q 879 357 879 433 q 851 197 879 268 q 769 76 824 126 q 637 0 715 26 q 457 -26 558 -26 z "},"4":{"ha":985,"x_min":42,"x_max":958,"o":"m 729 -19 q 683 -10 699 -19 q 668 19 668 0 l 668 332 l 99 332 q 57 355 72 332 q 54 406 42 378 l 447 1258 q 472 1290 458 1282 q 519 1299 486 1299 q 554 1292 540 1299 q 572 1272 568 1285 q 565 1238 575 1258 l 194 443 l 668 443 l 668 864 q 729 901 668 901 q 775 892 760 901 q 790 864 790 883 l 790 443 l 919 443 q 949 432 939 443 q 958 390 958 421 q 951 347 958 363 q 919 332 943 332 l 790 332 l 790 19 q 729 -19 790 -19 z "},"5":{"ha":967,"x_min":68,"x_max":882,"o":"m 468 -26 q 362 -13 413 -26 q 264 26 311 0 q 173 92 217 53 q 88 185 129 132 q 72 219 75 200 q 92 260 68 238 q 131 279 113 278 q 168 257 150 281 q 257 165 213 203 q 352 106 301 126 q 467 85 403 85 q 597 106 543 85 q 687 167 651 126 q 739 267 722 208 q 756 401 756 326 q 738 524 756 467 q 684 622 719 581 q 595 687 649 664 q 471 710 542 710 q 381 699 424 710 q 303 667 338 688 q 243 619 268 647 q 194 590 218 592 q 155 602 169 589 q 140 631 140 615 l 164 1247 q 174 1267 164 1258 q 199 1276 183 1276 l 806 1276 q 834 1265 825 1276 q 843 1225 843 1254 q 836 1181 843 1196 q 806 1165 829 1165 l 272 1165 l 257 747 q 317 785 283 768 q 391 811 351 801 q 475 821 431 821 q 696 767 604 821 q 835 619 788 714 q 882 401 882 524 q 853 220 882 300 q 770 85 825 140 q 640 1 715 29 q 468 -26 564 -26 z "},"6":{"ha":1040,"x_min":113,"x_max":964,"o":"m 547 -26 q 310 41 407 -26 q 163 230 213 108 q 113 513 113 351 q 140 782 113 661 q 220 994 168 903 q 349 1148 272 1085 q 523 1247 425 1211 q 738 1293 621 1283 q 806 1288 790 1297 q 825 1250 822 1279 q 819 1204 828 1218 q 785 1188 811 1190 q 582 1146 671 1179 q 428 1056 493 1113 q 321 918 363 999 q 259 736 279 838 q 239 513 239 635 q 263 326 239 407 q 328 192 286 246 q 426 112 371 139 q 547 85 482 85 q 669 107 617 85 q 760 171 722 129 q 817 270 797 213 q 836 400 836 328 q 801 555 836 489 q 703 656 767 621 q 551 692 639 692 q 460 681 504 692 q 378 649 417 669 q 308 601 340 629 q 250 539 275 572 q 210 467 225 506 l 168 533 q 224 642 188 593 q 312 728 261 692 q 424 783 363 764 q 553 803 486 803 q 723 775 647 803 q 853 695 799 747 q 935 569 907 643 q 964 403 964 494 q 935 226 964 306 q 851 90 906 146 q 721 4 797 35 q 547 -26 644 -26 z "},"7":{"ha":785,"x_min":-3,"x_max":764,"o":"m 207 -14 q 168 11 175 -3 q 172 54 161 25 l 613 1165 l 36 1165 q 7 1176 17 1165 q -3 1218 -3 1188 q 5 1261 -3 1246 q 36 1276 13 1276 l 710 1276 q 749 1254 735 1276 q 754 1207 764 1232 l 292 35 q 263 -14 278 0 q 207 -14 247 -28 z "},"8":{"ha":967,"x_min":63,"x_max":907,"o":"m 486 -26 q 308 -3 386 -26 q 175 67 231 21 q 91 182 119 113 q 63 342 63 251 q 78 440 63 390 q 128 535 94 489 q 211 619 161 581 q 332 685 261 658 q 220 761 268 717 q 145 865 172 806 q 118 997 118 924 q 147 1133 118 1075 q 226 1228 175 1190 q 344 1284 276 1265 q 486 1303 411 1303 q 627 1285 561 1303 q 744 1229 693 1267 q 823 1135 794 1192 q 851 999 851 1078 q 840 915 851 957 q 803 835 828 874 q 738 761 778 796 q 640 701 697 726 q 781 615 721 668 q 874 494 840 563 q 907 342 907 425 q 878 188 907 256 q 794 72 849 119 q 663 -1 740 24 q 486 -26 585 -26 m 486 85 q 610 101 556 85 q 701 149 664 117 q 758 230 739 182 q 778 342 778 278 q 741 468 778 413 q 634 565 704 524 q 467 636 564 607 q 351 585 403 615 q 264 516 300 554 q 209 433 228 478 q 190 340 190 389 q 210 227 190 275 q 268 147 229 179 q 361 100 307 115 q 486 85 415 85 m 504 746 q 623 803 574 767 q 699 889 672 839 q 726 999 726 939 q 707 1085 726 1049 q 655 1144 688 1121 q 578 1179 622 1168 q 486 1190 535 1190 q 392 1179 436 1190 q 315 1144 349 1168 q 262 1084 281 1121 q 243 997 243 1047 q 272 894 243 943 q 360 808 301 846 q 504 746 418 771 z "},"9":{"ha":1040,"x_min":76,"x_max":928,"o":"m 493 1304 q 731 1237 633 1304 q 878 1048 828 1169 q 928 765 928 926 q 900 496 928 617 q 820 284 872 375 q 692 130 768 193 q 517 31 615 67 q 301 -15 419 -6 q 233 -10 249 -19 q 214 28 217 -1 q 220 74 213 60 q 254 90 228 88 q 458 132 369 99 q 612 222 547 165 q 719 360 676 279 q 781 542 761 440 q 801 765 801 643 q 778 951 801 871 q 712 1085 754 1032 q 614 1166 669 1139 q 493 1193 558 1193 q 372 1171 425 1193 q 280 1107 318 1149 q 223 1008 242 1065 q 204 878 204 950 q 239 723 204 789 q 338 622 274 657 q 488 586 401 586 q 579 597 535 586 q 662 628 624 608 q 733 677 700 649 q 790 739 765 706 q 831 811 815 772 l 872 744 q 815 635 853 685 q 728 550 778 586 q 617 494 678 514 q 486 475 556 475 q 317 503 393 475 q 187 583 240 531 q 105 709 133 635 q 76 875 76 783 q 105 1052 76 972 q 188 1188 133 1132 q 319 1274 243 1243 q 493 1304 396 1304 z "},"\r":{"ha":417,"x_min":0,"x_max":0,"o":""}," ":{"ha":417,"x_min":0,"x_max":0,"o":""}," ":{"ha":139,"x_min":0,"x_max":0,"o":""}," ":{"ha":417,"x_min":0,"x_max":0,"o":""},"A":{"ha":1086,"x_min":25,"x_max":1063,"o":"m 88 -19 q 38 -2 51 -19 q 35 43 25 15 l 465 1243 q 493 1287 476 1275 q 543 1299 510 1299 q 592 1287 576 1299 q 619 1243 608 1275 l 1051 43 q 1047 -2 1063 15 q 996 -19 1032 -19 q 952 -8 965 -19 q 928 32 939 4 l 811 360 l 271 360 l 154 32 q 131 -8 144 4 q 88 -19 118 -19 m 311 471 l 771 471 l 542 1117 l 311 471 z "},"B":{"ha":1047,"x_min":183,"x_max":975,"o":"m 244 0 q 183 39 183 0 l 183 1239 q 246 1276 183 1276 l 536 1276 q 742 1253 656 1276 q 874 1169 828 1229 q 921 1001 921 1110 q 893 881 921 933 q 820 788 865 828 q 724 722 775 749 q 628 681 674 696 l 628 675 q 758 658 696 674 q 869 610 819 642 q 947 524 918 578 q 975 396 975 471 q 953 264 975 325 q 890 155 932 203 q 790 72 849 107 q 659 18 732 36 q 500 0 586 0 l 244 0 m 306 111 l 500 111 q 660 135 593 111 q 768 199 726 158 q 830 289 810 239 q 850 394 850 339 q 828 497 850 454 q 765 567 807 540 q 661 607 722 594 q 519 619 600 619 l 306 619 l 306 111 m 306 731 l 500 731 q 616 751 563 731 q 710 807 669 771 q 773 892 750 843 q 796 1001 796 942 q 763 1106 796 1071 q 672 1153 729 1140 q 536 1165 614 1165 l 306 1165 l 306 731 z "},"C":{"ha":1119,"x_min":118,"x_max":1082,"o":"m 668 -26 q 440 23 542 -26 q 267 161 339 72 q 157 371 196 250 q 118 638 118 492 q 135 819 118 733 q 186 980 153 906 q 268 1113 219 1054 q 378 1213 317 1171 q 513 1277 439 1256 q 671 1299 586 1299 q 803 1283 736 1299 q 932 1231 871 1268 q 1040 1126 993 1194 q 1047 1097 1051 1110 q 1024 1069 1042 1085 q 991 1050 1006 1053 q 964 1061 976 1047 q 880 1126 926 1100 q 781 1167 833 1153 q 671 1181 728 1181 q 554 1165 608 1181 q 453 1117 500 1149 q 368 1038 406 1085 q 303 931 331 992 q 263 797 276 871 q 249 638 249 724 q 280 406 249 508 q 367 234 311 304 q 499 128 422 164 q 668 92 576 92 q 762 105 718 92 q 846 142 806 118 q 922 200 886 167 q 992 272 957 233 q 1020 282 1004 285 q 1054 264 1036 279 q 1078 236 1074 249 q 1071 208 1082 224 q 947 73 1013 125 q 810 -3 881 21 q 668 -26 740 -26 z "},"D":{"ha":1254,"x_min":183,"x_max":1136,"o":"m 244 0 q 183 39 183 0 l 183 1239 q 199 1267 183 1258 q 244 1276 214 1276 l 506 1276 q 787 1230 668 1276 q 983 1103 906 1183 q 1099 921 1061 1024 q 1136 704 1136 818 q 1110 467 1136 576 q 1028 272 1083 358 q 889 125 974 186 q 688 32 804 64 q 425 0 572 0 l 244 0 m 306 118 l 425 118 q 639 142 544 118 q 803 213 733 165 q 917 332 872 261 q 983 496 961 403 q 1006 704 1006 589 q 974 884 1006 801 q 877 1028 942 967 q 720 1124 813 1090 q 506 1158 628 1158 l 306 1158 l 306 118 z "},"E":{"ha":957,"x_min":183,"x_max":901,"o":"m 244 0 q 199 14 214 0 q 183 56 183 28 l 183 1239 q 199 1267 183 1258 q 244 1276 214 1276 l 864 1276 q 893 1265 885 1276 q 901 1221 901 1253 q 893 1178 901 1190 q 864 1165 885 1165 l 306 1165 l 306 731 l 772 731 q 802 719 793 731 q 811 675 811 707 q 802 632 811 644 q 772 619 793 619 l 306 619 l 306 111 l 864 111 q 893 99 885 111 q 901 56 901 88 q 893 13 901 25 q 864 0 885 0 l 244 0 z "},"F":{"ha":903,"x_min":183,"x_max":883,"o":"m 244 -19 q 183 19 183 -19 l 183 1239 q 199 1267 183 1258 q 244 1276 214 1276 l 844 1276 q 874 1265 865 1276 q 883 1221 883 1253 q 874 1178 883 1190 q 844 1165 865 1165 l 306 1165 l 306 694 l 756 694 q 785 683 776 694 q 793 639 793 671 q 785 596 793 608 q 756 583 776 583 l 306 583 l 306 19 q 290 -10 306 0 q 244 -19 275 -19 z "},"G":{"ha":1264,"x_min":118,"x_max":1138,"o":"m 650 -26 q 433 24 531 -25 q 265 163 335 74 q 156 372 194 251 q 118 638 118 492 q 135 819 118 733 q 186 980 153 906 q 268 1113 219 1054 q 378 1213 317 1171 q 513 1277 439 1256 q 671 1299 586 1299 q 803 1284 736 1299 q 930 1232 869 1269 q 1039 1126 990 1194 q 1046 1097 1051 1110 q 1024 1069 1040 1085 q 990 1050 1004 1053 q 963 1061 976 1047 q 879 1126 925 1100 q 781 1167 833 1153 q 671 1181 729 1181 q 554 1165 608 1181 q 453 1117 500 1149 q 368 1038 406 1085 q 303 931 331 992 q 263 797 276 871 q 249 638 249 724 q 279 406 249 508 q 365 234 310 304 q 492 128 419 164 q 650 92 565 92 q 778 110 721 92 q 877 163 835 128 q 949 256 919 199 q 994 391 979 313 q 1011 571 1010 469 l 682 571 q 652 583 661 571 q 643 626 643 596 q 652 670 643 658 q 682 682 661 682 l 1099 682 q 1128 670 1119 682 q 1138 626 1138 658 q 1100 326 1138 450 q 996 124 1063 201 q 840 10 929 46 q 650 -26 751 -26 z "},"H":{"ha":1282,"x_min":183,"x_max":1100,"o":"m 244 -19 q 183 19 183 -19 l 183 1261 q 199 1290 183 1281 q 244 1299 214 1299 q 306 1261 306 1299 l 306 725 l 978 725 l 978 1261 q 993 1290 978 1281 q 1039 1299 1008 1299 q 1100 1261 1100 1299 l 1100 19 q 1085 -10 1100 0 q 1039 -19 1069 -19 q 978 19 978 -19 l 978 614 l 306 614 l 306 19 q 290 -10 306 0 q 244 -19 275 -19 z "},"I":{"ha":488,"x_min":183,"x_max":306,"o":"m 244 -19 q 199 -10 214 -19 q 183 19 183 0 l 183 1261 q 199 1290 183 1281 q 244 1299 214 1299 q 290 1290 275 1299 q 306 1261 306 1281 l 306 19 q 290 -10 306 0 q 244 -19 275 -19 z "},"J":{"ha":939,"x_min":49,"x_max":783,"o":"m 417 -26 q 257 3 329 -26 q 133 92 185 33 q 54 235 82 150 q 60 267 49 256 q 93 283 72 278 q 131 290 114 292 q 154 268 147 289 q 210 170 179 210 q 290 111 240 131 q 417 92 339 92 q 494 103 458 92 q 561 137 531 114 q 614 196 592 160 q 649 282 636 232 q 661 397 661 332 l 661 1261 q 676 1290 661 1281 q 722 1299 692 1299 q 768 1290 753 1299 q 783 1261 783 1281 l 783 397 q 765 247 783 314 q 715 129 747 181 q 637 43 682 78 q 536 -9 592 8 q 417 -26 481 -26 z "},"K":{"ha":993,"x_min":183,"x_max":976,"o":"m 244 -19 q 199 -10 214 -19 q 183 19 183 0 l 183 1261 q 244 1299 183 1299 q 306 1261 306 1299 l 306 738 l 869 1286 q 902 1299 886 1304 q 936 1275 918 1294 q 956 1238 956 1253 q 944 1210 957 1224 l 396 672 q 588 437 496 544 q 771 240 681 329 q 953 75 861 150 q 972 42 968 64 q 950 -6 976 21 q 913 -23 932 -22 q 872 -7 893 -24 q 717 131 794 57 q 568 286 640 206 q 430 449 496 367 q 306 614 364 532 l 306 19 q 290 -10 306 0 q 244 -19 275 -19 z "},"L":{"ha":903,"x_min":183,"x_max":867,"o":"m 244 0 q 183 56 183 0 l 183 1261 q 199 1290 183 1281 q 244 1299 214 1299 q 290 1290 275 1299 q 306 1261 306 1281 l 306 111 l 829 111 q 858 99 850 111 q 867 56 867 88 q 858 13 867 25 q 829 0 850 0 l 244 0 z "},"M":{"ha":1515,"x_min":183,"x_max":1333,"o":"m 244 -19 q 183 19 183 -19 l 183 1261 q 199 1290 183 1281 q 244 1299 214 1299 q 284 1288 272 1299 q 306 1261 296 1278 l 758 460 l 1213 1261 q 1233 1288 1221 1278 q 1272 1299 1246 1299 q 1333 1261 1333 1299 l 1333 19 q 1318 -10 1333 0 q 1272 -19 1303 -19 q 1213 19 1213 -19 l 1213 1025 l 822 340 q 799 317 813 324 q 760 311 786 311 q 719 316 733 311 q 694 339 706 321 l 306 1025 l 306 19 q 290 -10 306 0 q 244 -19 275 -19 z "},"N":{"ha":1282,"x_min":183,"x_max":1100,"o":"m 244 -19 q 183 19 183 -19 l 183 1261 q 199 1290 183 1281 q 244 1299 214 1299 q 285 1290 269 1299 q 314 1261 300 1281 l 978 239 l 978 1261 q 993 1290 978 1281 q 1039 1299 1008 1299 q 1100 1261 1100 1299 l 1100 19 q 1085 -10 1100 0 q 1040 -19 1069 -19 q 1006 -12 1018 -19 q 978 19 993 -6 l 306 1056 l 306 19 q 290 -10 306 0 q 244 -19 275 -19 z "},"O":{"ha":1336,"x_min":118,"x_max":1218,"o":"m 669 -26 q 442 23 543 -26 q 268 161 340 72 q 157 371 196 250 q 118 638 118 492 q 135 819 118 733 q 186 980 153 906 q 267 1113 219 1054 q 377 1213 315 1171 q 513 1277 439 1256 q 669 1299 586 1299 q 897 1250 796 1299 q 1069 1113 997 1201 q 1179 903 1140 1024 q 1218 638 1218 782 q 1201 454 1218 540 q 1150 294 1183 368 q 1069 160 1117 219 q 960 60 1021 101 q 826 -4 899 18 q 669 -26 753 -26 m 669 92 q 785 108 732 92 q 886 156 839 125 q 970 234 933 188 q 1033 342 1007 281 q 1074 476 1060 403 q 1088 638 1088 550 q 1057 867 1088 765 q 970 1038 1026 968 q 838 1144 914 1108 q 669 1181 761 1181 q 553 1164 608 1181 q 451 1116 499 1147 q 367 1038 404 1085 q 303 931 331 992 q 263 797 276 869 q 249 638 249 724 q 280 407 249 508 q 367 235 311 306 q 501 128 424 164 q 669 92 578 92 z "},"P":{"ha":1011,"x_min":183,"x_max":956,"o":"m 244 -19 q 183 19 183 -19 l 183 1239 q 199 1267 183 1258 q 246 1276 215 1276 l 519 1276 q 760 1244 664 1276 q 906 1142 857 1213 q 956 957 956 1072 q 915 769 956 847 q 806 642 874 692 q 658 564 739 593 q 496 522 576 535 q 392 512 442 515 q 306 507 343 508 l 306 19 q 290 -10 306 0 q 244 -19 275 -19 m 306 617 q 363 619 332 618 q 428 624 394 621 q 496 632 463 628 q 657 683 581 647 q 782 784 733 718 q 831 956 831 850 q 796 1078 831 1032 q 692 1144 761 1124 q 519 1165 622 1165 l 306 1165 l 306 617 z "},"Q":{"ha":1336,"x_min":118,"x_max":1218,"o":"m 1022 -251 q 980 -265 999 -267 q 946 -246 961 -264 l 643 182 q 635 219 632 200 q 660 257 638 239 q 700 271 679 274 q 736 247 721 268 l 1036 -178 q 1045 -215 1047 -196 q 1022 -251 1043 -233 m 669 -26 q 442 23 543 -26 q 268 161 340 72 q 157 371 196 250 q 118 638 118 492 q 135 819 118 733 q 186 980 153 906 q 267 1113 219 1054 q 377 1213 315 1171 q 513 1277 439 1256 q 669 1299 586 1299 q 897 1250 796 1299 q 1069 1113 997 1201 q 1179 903 1140 1024 q 1218 638 1218 782 q 1201 454 1218 540 q 1150 294 1183 368 q 1069 160 1117 219 q 960 60 1021 101 q 826 -4 899 18 q 669 -26 753 -26 m 669 92 q 785 108 732 92 q 886 156 839 125 q 970 234 933 188 q 1033 342 1007 281 q 1074 476 1060 403 q 1088 638 1088 550 q 1057 867 1088 765 q 970 1038 1026 968 q 838 1144 914 1108 q 669 1181 761 1181 q 553 1164 608 1181 q 451 1116 499 1147 q 367 1038 404 1085 q 303 931 331 992 q 263 797 276 869 q 249 638 249 724 q 280 407 249 508 q 367 235 311 306 q 501 128 424 164 q 669 92 578 92 z "},"R":{"ha":1001,"x_min":183,"x_max":975,"o":"m 244 -19 q 199 -10 214 -19 q 183 19 183 0 l 183 1239 q 199 1267 183 1258 q 246 1276 215 1276 l 482 1276 q 729 1247 633 1276 q 872 1149 825 1217 q 919 969 919 1082 q 904 865 919 914 q 860 773 889 815 q 791 697 832 731 q 697 638 750 663 q 578 597 643 613 q 439 575 514 582 q 596 401 514 488 q 767 234 678 315 q 951 75 856 153 q 971 42 967 64 q 949 -6 975 21 q 911 -23 931 -22 q 871 -7 892 -24 q 667 173 767 79 q 478 364 568 267 q 306 557 388 461 l 306 19 q 290 -10 306 0 q 244 -19 275 -19 m 306 672 q 432 678 374 672 q 540 697 490 685 q 630 727 590 710 q 701 769 669 744 q 753 824 732 793 q 784 890 774 854 q 794 969 794 926 q 763 1085 794 1042 q 665 1147 731 1128 q 501 1165 600 1165 l 306 1165 l 306 672 z "},"S":{"ha":993,"x_min":101,"x_max":894,"o":"m 471 -26 q 380 -18 429 -26 q 281 8 331 -10 q 188 56 232 26 q 111 131 143 86 q 102 157 101 144 q 122 189 103 169 q 155 212 142 210 q 194 190 168 214 q 266 139 225 161 q 358 104 307 117 q 471 92 408 92 q 601 106 546 92 q 692 151 656 121 q 748 228 729 182 q 767 340 767 275 q 748 430 767 392 q 694 496 729 468 q 613 546 660 524 q 506 586 565 568 q 403 624 456 603 q 304 675 351 644 q 220 748 257 706 q 162 847 183 790 q 140 978 140 903 q 168 1115 140 1056 q 246 1215 196 1174 q 364 1278 296 1257 q 514 1299 432 1299 q 648 1279 586 1299 q 761 1226 710 1260 q 858 1150 813 1192 q 871 1122 874 1136 q 854 1092 868 1107 q 820 1067 836 1074 q 789 1071 804 1060 q 712 1128 753 1103 q 622 1167 671 1153 q 514 1181 574 1181 q 410 1167 456 1181 q 334 1130 365 1154 q 286 1067 303 1106 q 269 978 269 1029 q 289 876 269 918 q 344 802 308 833 q 430 749 381 771 q 536 710 479 728 q 660 664 597 690 q 776 596 724 638 q 862 492 829 554 q 894 340 894 431 q 865 181 894 250 q 781 67 836 113 q 648 -3 726 21 q 471 -26 569 -26 z "},"T":{"ha":996,"x_min":22,"x_max":974,"o":"m 499 -21 q 438 18 438 -21 l 438 1165 l 61 1165 q 31 1178 40 1165 q 22 1221 22 1190 q 31 1265 22 1253 q 61 1276 40 1276 l 936 1276 q 965 1265 957 1276 q 974 1221 974 1253 q 965 1178 974 1190 q 936 1165 957 1165 l 560 1165 l 560 18 q 544 -11 560 -1 q 499 -21 529 -21 z "},"U":{"ha":1246,"x_min":182,"x_max":1064,"o":"m 626 -26 q 440 3 522 -26 q 301 87 358 32 q 213 220 243 142 q 182 399 182 299 l 182 1261 q 197 1290 182 1281 q 243 1299 213 1299 q 289 1290 274 1299 q 304 1261 304 1281 l 304 399 q 342 234 304 303 q 453 128 381 165 q 626 92 525 92 q 797 128 726 92 q 904 234 867 165 q 942 399 942 303 l 942 1261 q 957 1290 942 1281 q 1003 1299 972 1299 q 1064 1261 1064 1299 l 1064 399 q 1012 170 1064 265 q 862 24 960 75 q 626 -26 764 -26 z "},"V":{"ha":1047,"x_min":18,"x_max":1031,"o":"m 521 -19 q 473 -8 489 -19 q 444 36 457 4 l 24 1236 q 28 1269 18 1256 q 67 1293 38 1283 q 113 1300 94 1303 q 136 1278 131 1297 l 524 165 l 911 1278 q 936 1300 918 1297 q 981 1293 954 1303 q 1021 1269 1011 1283 q 1024 1236 1031 1256 l 600 36 q 572 -8 589 4 q 521 -19 556 -19 z "},"W":{"ha":1728,"x_min":17,"x_max":1711,"o":"m 444 -19 q 394 -7 413 -19 q 368 36 376 6 l 22 1236 q 26 1269 17 1256 q 65 1293 35 1283 q 112 1299 93 1303 q 136 1272 131 1296 l 447 174 l 792 1249 q 816 1288 800 1276 q 863 1299 832 1299 q 910 1288 894 1299 q 935 1249 926 1276 l 1279 175 l 1592 1272 q 1617 1299 1599 1296 q 1663 1293 1636 1303 q 1702 1269 1693 1283 q 1706 1236 1711 1256 l 1357 36 q 1331 -7 1349 6 q 1279 -19 1314 -19 q 1230 -7 1246 -19 q 1203 36 1214 6 l 863 1104 l 522 36 q 495 -7 513 6 q 444 -19 478 -19 z "},"X":{"ha":994,"x_min":58,"x_max":938,"o":"m 903 -1 q 857 -19 876 -18 q 826 0 838 -19 l 494 544 l 163 0 q 133 -19 151 -19 q 86 -1 114 -18 q 65 20 71 10 q 60 42 58 31 q 68 63 63 53 l 429 654 l 83 1219 q 79 1251 74 1235 q 110 1283 85 1268 q 156 1300 138 1300 q 188 1278 174 1300 l 506 758 l 822 1278 q 853 1298 835 1297 q 894 1283 871 1299 q 918 1263 911 1274 q 926 1241 925 1251 q 919 1219 926 1231 l 572 649 l 929 63 q 933 31 938 47 q 903 -1 928 14 z "},"Y":{"ha":889,"x_min":4,"x_max":885,"o":"m 444 -19 q 383 19 383 -19 l 383 540 l 14 1224 q 13 1257 4 1242 q 49 1286 21 1272 q 92 1301 75 1300 q 122 1278 110 1301 l 444 672 l 768 1278 q 799 1301 782 1301 q 842 1286 815 1300 q 877 1257 869 1272 q 876 1224 885 1242 l 506 539 l 506 19 q 444 -19 506 -19 z "},"Z":{"ha":885,"x_min":14,"x_max":869,"o":"m 64 0 q 35 13 47 0 q 18 46 22 26 q 22 81 14 65 l 685 1165 l 104 1165 q 74 1178 83 1165 q 65 1221 65 1190 q 74 1265 65 1253 q 104 1276 83 1276 l 806 1276 q 847 1249 832 1276 q 847 1197 861 1221 l 186 111 l 831 111 q 860 99 851 111 q 869 56 869 88 q 860 13 869 25 q 831 0 851 0 l 64 0 z "},"Æ":{"ha":1392,"x_min":14,"x_max":1336,"o":"m 1299 0 l 751 0 q 706 14 721 0 q 690 56 690 28 l 690 583 l 407 583 l 128 1 q 99 -21 118 -17 q 53 -14 79 -25 q 22 15 31 -3 q 24 50 14 32 l 597 1228 q 627 1268 613 1260 q 681 1276 642 1276 l 1299 1276 q 1328 1265 1319 1276 q 1336 1221 1336 1253 q 1328 1178 1336 1190 q 1299 1165 1319 1165 l 813 1165 l 813 694 l 1207 694 q 1237 683 1228 694 q 1246 639 1246 671 q 1237 596 1246 608 q 1207 583 1228 583 l 813 583 l 813 111 l 1299 111 q 1328 99 1319 111 q 1336 56 1336 88 q 1328 13 1336 25 q 1299 0 1319 0 m 461 694 l 690 694 l 690 1169 l 461 694 z "},"Ð":{"ha":1254,"x_min":31,"x_max":1136,"o":"m 244 0 q 183 39 183 0 l 183 1239 q 199 1267 183 1258 q 244 1276 214 1276 l 506 1276 q 787 1230 668 1276 q 983 1103 906 1183 q 1099 921 1061 1024 q 1136 704 1136 818 q 1110 467 1136 576 q 1028 272 1083 358 q 889 125 974 186 q 688 32 804 64 q 425 0 572 0 l 244 0 m 306 118 l 425 118 q 639 142 544 118 q 803 213 733 165 q 917 332 872 261 q 983 496 961 403 q 1006 704 1006 589 q 974 884 1006 801 q 877 1028 942 967 q 720 1124 813 1090 q 506 1158 628 1158 l 306 1158 l 306 118 m 71 596 q 39 611 46 596 q 32 644 32 626 q 39 681 32 664 q 71 697 46 697 l 592 697 q 622 681 615 697 q 629 644 629 664 q 622 611 629 626 q 592 596 615 596 l 71 596 z "},"Ĳ":{"ha":1426,"x_min":183,"x_max":1271,"o":"m 244 -19 q 199 -10 214 -19 q 183 19 183 0 l 183 1261 q 199 1290 183 1281 q 244 1299 214 1299 q 290 1290 275 1299 q 306 1261 306 1281 l 306 19 q 290 -10 306 0 q 244 -19 275 -19 m 904 -26 q 744 3 817 -26 q 621 92 672 33 q 542 235 569 150 q 548 267 536 256 q 581 283 560 278 q 618 290 601 292 q 642 268 635 289 q 697 170 667 210 q 777 111 728 131 q 904 92 826 92 q 982 103 946 92 q 1049 137 1018 114 q 1101 196 1079 160 q 1136 282 1124 232 q 1149 397 1149 332 l 1149 1261 q 1164 1290 1149 1281 q 1210 1299 1179 1299 q 1256 1290 1240 1299 q 1271 1261 1271 1281 l 1271 397 q 1253 247 1271 314 q 1202 129 1235 181 q 1124 43 1169 78 q 1024 -9 1079 8 q 904 -26 968 -26 z "},"Ŋ":{"ha":1282,"x_min":183,"x_max":1100,"o":"m 1100 -161 q 1074 -287 1100 -240 q 1007 -353 1049 -333 q 917 -372 965 -372 q 806 -342 851 -372 q 739 -269 761 -311 q 738 -233 729 -249 q 767 -204 746 -217 q 808 -195 792 -190 q 839 -218 825 -200 q 863 -246 853 -235 q 887 -262 874 -257 q 917 -268 900 -268 q 955 -256 942 -268 q 974 -222 968 -243 q 979 -169 979 -200 l 979 15 l 306 1056 l 306 19 q 290 -10 306 0 q 244 -19 275 -19 q 183 19 183 -19 l 183 1261 q 199 1290 183 1281 q 244 1299 214 1299 q 285 1290 269 1299 q 314 1261 300 1281 l 978 239 l 978 1261 q 993 1290 978 1281 q 1039 1299 1008 1299 q 1100 1261 1100 1299 l 1100 -161 z "},"Œ":{"ha":1844,"x_min":118,"x_max":1789,"o":"m 661 -26 q 437 23 536 -26 q 266 161 338 72 q 156 371 194 250 q 118 638 118 492 q 135 819 118 733 q 185 980 153 906 q 265 1113 218 1054 q 373 1213 313 1171 q 506 1277 433 1256 q 661 1299 578 1299 q 877 1250 781 1299 q 1042 1113 974 1201 q 1147 903 1111 1024 q 1183 638 1183 782 q 1167 454 1183 540 q 1119 294 1150 368 q 1042 160 1088 219 q 939 60 997 101 q 811 -4 881 18 q 661 -26 742 -26 m 661 92 q 774 108 721 92 q 872 156 826 125 q 954 234 918 188 q 1017 342 990 281 q 1057 476 1043 403 q 1071 638 1071 550 q 1040 867 1071 765 q 955 1038 1010 968 q 826 1144 900 1108 q 661 1181 751 1181 q 548 1164 601 1181 q 449 1116 494 1147 q 365 1038 403 1085 q 302 931 328 992 q 263 797 276 869 q 249 638 249 724 q 279 407 249 508 q 365 235 310 306 q 497 128 421 164 q 661 92 572 92 m 1132 0 q 1086 14 1101 0 q 1071 56 1071 28 l 1071 1239 q 1086 1267 1071 1258 q 1132 1276 1101 1276 l 1751 1276 q 1781 1265 1772 1276 q 1789 1221 1789 1253 q 1781 1178 1789 1190 q 1751 1165 1772 1165 l 1193 1165 l 1193 731 l 1660 731 q 1690 719 1681 731 q 1699 675 1699 707 q 1690 632 1699 644 q 1660 619 1681 619 l 1193 619 l 1193 111 l 1751 111 q 1781 99 1772 111 q 1789 56 1789 88 q 1781 13 1789 25 q 1751 0 1772 0 l 1132 0 z "},"Þ":{"ha":1046,"x_min":183,"x_max":956,"o":"m 244 -19 q 199 -10 214 -19 q 183 19 183 0 l 183 1261 q 199 1290 183 1281 q 244 1299 214 1299 q 290 1290 275 1299 q 306 1261 306 1281 l 306 1107 l 519 1107 q 760 1075 664 1107 q 906 973 857 1043 q 956 788 956 903 q 915 600 956 678 q 806 473 874 522 q 658 394 739 424 q 496 353 576 365 q 392 342 442 344 q 306 339 343 339 l 306 19 q 290 -10 306 0 q 244 -19 275 -19 m 306 449 q 363 450 332 449 q 428 454 394 451 q 496 463 463 457 q 657 513 581 478 q 782 615 733 549 q 831 786 831 681 q 796 908 831 863 q 692 975 761 954 q 519 996 622 996 l 306 996 l 306 449 z "},"ẞ":{"ha":1276,"x_min":175,"x_max":1151,"o":"m 742 -26 q 642 -18 690 -26 q 550 6 593 -10 q 467 42 507 21 q 438 69 443 53 q 443 111 432 85 q 471 145 456 138 q 511 142 486 153 q 586 114 550 125 q 661 97 622 103 q 742 92 700 92 q 853 110 801 92 q 942 164 904 129 q 1001 247 981 199 q 1022 356 1022 296 q 1002 461 1022 417 q 947 540 982 506 q 868 603 911 575 q 778 657 825 631 q 689 713 732 683 q 610 776 646 742 q 555 857 575 811 q 535 965 535 903 q 552 1054 535 1014 q 601 1127 569 1094 q 674 1183 633 1160 q 484 1137 558 1169 q 369 1053 410 1104 q 313 931 329 1001 q 297 772 297 860 l 297 19 q 282 -10 297 0 q 236 -19 267 -19 q 190 -10 206 -19 q 175 19 175 0 l 175 771 q 194 958 175 875 q 258 1105 213 1042 q 383 1211 304 1168 q 582 1276 461 1254 q 871 1299 703 1299 l 901 1299 q 931 1286 922 1299 q 939 1242 939 1274 q 931 1198 939 1211 q 901 1185 922 1185 q 817 1173 860 1185 q 739 1138 775 1161 q 681 1077 703 1114 q 660 990 660 1040 q 681 903 660 940 q 736 835 701 865 q 815 780 771 806 q 906 727 860 754 q 997 668 953 700 q 1075 593 1040 636 q 1131 492 1110 550 q 1151 356 1151 433 q 1119 199 1151 269 q 1031 78 1088 128 q 901 1 975 28 q 742 -26 828 -26 z "},"a":{"ha":867,"x_min":88,"x_max":867,"o":"m 358 -24 q 218 15 279 -24 q 122 131 157 53 q 88 326 88 208 q 101 460 88 399 q 140 569 114 521 q 204 651 167 618 q 290 703 242 685 q 397 721 339 721 q 489 706 442 721 q 578 668 536 692 l 578 675 q 593 706 578 696 q 639 715 608 715 q 684 706 669 715 q 699 678 699 697 l 699 133 q 704 103 699 115 q 719 86 710 92 q 742 81 729 81 q 765 84 756 81 q 783 94 774 88 q 804 111 792 101 q 826 116 814 119 q 851 101 839 113 q 865 72 864 88 q 860 46 867 57 q 821 8 844 24 q 770 -15 797 -7 q 715 -24 743 -24 q 660 -17 683 -24 q 619 5 636 -10 q 594 40 603 19 q 581 88 585 61 q 579 94 581 89 q 578 104 578 99 q 509 25 546 53 q 433 -13 472 -3 q 358 -24 394 -24 m 210 332 q 228 201 210 256 q 283 117 246 146 q 375 88 319 88 q 452 101 415 88 q 521 147 489 115 q 578 231 553 179 l 578 567 q 494 602 535 593 q 410 611 454 611 q 343 600 374 611 q 288 567 313 589 q 245 511 263 544 q 219 433 228 478 q 210 332 210 389 z "},"b":{"ha":831,"x_min":139,"x_max":743,"o":"m 199 -21 q 153 -12 168 -21 q 139 15 139 -3 l 139 1263 q 153 1290 139 1281 q 199 1299 168 1299 q 243 1289 228 1299 q 258 1258 258 1279 l 258 606 q 328 677 292 653 q 401 711 364 701 q 472 721 438 721 q 667 634 592 721 q 743 369 743 547 q 729 236 743 297 q 689 127 715 175 q 624 46 663 79 q 534 -6 585 13 q 422 -24 483 -24 q 335 -12 376 -24 q 258 21 294 -1 l 258 15 q 243 -12 258 -3 q 199 -21 228 -21 m 258 126 q 340 92 300 103 q 422 81 381 81 q 489 92 458 81 q 544 127 519 104 q 585 184 568 150 q 610 264 601 218 q 619 365 619 310 q 601 497 619 442 q 547 581 583 551 q 456 610 511 610 q 383 597 418 610 q 316 557 347 585 q 258 483 285 529 l 258 126 z "},"c":{"ha":725,"x_min":86,"x_max":696,"o":"m 408 -26 q 242 15 315 -26 q 128 139 169 57 q 86 340 86 221 q 110 494 86 424 q 178 615 135 564 q 282 693 222 665 q 414 721 342 721 q 540 695 475 721 q 656 608 604 669 q 667 574 671 589 q 649 542 664 558 q 615 519 631 524 q 582 529 599 515 q 507 585 544 561 q 408 610 469 610 q 325 592 363 610 q 262 539 288 574 q 222 456 236 504 q 208 347 208 408 q 233 208 208 267 q 301 117 257 149 q 408 85 346 85 q 484 97 453 85 q 542 133 515 110 q 597 188 568 156 q 629 201 613 203 q 665 185 646 200 q 690 155 685 169 q 683 122 696 140 q 599 35 646 68 q 503 -12 553 3 q 408 -26 454 -26 z "},"d":{"ha":874,"x_min":88,"x_max":869,"o":"m 358 -24 q 218 15 279 -24 q 122 131 157 53 q 88 326 88 208 q 101 460 88 399 q 141 569 115 521 q 205 651 167 618 q 293 703 243 685 q 403 721 343 721 q 492 708 444 721 q 581 672 539 696 l 581 1263 q 596 1290 581 1281 q 640 1299 611 1299 q 685 1290 671 1299 q 700 1263 700 1281 l 700 133 q 712 93 700 106 q 743 81 724 81 q 766 85 756 81 q 786 96 776 89 q 807 111 796 103 q 831 114 818 119 q 854 97 844 108 q 867 71 865 85 q 861 46 869 57 q 822 8 846 24 q 772 -15 799 -7 q 717 -24 744 -24 q 635 -4 664 -24 q 594 44 606 15 q 582 101 582 72 q 582 103 582 103 q 582 106 582 104 q 510 25 549 53 q 433 -13 472 -3 q 358 -24 394 -24 m 210 332 q 228 201 210 256 q 283 117 246 146 q 375 88 319 88 q 452 101 415 88 q 522 147 489 115 q 581 231 554 179 l 581 561 q 496 600 538 589 q 410 611 454 611 q 343 600 374 611 q 288 567 313 589 q 245 511 263 544 q 219 433 228 478 q 210 332 210 389 z "},"e":{"ha":731,"x_min":88,"x_max":694,"o":"m 407 -26 q 226 21 297 -26 q 122 146 156 68 q 88 317 88 224 q 113 484 88 410 q 186 611 139 558 q 298 692 233 664 q 439 721 363 721 q 558 701 507 721 q 637 640 608 681 q 665 536 665 599 q 642 440 665 483 q 578 365 619 397 q 479 310 536 332 q 351 278 422 289 q 201 265 281 267 l 201 363 q 295 369 247 363 q 388 388 343 375 q 467 420 432 400 q 522 467 501 440 q 542 526 542 493 q 512 590 542 571 q 432 610 482 610 q 347 592 386 610 q 276 538 307 574 q 227 453 244 503 q 210 339 210 403 q 234 206 210 263 q 303 117 258 149 q 410 85 347 85 q 481 95 451 85 q 535 127 510 106 q 592 179 561 149 q 630 200 613 200 q 667 185 647 200 q 690 152 686 169 q 681 117 694 135 q 599 33 646 64 q 502 -12 551 1 q 407 -26 453 -26 z "},"g":{"ha":831,"x_min":88,"x_max":700,"o":"m 396 -610 q 236 -574 303 -610 q 133 -487 169 -537 q 123 -449 121 -468 q 153 -408 125 -429 q 194 -392 179 -389 q 226 -412 208 -394 q 310 -480 269 -458 q 401 -501 350 -501 q 497 -478 457 -501 q 559 -404 538 -456 q 581 -267 581 -353 l 581 104 q 510 25 549 53 q 434 -13 472 -3 q 358 -24 396 -24 q 218 15 279 -24 q 122 131 157 53 q 88 326 88 208 q 101 460 88 399 q 140 569 114 521 q 204 651 167 618 q 290 703 242 685 q 397 721 339 721 q 490 708 442 721 q 581 672 538 696 l 581 679 q 594 706 581 697 q 639 715 608 715 q 685 706 669 715 q 700 679 700 697 l 700 -271 q 663 -460 700 -385 q 557 -573 625 -536 q 396 -610 489 -610 m 375 88 q 452 102 415 88 q 522 149 489 117 q 581 232 554 181 l 581 560 q 496 599 538 588 q 410 611 454 611 q 343 600 374 611 q 288 567 313 589 q 245 511 263 544 q 219 433 228 478 q 210 332 210 389 q 228 201 210 256 q 283 117 246 146 q 375 88 319 88 z "},"h":{"ha":903,"x_min":139,"x_max":906,"o":"m 756 -24 q 693 -14 719 -24 q 650 14 667 -4 q 626 59 633 32 q 618 119 618 86 l 618 453 q 585 568 618 526 q 476 610 553 610 q 417 601 447 610 q 357 575 386 593 q 303 528 328 557 q 258 456 278 499 l 258 15 q 243 -12 258 -3 q 199 -21 228 -21 q 153 -12 168 -21 q 139 15 139 -3 l 139 1263 q 153 1290 139 1281 q 199 1299 168 1299 q 243 1290 228 1299 q 258 1263 258 1281 l 258 590 q 304 644 279 621 q 359 685 329 668 q 423 712 389 703 q 493 721 457 721 q 620 694 565 721 q 706 612 675 668 q 738 464 738 556 l 738 133 q 743 103 738 115 q 759 86 749 92 q 782 81 769 81 q 807 85 797 81 q 825 97 817 89 q 842 111 833 104 q 867 115 854 119 q 890 97 881 111 q 904 70 903 83 q 896 43 906 57 q 858 7 881 22 q 810 -16 836 -8 q 756 -24 783 -24 z "},"i":{"ha":422,"x_min":113,"x_max":418,"o":"m 268 -24 q 163 14 196 -24 q 131 119 131 51 l 131 679 q 145 706 131 697 q 189 715 160 715 q 235 706 219 715 q 250 679 250 697 l 250 133 q 263 93 250 106 q 293 81 275 81 q 319 85 308 81 q 338 97 329 90 q 358 113 347 104 q 381 114 367 119 q 404 97 396 108 q 417 71 415 85 q 410 46 418 57 q 372 8 394 24 q 322 -15 349 -7 q 268 -24 294 -24 m 192 929 q 133 951 153 929 q 113 1015 113 972 q 133 1082 113 1060 q 192 1104 153 1104 q 249 1082 229 1104 q 268 1015 268 1060 q 249 951 269 972 q 192 929 229 929 z "},"ı":{"ha":422,"x_min":131,"x_max":419,"o":"m 268 -24 q 206 -14 232 -24 q 163 14 179 -4 q 138 59 146 32 q 131 119 131 86 l 131 679 q 145 706 131 697 q 189 715 160 715 q 235 706 219 715 q 250 679 250 697 l 250 133 q 256 103 250 115 q 271 86 261 92 q 293 81 281 81 q 319 86 308 81 q 340 100 331 92 q 361 117 350 108 q 383 116 371 124 q 407 94 394 108 q 417 72 414 85 q 411 49 419 60 q 372 11 396 28 q 322 -15 349 -6 q 268 -24 294 -24 z "},"j":{"ha":372,"x_min":-115,"x_max":258,"o":"m 67 -610 q -41 -580 3 -610 q -106 -510 -85 -550 q -107 -473 -115 -489 q -78 -446 -99 -457 q -37 -436 -53 -431 q -7 -460 -21 -442 q 28 -494 13 -482 q 67 -506 43 -506 q 112 -481 100 -506 q 124 -415 124 -457 l 124 679 q 138 706 124 697 q 182 715 153 715 q 228 706 213 715 q 243 679 243 697 l 243 -406 q 218 -528 243 -483 q 153 -591 193 -572 q 67 -610 114 -610 m 182 929 q 124 951 143 929 q 104 1015 104 972 q 124 1082 104 1060 q 182 1104 143 1104 q 240 1082 221 1104 q 258 1015 258 1060 q 240 951 258 972 q 182 929 221 929 z "},"ȷ":{"ha":372,"x_min":-108,"x_max":243,"o":"m 68 -610 q -37 -580 4 -610 q -99 -507 -78 -550 q -98 -471 -108 -486 q -69 -446 -87 -456 q -26 -437 -43 -433 q 1 -460 -10 -440 q 30 -496 17 -486 q 68 -506 43 -506 q 113 -478 101 -506 q 124 -411 124 -451 l 124 679 q 138 706 124 697 q 182 715 153 715 q 228 706 213 715 q 243 679 243 697 l 243 -406 q 219 -528 243 -483 q 155 -591 194 -572 q 68 -610 115 -610 z "},"k":{"ha":783,"x_min":139,"x_max":797,"o":"m 199 -21 q 153 -12 168 -21 q 139 15 139 -3 l 139 1263 q 153 1290 139 1281 q 199 1299 168 1299 q 243 1290 228 1299 q 258 1263 258 1281 l 258 456 l 585 699 q 624 716 606 714 q 664 693 643 718 q 681 659 678 678 q 658 622 683 640 l 353 390 q 481 220 433 282 q 556 128 529 158 q 599 90 582 99 q 636 82 617 82 q 663 87 651 82 q 688 101 675 92 q 714 126 700 111 q 742 143 729 142 q 772 133 754 144 q 797 103 796 121 q 786 69 797 85 q 728 10 758 31 q 669 -17 697 -10 q 618 -24 640 -24 q 546 -9 579 -24 q 475 43 513 6 q 385 147 438 81 q 258 318 333 214 l 258 15 q 243 -12 258 -3 q 199 -21 228 -21 z "},"l":{"ha":425,"x_min":132,"x_max":422,"o":"m 269 -24 q 165 14 197 -24 q 132 119 132 51 l 132 1263 q 147 1290 132 1281 q 190 1299 161 1299 q 236 1290 221 1299 q 251 1263 251 1281 l 251 133 q 264 93 251 106 q 294 81 276 81 q 320 85 310 81 q 340 97 331 89 q 360 111 350 104 q 383 116 371 119 q 408 97 396 113 q 419 74 415 88 q 415 49 422 60 q 376 9 400 25 q 324 -15 351 -7 q 269 -24 296 -24 z "},"m":{"ha":1338,"x_min":131,"x_max":1342,"o":"m 1189 -24 q 1126 -14 1153 -24 q 1084 14 1100 -4 q 1060 59 1068 32 q 1053 119 1053 86 l 1053 453 q 1039 537 1053 501 q 994 591 1025 572 q 911 610 963 610 q 838 597 875 610 q 768 556 801 585 q 709 479 735 528 q 668 360 683 431 l 632 360 q 653 505 632 439 q 715 619 675 571 q 808 694 754 668 q 928 721 863 721 q 1053 694 999 721 q 1140 612 1108 668 q 1172 464 1172 556 l 1172 133 q 1178 103 1172 115 q 1193 86 1183 92 q 1215 81 1203 81 q 1242 85 1232 81 q 1260 96 1251 89 q 1279 111 1268 103 q 1303 115 1289 118 q 1328 96 1317 111 q 1339 72 1336 86 q 1333 46 1342 57 q 1294 8 1318 24 q 1244 -15 1271 -7 q 1189 -24 1217 -24 m 189 -21 q 145 -12 160 -21 q 131 15 131 -3 l 131 679 q 145 706 131 697 q 189 715 160 715 q 235 706 219 715 q 250 679 250 697 l 250 597 q 299 656 272 632 q 355 694 326 679 q 412 715 383 708 q 465 721 440 721 q 592 694 536 721 q 680 612 647 668 q 713 464 713 556 l 713 15 q 697 -12 713 -3 q 651 -21 682 -21 q 606 -12 621 -21 q 592 15 592 -3 l 592 453 q 578 538 592 503 q 533 592 564 574 q 449 610 501 610 q 397 602 424 610 q 344 576 371 594 q 293 529 317 558 q 250 457 269 500 l 250 15 q 235 -12 250 -3 q 189 -21 219 -21 z "},"n":{"ha":897,"x_min":131,"x_max":899,"o":"m 749 -24 q 686 -14 713 -24 q 643 14 660 -4 q 619 59 626 32 q 611 119 611 86 l 611 453 q 597 537 611 501 q 551 591 582 572 q 469 610 521 610 q 408 601 439 610 q 349 575 378 593 q 294 526 319 557 q 250 451 269 496 l 250 15 q 235 -12 250 -3 q 189 -21 219 -21 q 145 -12 160 -21 q 131 15 131 -3 l 131 679 q 145 706 131 697 q 189 715 160 715 q 235 706 219 715 q 250 679 250 697 l 250 589 q 296 642 271 618 q 351 684 321 667 q 415 711 382 701 q 486 721 449 721 q 613 694 558 721 q 699 612 668 668 q 731 464 731 556 l 731 133 q 736 103 731 115 q 752 86 742 92 q 775 81 763 81 q 798 85 788 81 q 818 97 808 89 q 838 111 828 104 q 863 114 849 119 q 886 97 876 108 q 898 69 897 83 q 890 43 899 56 q 852 7 875 22 q 803 -16 829 -8 q 749 -24 776 -24 z "},"o":{"ha":818,"x_min":88,"x_max":731,"o":"m 410 -26 q 244 22 317 -26 q 129 155 171 71 q 88 347 88 239 q 111 497 88 429 q 178 615 135 565 q 281 693 222 665 q 410 721 339 721 q 575 673 503 721 q 689 540 647 625 q 731 347 731 456 q 715 225 731 282 q 672 122 700 168 q 603 43 643 76 q 515 -8 564 10 q 410 -26 465 -26 m 410 85 q 492 103 456 85 q 555 156 529 121 q 594 239 581 190 q 608 347 608 288 q 585 487 608 428 q 517 578 561 546 q 410 610 472 610 q 326 592 364 610 q 263 539 289 574 q 224 456 238 504 q 210 347 210 408 q 234 208 210 267 q 303 117 258 149 q 410 85 347 85 z "},"p":{"ha":831,"x_min":139,"x_max":743,"o":"m 199 -604 q 153 -595 168 -604 q 139 -568 139 -586 l 139 679 q 153 706 139 697 q 199 715 168 715 q 243 706 228 715 q 258 679 258 697 l 258 601 q 328 676 292 650 q 401 711 364 701 q 472 721 438 721 q 667 634 592 721 q 743 369 743 547 q 729 236 743 297 q 689 127 715 175 q 623 46 663 79 q 533 -6 583 13 q 421 -24 482 -24 q 336 -12 378 -24 q 258 19 294 -1 l 258 -568 q 243 -595 258 -586 q 199 -604 228 -604 m 258 132 q 340 96 300 107 q 421 85 381 85 q 488 96 457 85 q 542 129 518 107 q 584 185 567 151 q 610 265 601 219 q 619 365 619 310 q 601 497 619 442 q 547 581 583 551 q 456 610 511 610 q 383 596 418 610 q 316 553 347 582 q 258 476 285 524 l 258 132 z "},"q":{"ha":831,"x_min":88,"x_max":700,"o":"m 358 -24 q 218 15 279 -24 q 122 131 157 53 q 88 326 88 208 q 101 460 88 399 q 140 569 114 521 q 204 651 167 618 q 290 703 242 685 q 397 721 339 721 q 491 708 443 721 q 581 672 539 696 l 581 679 q 596 706 581 697 q 640 715 611 715 q 685 706 671 715 q 700 679 700 697 l 700 -568 q 685 -595 700 -586 q 640 -604 671 -604 q 596 -595 611 -604 q 581 -568 581 -586 l 581 94 q 509 22 547 47 q 433 -14 471 -4 q 358 -24 394 -24 m 210 332 q 228 201 210 256 q 283 117 246 146 q 375 88 319 88 q 452 101 415 88 q 522 147 489 115 q 581 231 554 179 l 581 561 q 496 600 538 589 q 410 611 454 611 q 343 600 374 611 q 288 567 313 589 q 245 511 263 544 q 219 433 228 478 q 210 332 210 389 z "},"r":{"ha":618,"x_min":131,"x_max":597,"o":"m 189 -21 q 145 -12 160 -21 q 131 15 131 -3 l 131 679 q 145 706 131 697 q 189 715 160 715 q 235 706 219 715 q 250 679 250 697 l 250 590 q 296 645 271 621 q 349 686 321 669 q 406 712 376 703 q 467 721 436 721 q 528 713 499 721 q 574 693 558 704 q 593 668 589 682 q 582 626 597 654 q 557 599 572 606 q 519 597 542 592 q 487 606 504 601 q 446 610 469 610 q 391 601 418 610 q 338 573 364 592 q 290 525 313 554 q 250 457 268 496 l 250 15 q 235 -12 250 -3 q 189 -21 219 -21 z "},"s":{"ha":675,"x_min":79,"x_max":604,"o":"m 339 -26 q 235 -11 283 -26 q 149 27 186 4 q 89 74 111 50 q 80 101 79 85 q 99 136 81 117 q 126 154 114 151 q 154 146 139 157 q 252 88 206 107 q 342 69 299 69 q 415 83 383 69 q 466 122 447 96 q 485 185 485 149 q 458 253 485 229 q 391 291 432 278 q 304 317 350 304 q 217 352 258 331 q 150 413 176 374 q 124 518 124 451 q 153 622 124 576 q 237 694 183 668 q 360 721 290 721 q 459 709 415 721 q 535 678 503 697 q 589 638 568 660 q 602 608 604 622 q 585 576 600 593 q 555 556 569 558 q 522 567 540 554 q 444 610 483 594 q 358 625 406 625 q 276 601 308 625 q 243 532 243 576 q 269 467 243 490 q 335 430 294 444 q 423 401 376 415 q 510 365 469 388 q 577 305 551 343 q 603 203 603 267 q 574 90 603 143 q 488 6 546 38 q 339 -26 429 -26 z "},"t":{"ha":539,"x_min":19,"x_max":524,"o":"m 338 -24 q 241 -2 279 -24 q 184 59 203 19 q 165 154 165 99 l 165 583 l 57 583 q 28 596 36 583 q 19 639 19 608 q 28 683 19 671 q 57 694 36 694 l 165 694 l 165 978 q 180 1005 165 996 q 224 1014 194 1014 q 269 1005 254 1014 q 285 978 285 996 l 285 694 l 460 694 q 490 683 481 694 q 499 639 499 671 q 490 596 499 608 q 460 583 481 583 l 285 583 l 285 168 q 298 101 285 121 q 346 81 311 81 q 401 96 378 81 q 449 133 424 111 q 480 144 465 149 q 507 126 494 139 q 523 98 522 113 q 515 71 524 83 q 463 15 492 36 q 401 -15 433 -6 q 338 -24 369 -24 z "},"u":{"ha":896,"x_min":131,"x_max":893,"o":"m 374 -24 q 239 5 293 -24 q 158 90 185 33 q 131 231 131 146 l 131 679 q 145 706 131 697 q 189 715 160 715 q 235 706 219 715 q 250 679 250 697 l 250 231 q 265 149 250 182 q 312 99 281 115 q 389 82 343 82 q 461 94 428 82 q 522 128 494 107 q 569 181 549 150 q 604 246 590 211 l 604 679 q 619 706 604 697 q 664 715 633 715 q 708 706 693 715 q 724 679 724 697 l 724 133 q 729 101 724 114 q 745 83 735 89 q 768 78 756 78 q 791 83 781 78 q 812 96 801 88 q 832 111 822 104 q 856 115 843 119 q 881 96 869 111 q 890 72 888 86 q 883 46 893 58 q 847 9 869 25 q 799 -17 825 -7 q 744 -26 772 -26 q 687 -17 711 -26 q 646 8 663 -8 q 619 47 629 25 q 607 96 610 69 l 606 108 q 562 53 586 78 q 508 12 538 29 q 445 -15 479 -6 q 374 -24 411 -24 z "},"v":{"ha":707,"x_min":24,"x_max":682,"o":"m 353 -21 q 309 -11 322 -21 q 289 15 296 -1 l 35 646 q 40 694 24 674 q 96 715 57 715 q 128 707 117 715 q 147 679 140 699 l 354 151 l 557 679 q 578 707 565 699 q 611 715 590 715 q 667 696 651 715 q 671 646 682 676 l 417 15 q 397 -11 411 -1 q 353 -21 383 -21 z "},"w":{"ha":1119,"x_min":25,"x_max":1094,"o":"m 318 -21 q 274 -11 288 -21 q 253 15 260 -1 l 35 646 q 41 694 25 674 q 96 715 57 715 q 129 707 117 715 q 147 679 142 699 l 319 151 l 503 679 q 523 707 510 699 q 558 715 536 715 q 593 707 579 715 q 613 679 607 699 l 800 151 l 971 679 q 990 707 978 699 q 1024 715 1003 715 q 1079 696 1064 715 q 1083 646 1094 676 l 863 15 q 843 -11 857 -1 q 799 -21 829 -21 q 756 -10 768 -21 q 739 15 744 0 l 558 525 l 382 15 q 362 -10 376 0 q 318 -21 347 -21 z "},"x":{"ha":742,"x_min":40,"x_max":694,"o":"m 675 56 q 688 21 690 38 q 673 -7 686 4 q 639 -21 660 -18 q 594 -15 611 -25 q 557 18 576 -6 l 365 263 l 172 13 q 145 -14 157 -7 q 118 -21 133 -21 q 60 1 79 -21 q 64 54 40 24 l 297 347 l 69 636 q 53 677 51 661 q 69 703 56 693 q 96 715 82 713 q 144 715 126 722 q 174 689 161 707 l 376 435 l 574 682 q 600 709 589 701 q 626 717 611 717 q 670 706 653 717 q 691 678 688 696 q 678 640 694 661 l 444 347 l 675 56 z "},"z":{"ha":688,"x_min":65,"x_max":639,"o":"m 115 0 q 75 25 85 0 q 78 68 65 50 l 443 583 l 131 583 q 99 596 110 583 q 89 639 89 608 q 99 683 89 671 q 131 694 110 694 l 588 694 q 615 683 606 694 q 626 656 625 672 q 618 626 628 640 l 254 111 l 599 111 q 629 98 619 111 q 639 53 639 85 q 629 12 639 24 q 599 0 619 0 l 115 0 z "},"æ":{"ha":1240,"x_min":88,"x_max":1204,"o":"m 88 297 q 104 428 88 365 q 153 544 121 490 q 233 637 186 597 q 343 699 281 676 q 481 721 406 721 q 597 711 544 721 q 699 685 650 701 q 799 647 747 668 q 742 490 763 569 q 721 331 721 411 q 745 203 721 258 q 815 116 769 147 q 921 85 860 85 q 992 95 963 85 q 1049 127 1022 106 q 1103 179 1075 149 q 1140 201 1122 201 q 1178 185 1158 200 q 1201 152 1197 169 q 1192 117 1204 135 q 1108 33 1151 64 q 1017 -12 1064 1 q 917 -26 969 -26 q 749 18 819 -26 q 640 141 678 63 q 601 318 601 219 q 612 447 601 389 q 638 554 622 506 q 671 640 654 603 l 719 546 q 601 592 656 574 q 476 610 547 610 q 367 587 417 610 q 283 522 318 564 q 228 425 247 481 q 210 303 210 369 q 225 181 210 229 q 270 110 240 133 q 340 88 300 88 q 420 110 382 88 q 493 184 458 133 q 562 319 528 235 q 629 525 596 403 l 721 511 q 643 262 683 364 q 556 97 603 160 q 453 5 508 33 q 332 -24 399 -24 q 153 60 218 -24 q 88 297 88 143 m 1175 536 q 1151 433 1175 478 q 1083 356 1128 388 q 977 303 1039 324 q 840 272 915 282 q 678 263 764 263 l 678 361 q 789 367 735 361 q 891 387 843 374 q 975 420 939 400 q 1032 467 1011 440 q 1053 526 1053 493 q 1022 590 1053 571 q 943 610 992 610 q 833 593 886 610 q 736 543 781 576 l 707 650 q 815 702 761 683 q 950 721 869 721 q 1113 675 1050 721 q 1175 536 1175 629 z "},"ð":{"ha":838,"x_min":104,"x_max":749,"o":"m 408 -26 q 241 21 308 -26 q 139 152 174 68 q 104 347 104 236 q 128 498 104 429 q 194 617 151 567 q 294 694 236 667 q 422 721 353 721 q 513 706 471 721 q 594 664 556 692 q 545 821 575 746 q 474 965 515 896 q 381 1098 432 1035 q 269 1219 331 1161 q 256 1253 254 1235 q 278 1290 258 1272 q 346 1292 314 1324 q 487 1144 424 1219 q 599 987 550 1068 q 681 817 649 906 q 731 628 714 728 q 749 417 749 529 q 722 224 749 307 q 647 85 694 142 q 539 1 600 29 q 408 -26 478 -26 m 408 85 q 490 104 451 85 q 560 165 529 124 q 608 269 590 207 q 625 417 625 331 q 624 469 625 443 q 619 521 622 496 q 528 587 578 564 q 422 610 479 610 q 340 590 376 610 q 279 535 304 571 q 241 452 254 500 q 228 347 228 404 q 249 211 228 271 q 310 118 269 151 q 408 85 350 85 m 325 900 q 293 898 307 890 q 268 929 279 906 q 265 962 260 949 q 289 982 271 975 l 667 1160 q 724 1132 707 1179 q 728 1100 732 1114 q 708 1079 724 1086 l 325 900 z "},"ĳ":{"ha":794,"x_min":113,"x_max":681,"o":"m 268 -24 q 163 14 196 -24 q 131 119 131 51 l 131 679 q 145 706 131 697 q 189 715 160 715 q 235 706 219 715 q 250 679 250 697 l 250 133 q 263 93 250 106 q 293 81 275 81 q 319 85 308 81 q 338 97 329 90 q 358 113 347 104 q 381 114 367 119 q 404 97 396 108 q 417 71 415 85 q 410 46 418 57 q 372 8 394 24 q 322 -15 349 -7 q 268 -24 294 -24 m 192 929 q 133 951 153 929 q 113 1015 113 972 q 133 1082 113 1060 q 192 1104 153 1104 q 249 1082 229 1104 q 268 1015 268 1060 q 249 951 269 972 q 192 929 229 929 m 489 -610 q 381 -580 425 -610 q 317 -510 338 -550 q 315 -473 307 -489 q 344 -446 324 -457 q 385 -436 369 -431 q 415 -460 401 -442 q 450 -494 435 -482 q 489 -506 465 -506 q 534 -481 522 -506 q 546 -415 546 -457 l 546 679 q 560 706 546 697 q 604 715 575 715 q 650 706 635 715 q 665 679 665 697 l 665 -406 q 640 -528 665 -483 q 576 -591 615 -572 q 489 -610 536 -610 m 604 929 q 546 951 565 929 q 526 1015 526 972 q 546 1082 526 1060 q 604 1104 565 1104 q 662 1082 643 1104 q 681 1015 681 1060 q 662 951 681 972 q 604 929 643 929 z "},"ŋ":{"ha":851,"x_min":131,"x_max":731,"o":"m 731 -151 q 706 -272 731 -228 q 641 -335 681 -317 q 554 -354 601 -354 q 447 -324 490 -354 q 382 -256 403 -294 q 381 -219 372 -235 q 410 -190 389 -203 q 451 -181 435 -176 q 481 -204 467 -186 q 515 -238 500 -226 q 554 -250 531 -250 q 599 -226 588 -250 q 611 -160 611 -201 l 611 453 q 597 537 611 501 q 551 591 582 572 q 469 610 521 610 q 408 601 439 610 q 349 575 378 593 q 294 526 319 557 q 250 451 269 496 l 250 15 q 235 -12 250 -3 q 189 -21 219 -21 q 145 -12 160 -21 q 131 15 131 -3 l 131 679 q 145 706 131 697 q 189 715 160 715 q 235 706 219 715 q 250 679 250 697 l 250 589 q 296 642 271 618 q 351 684 321 667 q 415 711 382 701 q 486 721 449 721 q 613 694 558 721 q 699 612 668 668 q 731 464 731 556 l 731 -151 z "},"œ":{"ha":1251,"x_min":88,"x_max":1215,"o":"m 410 -26 q 244 22 317 -26 q 129 155 171 71 q 88 347 88 239 q 103 469 88 413 q 147 572 118 526 q 215 651 175 618 q 305 703 256 685 q 410 721 354 721 q 566 673 497 721 q 674 540 635 625 q 714 347 714 456 q 699 225 714 282 q 658 122 685 168 q 592 43 631 76 q 508 -8 554 10 q 410 -26 463 -26 m 410 85 q 492 103 456 85 q 555 156 529 121 q 594 239 581 190 q 608 347 608 288 q 585 487 608 428 q 517 578 561 546 q 410 610 472 610 q 326 592 364 610 q 263 539 289 574 q 224 456 238 504 q 210 347 210 408 q 234 208 210 267 q 303 117 258 149 q 410 85 347 85 m 928 -26 q 758 21 825 -26 q 658 146 690 68 q 625 317 625 224 q 650 484 625 410 q 719 611 675 558 q 826 692 764 664 q 960 721 888 721 q 1078 701 1028 721 q 1158 640 1129 681 q 1186 536 1186 599 q 1163 440 1186 483 q 1099 365 1140 397 q 1000 310 1057 332 q 872 278 943 289 q 722 265 801 267 l 722 363 q 816 369 768 363 q 908 388 864 375 q 988 420 953 400 q 1042 467 1022 440 q 1063 526 1063 493 q 1033 590 1063 571 q 953 610 1003 610 q 867 592 907 610 q 797 538 828 574 q 748 453 765 503 q 731 339 731 403 q 755 206 731 263 q 824 117 779 149 q 931 85 869 85 q 1001 95 972 85 q 1056 127 1031 106 q 1113 179 1082 149 q 1151 200 1133 200 q 1188 185 1168 200 q 1211 152 1207 169 q 1201 117 1215 135 q 1119 33 1167 64 q 1023 -12 1072 1 q 928 -26 974 -26 z "},"þ":{"ha":831,"x_min":139,"x_max":743,"o":"m 199 -604 q 153 -595 168 -604 q 139 -568 139 -586 l 139 1263 q 153 1290 139 1281 q 199 1299 168 1299 q 243 1290 228 1299 q 258 1263 258 1281 l 258 601 q 328 676 292 650 q 401 711 364 701 q 472 721 438 721 q 667 634 592 721 q 743 369 743 547 q 729 236 743 297 q 689 127 715 175 q 623 46 663 79 q 533 -6 583 13 q 421 -24 482 -24 q 336 -12 378 -24 q 258 19 294 -1 l 258 -568 q 243 -595 258 -586 q 199 -604 228 -604 m 258 132 q 340 96 300 107 q 421 85 381 85 q 488 96 457 85 q 542 129 518 107 q 584 185 567 151 q 610 265 601 219 q 619 365 619 310 q 601 497 619 442 q 547 581 583 551 q 456 610 511 610 q 383 596 418 610 q 316 553 347 582 q 258 476 285 524 l 258 132 z "},"ß":{"ha":972,"x_min":174,"x_max":886,"o":"m 233 -604 q 188 -595 203 -604 q 174 -568 174 -586 l 174 906 q 211 1111 174 1022 q 328 1252 249 1200 q 535 1304 408 1304 q 667 1284 608 1304 q 767 1225 726 1264 q 831 1131 808 1186 q 853 1004 853 1076 q 845 926 853 964 q 823 854 838 888 q 786 793 808 821 q 737 742 764 765 q 676 703 710 719 q 606 678 643 688 q 767 615 706 661 q 858 502 829 569 q 886 351 886 435 q 863 194 886 264 q 793 74 839 124 q 683 -1 747 25 q 536 -26 618 -26 q 436 -12 478 -26 q 368 19 394 3 q 351 45 354 29 q 358 82 349 61 q 384 113 369 107 q 417 111 399 119 q 465 94 436 104 q 536 85 493 85 q 631 103 589 85 q 703 156 674 121 q 749 240 733 190 q 764 351 764 289 q 735 489 764 429 q 643 582 707 549 q 471 615 579 615 l 457 615 q 427 628 436 615 q 418 671 418 640 q 427 715 418 703 q 457 726 436 726 l 476 726 q 549 735 515 726 q 613 762 583 744 q 665 805 642 779 q 703 861 688 831 q 728 928 719 892 q 736 1006 736 965 q 712 1106 736 1065 q 642 1170 688 1147 q 535 1193 596 1193 q 392 1153 444 1193 q 316 1049 339 1114 q 293 906 293 985 l 293 -568 q 278 -595 293 -586 q 233 -604 263 -604 z "},"$":{"ha":968,"x_min":74,"x_max":867,"o":"m 443 -26 q 353 -18 401 -26 q 254 8 304 -10 q 160 56 204 26 q 83 131 115 86 q 74 157 74 144 q 94 189 75 169 q 127 212 114 210 q 167 190 140 214 q 239 139 199 161 q 331 104 279 117 q 443 92 382 92 q 572 106 517 92 q 665 151 628 121 q 719 228 701 182 q 738 340 738 275 q 719 431 738 392 q 667 497 701 469 q 585 547 632 525 q 479 588 538 569 q 376 625 428 604 q 277 676 324 646 q 194 749 231 707 q 135 847 157 790 q 114 978 114 903 q 142 1115 114 1056 q 220 1215 169 1174 q 339 1278 271 1257 q 488 1299 407 1299 q 621 1279 560 1299 q 734 1226 682 1260 q 832 1150 786 1192 q 844 1122 847 1136 q 826 1092 842 1107 q 794 1067 810 1074 q 763 1071 778 1060 q 685 1128 725 1103 q 596 1167 644 1153 q 488 1181 547 1181 q 384 1167 429 1181 q 307 1130 339 1154 q 259 1067 275 1106 q 243 978 243 1029 q 263 875 243 918 q 317 801 282 832 q 401 747 353 769 q 510 707 450 725 q 633 663 569 689 q 749 595 696 636 q 835 492 803 554 q 867 340 867 431 q 837 181 867 250 q 751 67 807 113 q 617 -3 696 21 q 443 -26 539 -26 m 483 -208 q 428 -169 428 -208 l 428 1464 q 483 1501 428 1501 q 539 1464 539 1501 l 539 -169 q 483 -208 539 -208 z "},"€":{"ha":1119,"x_min":43,"x_max":1060,"o":"m 650 -26 q 444 23 533 -26 q 296 161 356 72 q 206 371 236 250 q 175 638 175 492 q 191 817 175 732 q 238 976 207 903 q 313 1110 269 1050 q 413 1212 357 1169 q 534 1276 468 1254 q 672 1299 600 1299 q 800 1285 740 1299 q 915 1240 860 1271 q 1018 1154 969 1208 q 1028 1126 1033 1140 q 1006 1096 1022 1111 q 974 1076 988 1079 q 946 1083 960 1072 q 864 1138 907 1115 q 774 1171 821 1160 q 672 1182 726 1182 q 569 1165 618 1182 q 480 1116 521 1149 q 406 1036 439 1083 q 349 928 372 989 q 313 794 325 867 q 300 638 300 721 q 324 406 300 508 q 394 234 349 304 q 506 127 440 164 q 651 90 571 90 q 745 101 700 90 q 831 128 790 111 q 908 169 871 146 q 976 221 944 193 q 1006 227 989 232 q 1039 203 1022 222 q 1057 173 1054 185 q 1046 146 1060 161 q 922 49 986 88 q 790 -8 858 10 q 650 -26 722 -26 m 81 703 q 51 714 60 703 q 43 756 43 725 q 51 799 43 788 q 81 810 60 810 l 824 810 q 853 799 844 810 q 863 756 863 788 q 853 714 863 725 q 824 703 844 703 l 81 703 m 81 490 q 51 501 60 490 q 43 543 43 513 q 51 586 43 575 q 81 597 60 597 l 824 597 q 853 586 844 597 q 863 543 863 575 q 853 501 863 513 q 824 490 844 490 l 81 490 z "},"¢":{"ha":765,"x_min":68,"x_max":700,"o":"m 404 -26 q 230 17 306 -26 q 111 147 154 61 q 68 358 68 233 q 85 490 68 429 q 131 601 101 551 q 203 685 161 650 q 297 738 244 719 q 408 757 350 757 q 496 745 451 757 q 582 707 540 733 q 658 639 624 681 q 669 606 672 621 q 650 574 665 590 q 617 551 632 556 q 585 561 601 547 q 533 604 558 585 q 477 635 507 624 q 404 646 447 646 q 331 633 364 646 q 272 597 297 621 q 228 539 246 574 q 201 460 211 504 q 192 364 192 417 q 217 216 192 279 q 291 119 243 153 q 404 85 339 85 q 483 98 450 85 q 543 135 515 111 q 601 193 571 158 q 633 207 617 208 q 669 190 650 206 q 694 161 689 176 q 686 128 700 146 q 601 38 649 72 q 502 -11 553 4 q 404 -26 451 -26 m 399 -208 q 343 -169 343 -208 l 343 921 q 399 958 343 958 q 454 921 454 958 l 454 -169 q 399 -208 454 -208 z "},"£":{"ha":975,"x_min":50,"x_max":943,"o":"m 88 0 q 58 15 65 0 q 50 60 50 31 q 60 100 50 89 q 88 111 69 111 l 274 111 l 274 497 l 124 497 q 94 509 103 497 q 86 551 86 521 q 95 594 86 583 q 124 604 104 604 l 274 604 l 274 968 q 311 1141 274 1067 q 420 1257 349 1215 q 593 1299 492 1299 q 759 1270 685 1299 q 888 1197 833 1242 q 908 1166 903 1185 q 894 1124 913 1147 q 860 1101 876 1103 q 817 1114 843 1099 q 710 1167 761 1149 q 597 1186 658 1186 q 447 1128 499 1186 q 394 960 394 1069 l 394 604 l 694 604 q 724 594 715 604 q 733 551 733 583 q 724 509 733 521 q 694 497 715 497 l 394 497 l 394 111 l 904 111 q 933 100 924 111 q 943 60 943 89 q 935 15 943 31 q 904 0 928 0 l 88 0 z "},"¥":{"ha":967,"x_min":43,"x_max":924,"o":"m 482 -19 q 421 19 421 -19 l 421 301 l 147 301 q 117 313 126 301 q 108 356 108 325 q 117 399 108 388 q 147 410 126 410 l 421 410 l 421 514 l 147 514 q 117 526 126 514 q 108 568 108 538 q 117 611 108 600 q 147 622 126 622 l 376 622 l 53 1224 q 51 1257 43 1242 q 88 1286 58 1272 q 131 1301 114 1300 q 160 1278 149 1301 l 482 672 l 807 1278 q 836 1301 819 1301 q 879 1286 853 1300 q 916 1257 908 1272 q 914 1224 924 1242 l 588 622 l 818 622 q 847 611 839 622 q 856 568 856 600 q 847 526 856 538 q 818 514 839 514 l 543 514 l 543 410 l 818 410 q 847 399 839 410 q 856 356 856 388 q 847 313 856 325 q 818 301 839 301 l 543 301 l 543 19 q 482 -19 543 -19 z "},"%":{"ha":1190,"x_min":67,"x_max":1115,"o":"m 310 738 q 186 774 242 738 q 99 874 131 810 q 67 1019 67 938 q 78 1110 67 1067 q 112 1187 90 1153 q 163 1247 133 1221 q 230 1285 193 1272 q 310 1299 267 1299 q 433 1263 379 1299 q 518 1164 488 1228 q 549 1019 549 1100 q 537 926 549 969 q 503 849 525 883 q 451 789 482 814 q 385 751 421 764 q 310 738 350 738 m 310 843 q 351 850 332 843 q 385 872 371 857 q 410 907 400 886 q 426 956 421 928 q 432 1019 432 985 q 399 1149 432 1106 q 310 1193 365 1193 q 267 1185 286 1193 q 232 1165 247 1178 q 206 1130 217 1151 q 189 1081 194 1108 q 183 1019 183 1053 q 217 888 183 932 q 310 843 251 843 m 257 -12 q 232 -28 247 -28 q 193 -12 217 -28 q 161 15 167 3 q 165 43 156 26 l 918 1285 q 943 1300 929 1300 q 982 1285 957 1300 q 1015 1258 1008 1269 q 1010 1229 1021 1246 l 257 -12 m 875 -26 q 753 9 808 -26 q 665 109 697 44 q 633 254 633 174 q 645 346 633 303 q 678 423 657 389 q 729 483 700 457 q 796 522 758 508 q 875 535 833 535 q 999 499 944 535 q 1084 399 1053 463 q 1115 254 1115 336 q 1103 163 1115 206 q 1069 85 1090 119 q 1017 25 1047 50 q 951 -13 988 0 q 875 -26 915 -26 m 875 81 q 918 88 899 81 q 952 108 938 94 q 977 143 967 122 q 993 192 988 164 q 999 254 999 221 q 965 385 999 342 q 875 429 932 429 q 832 422 851 429 q 797 400 813 414 q 772 365 782 386 q 755 317 761 344 q 749 254 749 289 q 783 125 749 169 q 875 81 818 81 z "},".":{"ha":435,"x_min":131,"x_max":304,"o":"m 217 -47 q 152 -24 174 -47 q 131 43 131 -1 q 152 111 131 89 q 217 133 174 133 q 283 111 261 133 q 304 43 304 89 q 283 -24 304 -1 q 217 -47 261 -47 z "},",":{"ha":435,"x_min":88,"x_max":283,"o":"m 142 -274 q 105 -260 122 -274 q 88 -229 88 -247 q 92 -215 88 -224 q 101 -194 96 -207 q 133 -119 122 -153 q 147 -44 143 -86 q 150 64 150 -3 q 167 103 150 90 q 215 117 185 117 q 265 102 247 117 q 283 61 283 88 q 274 -45 283 10 q 241 -153 264 -100 q 181 -250 218 -206 q 165 -266 175 -258 q 142 -274 156 -274 z "},":":{"ha":435,"x_min":131,"x_max":304,"o":"m 217 -47 q 152 -24 174 -47 q 131 43 131 -1 q 152 111 131 89 q 217 133 174 133 q 283 111 261 133 q 304 43 304 89 q 283 -24 304 -1 q 217 -47 261 -47 m 217 558 q 152 581 174 558 q 131 649 131 604 q 152 717 131 694 q 217 739 174 739 q 283 717 261 739 q 304 649 304 694 q 283 581 304 604 q 217 558 261 558 z "},";":{"ha":435,"x_min":88,"x_max":304,"o":"m 217 558 q 152 581 174 558 q 131 649 131 604 q 152 717 131 694 q 217 739 174 739 q 283 717 261 739 q 304 649 304 694 q 283 581 304 604 q 217 558 261 558 m 142 -274 q 105 -260 122 -274 q 88 -229 88 -247 q 92 -215 88 -224 q 101 -194 96 -207 q 133 -119 122 -153 q 147 -44 143 -86 q 150 64 150 -3 q 167 103 150 90 q 215 117 185 117 q 265 102 247 117 q 283 61 283 88 q 274 -45 283 10 q 241 -153 264 -100 q 181 -250 218 -206 q 165 -266 175 -258 q 142 -274 156 -274 z "},"…":{"ha":1178,"x_min":131,"x_max":1047,"o":"m 589 -47 q 524 -24 546 -47 q 503 43 503 -1 q 524 111 503 89 q 589 133 546 133 q 655 111 633 133 q 676 43 676 89 q 655 -24 676 -1 q 589 -47 633 -47 m 960 -47 q 895 -24 917 -47 q 874 43 874 -1 q 895 111 874 89 q 960 133 917 133 q 1026 111 1004 133 q 1047 43 1047 89 q 1026 -24 1047 -1 q 960 -47 1004 -47 m 217 -47 q 152 -24 174 -47 q 131 43 131 -1 q 152 111 131 89 q 217 133 174 133 q 283 111 261 133 q 304 43 304 89 q 283 -24 304 -1 q 217 -47 261 -47 z "},"!":{"ha":496,"x_min":171,"x_max":326,"o":"m 249 300 q 188 339 188 300 l 188 1261 q 203 1290 188 1281 q 249 1299 218 1299 q 310 1261 310 1299 l 310 339 q 294 310 310 319 q 249 300 279 300 m 249 -19 q 190 2 210 -19 q 171 68 171 24 q 190 135 171 113 q 249 157 210 157 q 306 135 286 157 q 325 68 325 113 q 306 2 326 24 q 249 -19 286 -19 z "},"¡":{"ha":496,"x_min":171,"x_max":326,"o":"m 249 396 q 310 357 310 396 l 310 -565 q 294 -593 310 -583 q 249 -603 279 -603 q 188 -565 188 -603 l 188 357 q 203 386 188 376 q 249 396 218 396 m 249 715 q 306 694 286 715 q 325 628 326 672 q 306 562 325 585 q 249 539 286 539 q 190 562 210 539 q 171 628 171 585 q 190 694 171 672 q 249 715 210 715 z "},"?":{"ha":726,"x_min":17,"x_max":707,"o":"m 285 299 q 239 308 254 299 q 224 338 224 318 l 224 624 q 236 651 224 640 q 271 661 249 661 q 394 676 338 661 q 492 724 450 692 q 558 811 535 757 q 582 942 582 865 q 556 1069 582 1014 q 478 1156 529 1125 q 351 1188 426 1188 q 249 1174 293 1188 q 169 1140 204 1161 q 104 1094 133 1119 q 72 1083 88 1081 q 39 1104 57 1086 q 20 1137 24 1121 q 32 1167 17 1153 q 129 1238 76 1208 q 239 1283 182 1267 q 351 1299 296 1299 q 531 1258 450 1299 q 659 1137 611 1217 q 707 939 707 1057 q 676 778 707 846 q 594 665 646 711 q 478 592 543 619 q 346 554 413 565 l 346 338 q 331 308 346 318 q 285 299 315 299 m 285 -19 q 226 2 246 -19 q 207 68 207 24 q 226 135 207 113 q 285 157 246 157 q 342 135 322 157 q 361 68 361 113 q 342 2 361 24 q 285 -19 322 -19 z "},"¿":{"ha":726,"x_min":19,"x_max":710,"o":"m 442 397 q 488 388 472 397 q 503 358 503 378 l 503 72 q 491 45 503 56 q 456 35 479 35 q 333 19 389 35 q 234 -28 276 4 q 168 -115 192 -61 q 144 -246 144 -168 q 171 -373 144 -317 q 249 -460 197 -429 q 375 -492 301 -492 q 478 -478 433 -492 q 558 -444 522 -465 q 622 -399 594 -424 q 654 -387 639 -383 q 688 -408 669 -390 q 706 -440 703 -425 q 694 -471 710 -456 q 599 -542 651 -512 q 489 -587 546 -571 q 375 -603 432 -603 q 197 -562 278 -603 q 67 -441 115 -521 q 19 -243 19 -361 q 50 -83 19 -150 q 132 31 81 -15 q 249 103 183 76 q 381 142 314 131 l 381 358 q 396 388 381 378 q 442 397 411 397 m 442 715 q 500 694 481 715 q 519 628 519 672 q 500 562 519 585 q 442 539 481 539 q 385 562 404 539 q 365 628 365 585 q 385 694 365 672 q 442 715 404 715 z "},"'":{"ha":235,"x_min":58,"x_max":189,"o":"m 124 932 q 90 945 97 932 q 81 975 82 958 l 60 1265 q 73 1304 58 1288 q 124 1321 88 1321 q 174 1304 160 1321 q 188 1265 189 1288 l 167 975 q 158 945 165 958 q 124 932 150 932 z "},"\"":{"ha":460,"x_min":58,"x_max":414,"o":"m 124 932 q 90 945 97 932 q 81 975 82 958 l 60 1265 q 73 1304 58 1288 q 124 1321 88 1321 q 174 1304 160 1321 q 188 1265 189 1288 l 167 975 q 158 945 165 958 q 124 932 150 932 m 349 932 q 315 945 322 932 q 306 975 307 958 l 285 1265 q 298 1304 283 1288 q 349 1321 313 1321 q 399 1304 385 1321 q 413 1265 414 1288 l 392 975 q 383 945 390 958 q 349 932 375 932 z "},"‘":{"ha":297,"x_min":61,"x_max":256,"o":"m 129 932 q 80 947 99 932 q 61 988 61 961 q 67 1066 61 1025 q 84 1147 72 1107 q 115 1226 96 1188 q 161 1299 135 1264 q 178 1313 168 1306 q 201 1321 188 1321 q 238 1308 221 1321 q 256 1278 256 1296 q 252 1263 256 1272 q 242 1243 249 1254 q 212 1168 222 1201 q 198 1093 201 1135 q 194 983 194 1051 q 176 944 194 957 q 129 932 158 932 z "},"’":{"ha":304,"x_min":49,"x_max":243,"o":"m 175 1321 q 225 1306 207 1321 q 243 1265 243 1292 q 238 1186 243 1226 q 220 1105 232 1146 q 190 1026 208 1064 q 143 954 171 988 q 127 940 136 947 q 103 932 118 932 q 66 944 83 932 q 49 975 49 957 q 53 990 49 981 q 63 1010 57 999 q 93 1084 83 1051 q 106 1160 103 1117 q 110 1269 110 1203 q 128 1308 110 1296 q 175 1321 146 1321 z "},"‚":{"ha":307,"x_min":49,"x_max":244,"o":"m 103 -274 q 66 -260 83 -274 q 49 -229 49 -247 q 53 -215 49 -224 q 63 -194 57 -207 q 94 -119 83 -153 q 108 -44 104 -86 q 111 64 111 -3 q 128 103 111 90 q 176 117 146 117 q 226 102 208 117 q 244 61 244 88 q 235 -45 244 10 q 202 -153 225 -100 q 142 -250 179 -206 q 126 -266 136 -258 q 103 -274 117 -274 z "},"“":{"ha":543,"x_min":61,"x_max":501,"o":"m 129 932 q 80 947 99 932 q 61 988 61 961 q 67 1066 61 1025 q 84 1147 72 1107 q 115 1226 96 1188 q 161 1299 135 1264 q 178 1313 168 1306 q 201 1321 188 1321 q 238 1308 221 1321 q 256 1278 256 1296 q 252 1263 256 1272 q 242 1243 249 1254 q 212 1168 222 1201 q 198 1093 201 1135 q 194 983 194 1051 q 176 944 194 957 q 129 932 158 932 m 375 932 q 326 947 344 932 q 307 988 307 961 q 313 1066 307 1025 q 330 1147 318 1107 q 361 1226 342 1188 q 407 1299 381 1264 q 424 1313 414 1306 q 447 1321 433 1321 q 484 1308 467 1321 q 501 1278 501 1296 q 498 1263 501 1272 q 488 1243 494 1254 q 458 1168 468 1201 q 444 1093 447 1135 q 440 983 440 1051 q 422 944 440 957 q 375 932 404 932 z "},"”":{"ha":550,"x_min":49,"x_max":488,"o":"m 421 1321 q 471 1306 453 1321 q 489 1265 489 1292 q 483 1186 489 1226 q 466 1105 478 1146 q 435 1026 454 1064 q 389 954 417 988 q 373 940 382 947 q 349 932 364 932 q 312 944 329 932 q 294 975 294 957 q 299 990 294 981 q 308 1010 303 999 q 339 1084 329 1051 q 352 1160 349 1117 q 356 1269 356 1203 q 374 1308 356 1296 q 421 1321 392 1321 m 175 1321 q 225 1306 207 1321 q 243 1265 243 1292 q 238 1186 243 1226 q 220 1105 232 1146 q 190 1026 208 1064 q 143 954 171 988 q 127 940 136 947 q 103 932 118 932 q 66 944 83 932 q 49 975 49 957 q 53 990 49 981 q 63 1010 57 999 q 93 1084 83 1051 q 106 1160 103 1117 q 110 1269 110 1203 q 128 1308 110 1296 q 175 1321 146 1321 z "},"„":{"ha":550,"x_min":49,"x_max":489,"o":"m 347 -274 q 310 -260 328 -274 q 293 -229 293 -247 q 297 -215 293 -224 q 307 -194 301 -207 q 338 -119 328 -153 q 352 -44 349 -86 q 356 64 356 -3 q 373 103 356 90 q 421 117 390 117 q 471 102 453 117 q 489 61 489 88 q 479 -45 489 10 q 447 -153 469 -100 q 386 -250 424 -206 q 371 -266 381 -258 q 347 -274 361 -274 m 103 -274 q 66 -260 83 -274 q 49 -229 49 -247 q 53 -215 49 -224 q 63 -194 57 -207 q 94 -119 83 -153 q 108 -44 104 -86 q 111 64 111 -3 q 128 103 111 90 q 176 117 146 117 q 226 102 208 117 q 244 61 244 88 q 235 -45 244 10 q 202 -153 225 -100 q 142 -250 179 -206 q 126 -266 136 -258 q 103 -274 117 -274 z "},"«":{"ha":1007,"x_min":131,"x_max":875,"o":"m 458 -19 q 419 -11 438 -19 q 383 19 401 -3 l 164 297 q 138 331 144 321 q 131 349 131 342 q 138 367 131 357 q 164 401 144 378 l 383 678 q 419 708 401 700 q 458 715 438 715 q 499 703 483 715 q 518 675 515 692 q 507 640 521 658 l 275 349 l 507 56 q 512 5 528 29 q 458 -19 496 -19 m 806 -19 q 767 -11 785 -19 q 731 19 749 -3 l 511 297 q 485 331 492 321 q 478 349 478 342 q 485 367 478 357 q 511 401 492 378 l 731 678 q 767 708 749 700 q 806 715 785 715 q 847 703 831 715 q 865 675 863 692 q 854 640 868 658 l 622 349 l 854 56 q 859 5 875 29 q 806 -19 843 -19 z "},"»":{"ha":1007,"x_min":132,"x_max":876,"o":"m 201 -19 q 160 -8 176 -19 q 142 22 144 4 q 153 56 139 39 l 385 349 l 153 640 q 148 691 132 667 q 201 715 164 715 q 241 708 222 715 q 276 678 260 700 l 497 401 q 523 367 517 378 q 529 349 529 357 q 523 331 529 342 q 497 297 517 321 l 276 19 q 241 -11 260 -3 q 201 -19 222 -19 m 549 -19 q 508 -8 524 -19 q 489 22 492 4 q 500 56 486 39 l 732 349 l 500 640 q 495 691 479 667 q 549 715 511 715 q 588 708 569 715 q 624 678 607 700 l 844 401 q 870 367 864 378 q 876 349 876 357 q 870 331 876 342 q 844 297 864 321 l 624 19 q 588 -11 607 -3 q 549 -19 569 -19 z "},"‹":{"ha":660,"x_min":131,"x_max":528,"o":"m 458 -19 q 419 -11 438 -19 q 383 19 401 -3 l 164 297 q 138 331 144 321 q 131 349 131 342 q 138 367 131 357 q 164 401 144 378 l 383 678 q 419 708 401 700 q 458 715 438 715 q 499 703 483 715 q 518 675 515 692 q 507 640 521 658 l 275 349 l 507 56 q 512 5 528 29 q 458 -19 496 -19 z "},"›":{"ha":660,"x_min":132,"x_max":529,"o":"m 201 -19 q 160 -8 176 -19 q 142 22 144 4 q 153 56 139 39 l 385 349 l 153 640 q 148 691 132 667 q 201 715 164 715 q 241 708 222 715 q 276 678 260 700 l 497 401 q 523 367 517 378 q 529 349 529 357 q 523 331 529 342 q 497 297 517 321 l 276 19 q 241 -11 260 -3 q 201 -19 222 -19 z "},"Á":{"ha":1086,"x_min":25,"x_max":1063,"o":"m 88 -19 q 38 -2 51 -19 q 35 43 25 15 l 465 1243 q 493 1287 476 1275 q 543 1299 510 1299 q 592 1287 576 1299 q 619 1243 608 1275 l 1051 43 q 1047 -2 1063 15 q 996 -19 1032 -19 q 952 -8 965 -19 q 928 32 939 4 l 811 360 l 271 360 l 154 32 q 131 -8 144 4 q 88 -19 118 -19 m 311 471 l 771 471 l 542 1117 l 311 471 m 478 1357 q 444 1376 463 1357 q 426 1408 426 1394 q 428 1420 426 1415 q 438 1433 429 1425 l 629 1632 q 642 1643 636 1639 q 656 1647 649 1647 q 688 1635 669 1647 q 719 1606 706 1622 q 732 1575 732 1589 q 728 1558 732 1565 q 711 1540 725 1551 l 504 1371 q 490 1361 496 1365 q 478 1357 483 1357 z "},"Ă":{"ha":1086,"x_min":25,"x_max":1063,"o":"m 88 -19 q 38 -2 51 -19 q 35 43 25 15 l 465 1243 q 493 1287 476 1275 q 543 1299 510 1299 q 592 1287 576 1299 q 619 1243 608 1275 l 1051 43 q 1047 -2 1063 15 q 996 -19 1032 -19 q 952 -8 965 -19 q 928 32 939 4 l 811 360 l 271 360 l 154 32 q 131 -8 144 4 q 88 -19 118 -19 m 311 471 l 771 471 l 542 1117 l 311 471 m 542 1357 q 368 1419 435 1357 q 292 1607 301 1481 q 304 1635 290 1624 q 344 1647 318 1647 q 375 1637 367 1647 q 389 1607 383 1626 q 443 1512 407 1543 q 542 1481 479 1481 q 641 1512 604 1481 q 694 1607 678 1543 q 708 1637 700 1626 q 738 1647 715 1647 q 778 1635 764 1647 q 792 1607 793 1624 q 752 1471 786 1526 q 664 1386 718 1415 q 542 1357 610 1357 z "},"Ǎ":{"ha":1086,"x_min":25,"x_max":1063,"o":"m 88 -19 q 38 -2 51 -19 q 35 43 25 15 l 465 1243 q 493 1287 476 1275 q 543 1299 510 1299 q 592 1287 576 1299 q 619 1243 608 1275 l 1051 43 q 1047 -2 1063 15 q 996 -19 1032 -19 q 952 -8 965 -19 q 928 32 939 4 l 811 360 l 271 360 l 154 32 q 131 -8 144 4 q 88 -19 118 -19 m 311 471 l 771 471 l 542 1117 l 311 471 m 753 1647 q 784 1631 767 1647 q 801 1600 801 1615 q 801 1592 801 1597 q 793 1578 800 1586 l 603 1385 q 581 1367 593 1376 q 542 1357 569 1357 q 503 1367 515 1357 q 483 1385 492 1376 l 290 1578 q 283 1592 283 1586 q 282 1600 282 1597 q 300 1631 282 1615 q 331 1647 318 1647 q 348 1642 340 1647 q 365 1631 356 1638 l 542 1496 l 718 1631 q 736 1642 729 1638 q 753 1647 743 1647 z "},"Â":{"ha":1086,"x_min":25,"x_max":1063,"o":"m 88 -19 q 38 -2 51 -19 q 35 43 25 15 l 465 1243 q 493 1287 476 1275 q 543 1299 510 1299 q 592 1287 576 1299 q 619 1243 608 1275 l 1051 43 q 1047 -2 1063 15 q 996 -19 1032 -19 q 952 -8 965 -19 q 928 32 939 4 l 811 360 l 271 360 l 154 32 q 131 -8 144 4 q 88 -19 118 -19 m 311 471 l 771 471 l 542 1117 l 311 471 m 331 1357 q 300 1374 318 1357 q 282 1404 282 1390 q 283 1414 282 1408 q 290 1426 283 1419 l 481 1619 q 503 1638 490 1629 q 542 1647 515 1647 q 580 1638 568 1647 q 601 1619 592 1629 l 793 1426 q 801 1414 800 1419 q 801 1404 801 1408 q 784 1374 801 1390 q 753 1357 767 1357 q 736 1362 743 1357 q 718 1375 729 1367 l 542 1508 l 365 1375 q 348 1362 356 1367 q 331 1357 340 1357 z "},"Ä":{"ha":1086,"x_min":25,"x_max":1063,"o":"m 88 -19 q 38 -2 51 -19 q 35 43 25 15 l 465 1243 q 493 1287 476 1275 q 543 1299 510 1299 q 592 1287 576 1299 q 619 1243 608 1275 l 1051 43 q 1047 -2 1063 15 q 996 -19 1032 -19 q 952 -8 965 -19 q 928 32 939 4 l 811 360 l 271 360 l 154 32 q 131 -8 144 4 q 88 -19 118 -19 m 311 471 l 771 471 l 542 1117 l 311 471 m 375 1403 q 317 1424 336 1403 q 297 1489 297 1446 q 317 1556 297 1533 q 375 1578 336 1578 q 433 1556 414 1578 q 451 1489 451 1533 q 434 1424 454 1446 q 375 1403 414 1403 m 710 1403 q 651 1424 671 1403 q 632 1489 632 1446 q 651 1556 632 1533 q 710 1578 671 1578 q 767 1556 747 1578 q 786 1489 786 1533 q 767 1424 788 1446 q 710 1403 747 1403 z "},"Ǽ":{"ha":1392,"x_min":14,"x_max":1336,"o":"m 1299 0 l 751 0 q 706 14 721 0 q 690 56 690 28 l 690 583 l 407 583 l 128 1 q 99 -21 118 -17 q 53 -14 79 -25 q 22 15 31 -3 q 24 50 14 32 l 597 1228 q 627 1268 613 1260 q 681 1276 642 1276 l 1299 1276 q 1328 1265 1319 1276 q 1336 1221 1336 1253 q 1328 1178 1336 1190 q 1299 1165 1319 1165 l 813 1165 l 813 694 l 1207 694 q 1237 683 1228 694 q 1246 639 1246 671 q 1237 596 1246 608 q 1207 583 1228 583 l 813 583 l 813 111 l 1299 111 q 1328 99 1319 111 q 1336 56 1336 88 q 1328 13 1336 25 q 1299 0 1319 0 m 461 694 l 690 694 l 690 1169 l 461 694 m 906 1357 q 872 1376 890 1357 q 854 1408 854 1394 q 856 1420 854 1415 q 865 1433 857 1425 l 1057 1632 q 1070 1643 1064 1639 q 1083 1647 1076 1647 q 1115 1635 1097 1647 q 1147 1606 1133 1622 q 1160 1575 1160 1589 q 1156 1558 1160 1565 q 1139 1540 1153 1551 l 932 1371 q 917 1361 924 1365 q 906 1357 911 1357 z "},"À":{"ha":1086,"x_min":25,"x_max":1063,"o":"m 88 -19 q 38 -2 51 -19 q 35 43 25 15 l 465 1243 q 493 1287 476 1275 q 543 1299 510 1299 q 592 1287 576 1299 q 619 1243 608 1275 l 1051 43 q 1047 -2 1063 15 q 996 -19 1032 -19 q 952 -8 965 -19 q 928 32 939 4 l 811 360 l 271 360 l 154 32 q 131 -8 144 4 q 88 -19 118 -19 m 311 471 l 771 471 l 542 1117 l 311 471 m 606 1357 q 594 1361 600 1357 q 579 1371 588 1365 l 372 1540 q 356 1558 360 1551 q 351 1575 351 1565 q 365 1606 351 1589 q 396 1635 378 1622 q 428 1647 414 1647 q 442 1643 436 1647 q 454 1632 449 1639 l 646 1433 q 657 1420 656 1425 q 658 1410 658 1415 q 640 1376 658 1394 q 606 1357 621 1357 z "},"Ā":{"ha":1086,"x_min":25,"x_max":1063,"o":"m 88 -19 q 38 -2 51 -19 q 35 43 25 15 l 465 1243 q 493 1287 476 1275 q 543 1299 510 1299 q 592 1287 576 1299 q 619 1243 608 1275 l 1051 43 q 1047 -2 1063 15 q 996 -19 1032 -19 q 952 -8 965 -19 q 928 32 939 4 l 811 360 l 271 360 l 154 32 q 131 -8 144 4 q 88 -19 118 -19 m 311 471 l 771 471 l 542 1117 l 311 471 m 354 1443 q 324 1459 331 1443 q 317 1500 317 1475 q 324 1544 317 1526 q 354 1561 331 1561 l 731 1561 q 762 1544 756 1561 q 768 1500 768 1526 q 762 1459 768 1475 q 731 1443 756 1443 l 354 1443 z "},"Ą":{"ha":1086,"x_min":25,"x_max":1081,"o":"m 88 -19 q 38 -2 51 -19 q 35 43 25 15 l 465 1243 q 493 1287 476 1275 q 543 1299 510 1299 q 592 1287 576 1299 q 619 1243 608 1275 l 1051 43 q 1047 -2 1063 15 q 996 -19 1032 -19 q 952 -8 965 -19 q 928 32 939 4 l 811 360 l 271 360 l 154 32 q 131 -8 144 4 q 88 -19 118 -19 m 311 471 l 771 471 l 542 1117 l 311 471 m 904 -364 q 810 -333 850 -364 q 771 -242 771 -303 q 783 -172 771 -204 q 820 -108 796 -139 q 880 -45 844 -78 q 963 24 915 -12 l 1049 25 l 1049 13 q 987 -41 1017 -14 q 933 -94 957 -68 q 893 -148 908 -121 q 878 -201 878 -175 q 892 -245 878 -232 q 928 -258 906 -258 q 965 -250 949 -258 q 1008 -221 982 -242 q 1032 -213 1018 -214 q 1060 -225 1046 -212 q 1077 -257 1074 -239 q 1074 -286 1081 -275 q 1027 -328 1057 -310 q 965 -355 997 -346 q 904 -364 932 -364 z "},"Å":{"ha":1086,"x_min":25,"x_max":1063,"o":"m 88 -19 q 38 -2 51 -19 q 35 43 25 15 l 465 1243 q 493 1287 476 1275 q 543 1299 510 1299 q 592 1287 576 1299 q 619 1243 608 1275 l 1051 43 q 1047 -2 1063 15 q 996 -19 1032 -19 q 952 -8 965 -19 q 928 32 939 4 l 811 360 l 271 360 l 154 32 q 131 -8 144 4 q 88 -19 118 -19 m 311 471 l 771 471 l 542 1117 l 311 471 m 542 1346 q 444 1367 488 1346 q 376 1428 401 1389 q 351 1515 351 1467 q 376 1602 351 1564 q 444 1662 401 1640 q 542 1683 488 1683 q 642 1662 597 1683 q 710 1602 686 1640 q 735 1515 735 1564 q 710 1428 735 1467 q 642 1367 686 1389 q 542 1346 597 1346 m 542 1429 q 610 1454 583 1429 q 636 1515 636 1479 q 610 1576 636 1551 q 542 1600 583 1600 q 476 1576 501 1600 q 450 1515 450 1551 q 476 1454 450 1479 q 542 1429 501 1429 z "},"Ã":{"ha":1086,"x_min":25,"x_max":1063,"o":"m 88 -19 q 38 -2 51 -19 q 35 43 25 15 l 465 1243 q 493 1287 476 1275 q 543 1299 510 1299 q 592 1287 576 1299 q 619 1243 608 1275 l 1051 43 q 1047 -2 1063 15 q 996 -19 1032 -19 q 952 -8 965 -19 q 928 32 939 4 l 811 360 l 271 360 l 154 32 q 131 -8 144 4 q 88 -19 118 -19 m 311 471 l 771 471 l 542 1117 l 311 471 m 332 1394 q 285 1431 285 1394 q 322 1563 288 1518 q 424 1607 356 1607 q 498 1591 465 1607 q 557 1555 531 1575 q 606 1519 583 1535 q 651 1503 629 1503 q 681 1525 671 1503 q 694 1579 692 1547 q 742 1610 696 1610 q 780 1600 768 1610 q 792 1571 792 1590 q 756 1440 790 1483 q 651 1396 721 1396 q 578 1412 611 1396 q 517 1449 544 1428 q 467 1485 490 1469 q 424 1501 444 1501 q 394 1484 404 1501 q 382 1431 385 1467 q 368 1403 381 1413 q 332 1394 356 1394 z "},"Ắ":{"ha":1086,"x_min":25,"x_max":1063,"o":"m 88 -19 q 38 -2 51 -19 q 35 43 25 15 l 465 1243 q 493 1287 476 1275 q 543 1299 510 1299 q 592 1287 576 1299 q 619 1243 608 1275 l 1051 43 q 1047 -2 1063 15 q 996 -19 1032 -19 q 952 -8 965 -19 q 928 32 939 4 l 811 360 l 271 360 l 154 32 q 131 -8 144 4 q 88 -19 118 -19 m 311 471 l 771 471 l 542 1117 l 311 471 m 542 1357 q 368 1419 435 1357 q 292 1607 301 1481 q 304 1635 290 1624 q 344 1647 318 1647 q 375 1637 367 1647 q 389 1607 383 1626 q 443 1512 407 1543 q 542 1481 479 1481 q 641 1512 604 1481 q 694 1607 678 1543 q 708 1637 700 1626 q 738 1647 715 1647 q 778 1635 764 1647 q 792 1607 793 1624 q 752 1471 786 1526 q 664 1386 718 1415 q 542 1357 610 1357 m 478 1622 q 444 1641 463 1622 q 426 1675 426 1660 q 428 1685 426 1681 q 438 1699 429 1690 l 629 1897 q 642 1908 636 1904 q 656 1913 649 1913 q 688 1900 669 1913 q 719 1871 706 1888 q 732 1840 732 1854 q 728 1824 732 1831 q 711 1806 725 1817 l 504 1636 q 490 1626 496 1631 q 478 1622 483 1622 z "},"Ặ":{"ha":1086,"x_min":25,"x_max":1063,"o":"m 88 -19 q 38 -2 51 -19 q 35 43 25 15 l 465 1243 q 493 1287 476 1275 q 543 1299 510 1299 q 592 1287 576 1299 q 619 1243 608 1275 l 1051 43 q 1047 -2 1063 15 q 996 -19 1032 -19 q 952 -8 965 -19 q 928 32 939 4 l 811 360 l 271 360 l 154 32 q 131 -8 144 4 q 88 -19 118 -19 m 311 471 l 771 471 l 542 1117 l 311 471 m 542 -326 q 483 -305 503 -326 q 464 -239 464 -283 q 483 -173 464 -194 q 542 -151 503 -151 q 599 -173 579 -151 q 618 -239 618 -194 q 599 -305 619 -283 q 542 -326 579 -326 m 542 1357 q 368 1419 435 1357 q 292 1607 301 1481 q 304 1635 290 1624 q 344 1647 318 1647 q 375 1637 367 1647 q 389 1607 383 1626 q 443 1512 407 1543 q 542 1481 479 1481 q 641 1512 604 1481 q 694 1607 678 1543 q 708 1637 700 1626 q 738 1647 715 1647 q 778 1635 764 1647 q 792 1607 793 1624 q 752 1471 786 1526 q 664 1386 718 1415 q 542 1357 610 1357 z "},"Ằ":{"ha":1086,"x_min":25,"x_max":1063,"o":"m 88 -19 q 38 -2 51 -19 q 35 43 25 15 l 465 1243 q 493 1287 476 1275 q 543 1299 510 1299 q 592 1287 576 1299 q 619 1243 608 1275 l 1051 43 q 1047 -2 1063 15 q 996 -19 1032 -19 q 952 -8 965 -19 q 928 32 939 4 l 811 360 l 271 360 l 154 32 q 131 -8 144 4 q 88 -19 118 -19 m 311 471 l 771 471 l 542 1117 l 311 471 m 542 1357 q 368 1419 435 1357 q 292 1607 301 1481 q 304 1635 290 1624 q 344 1647 318 1647 q 375 1637 367 1647 q 389 1607 383 1626 q 443 1512 407 1543 q 542 1481 479 1481 q 641 1512 604 1481 q 694 1607 678 1543 q 708 1637 700 1626 q 738 1647 715 1647 q 778 1635 764 1647 q 792 1607 793 1624 q 752 1471 786 1526 q 664 1386 718 1415 q 542 1357 610 1357 m 606 1621 q 594 1625 600 1621 q 579 1635 588 1629 l 372 1804 q 356 1822 360 1815 q 351 1839 351 1829 q 365 1870 351 1853 q 396 1900 378 1888 q 428 1913 414 1913 q 442 1908 436 1913 q 454 1897 449 1904 l 646 1697 q 657 1684 656 1689 q 658 1674 658 1679 q 640 1640 658 1660 q 606 1621 621 1621 z "},"Ẳ":{"ha":1086,"x_min":25,"x_max":1063,"o":"m 88 -19 q 38 -2 51 -19 q 35 43 25 15 l 465 1243 q 493 1287 476 1275 q 543 1299 510 1299 q 592 1287 576 1299 q 619 1243 608 1275 l 1051 43 q 1047 -2 1063 15 q 996 -19 1032 -19 q 952 -8 965 -19 q 928 32 939 4 l 811 360 l 271 360 l 154 32 q 131 -8 144 4 q 88 -19 118 -19 m 311 471 l 771 471 l 542 1117 l 311 471 m 542 1357 q 368 1419 435 1357 q 292 1607 301 1481 q 304 1635 290 1624 q 344 1647 318 1647 q 375 1637 367 1647 q 389 1607 383 1626 q 443 1512 407 1543 q 542 1481 479 1481 q 641 1512 604 1481 q 694 1607 678 1543 q 708 1637 700 1626 q 738 1647 715 1647 q 778 1635 764 1647 q 792 1607 793 1624 q 752 1471 786 1526 q 664 1386 718 1415 q 542 1357 610 1357 m 549 1935 q 658 1902 617 1935 q 700 1814 700 1869 q 684 1752 700 1779 q 629 1696 668 1725 q 604 1671 611 1682 q 600 1646 597 1660 l 601 1636 q 594 1610 606 1621 q 564 1594 582 1599 q 530 1594 546 1590 q 507 1613 514 1599 l 492 1650 q 492 1709 481 1682 q 535 1758 504 1736 q 562 1783 554 1772 q 569 1806 569 1794 q 558 1825 569 1817 q 526 1833 546 1833 q 485 1828 507 1833 q 451 1813 464 1822 q 393 1835 418 1792 q 401 1889 376 1867 q 469 1922 431 1910 q 549 1935 508 1935 z "},"Ẵ":{"ha":1086,"x_min":25,"x_max":1063,"o":"m 88 -19 q 38 -2 51 -19 q 35 43 25 15 l 465 1243 q 493 1287 476 1275 q 543 1299 510 1299 q 592 1287 576 1299 q 619 1243 608 1275 l 1051 43 q 1047 -2 1063 15 q 996 -19 1032 -19 q 952 -8 965 -19 q 928 32 939 4 l 811 360 l 271 360 l 154 32 q 131 -8 144 4 q 88 -19 118 -19 m 311 471 l 771 471 l 542 1117 l 311 471 m 542 1357 q 368 1419 435 1357 q 292 1607 301 1481 q 304 1635 290 1624 q 344 1647 318 1647 q 375 1637 367 1647 q 389 1607 383 1626 q 443 1512 407 1543 q 542 1481 479 1481 q 641 1512 604 1481 q 694 1607 678 1543 q 708 1637 700 1626 q 738 1647 715 1647 q 778 1635 764 1647 q 792 1607 793 1624 q 752 1471 786 1526 q 664 1386 718 1415 q 542 1357 610 1357 m 332 1690 q 285 1726 285 1690 q 322 1858 288 1814 q 424 1903 356 1903 q 498 1887 465 1903 q 557 1851 531 1871 q 606 1815 583 1831 q 651 1799 629 1799 q 681 1821 671 1799 q 694 1875 692 1843 q 742 1906 696 1906 q 780 1896 768 1906 q 792 1867 792 1886 q 756 1735 790 1779 q 651 1692 721 1692 q 578 1708 611 1692 q 517 1744 544 1724 q 467 1781 490 1765 q 424 1797 444 1797 q 394 1780 404 1797 q 382 1726 385 1763 q 368 1699 381 1708 q 332 1690 356 1690 z "},"Ấ":{"ha":1086,"x_min":25,"x_max":1063,"o":"m 88 -19 q 38 -2 51 -19 q 35 43 25 15 l 465 1243 q 493 1287 476 1275 q 543 1299 510 1299 q 592 1287 576 1299 q 619 1243 608 1275 l 1051 43 q 1047 -2 1063 15 q 996 -19 1032 -19 q 952 -8 965 -19 q 928 32 939 4 l 811 360 l 271 360 l 154 32 q 131 -8 144 4 q 88 -19 118 -19 m 311 471 l 771 471 l 542 1117 l 311 471 m 331 1357 q 300 1374 318 1357 q 282 1404 282 1390 q 283 1414 282 1408 q 290 1426 283 1419 l 481 1619 q 503 1638 490 1629 q 542 1647 515 1647 q 580 1638 568 1647 q 601 1619 592 1629 l 793 1426 q 801 1414 800 1419 q 801 1404 801 1408 q 784 1374 801 1390 q 753 1357 767 1357 q 736 1362 743 1357 q 718 1375 729 1367 l 542 1508 l 365 1375 q 348 1362 356 1367 q 331 1357 340 1357 m 758 1578 q 726 1597 744 1578 q 707 1629 707 1615 q 709 1640 707 1636 q 719 1654 711 1644 l 904 1842 q 917 1854 911 1850 q 929 1858 922 1858 q 961 1846 943 1858 q 992 1816 979 1833 q 1006 1785 1006 1799 q 1003 1769 1006 1775 q 985 1750 1000 1764 l 786 1592 q 771 1582 778 1586 q 758 1578 764 1578 z "},"Ậ":{"ha":1086,"x_min":25,"x_max":1063,"o":"m 88 -19 q 38 -2 51 -19 q 35 43 25 15 l 465 1243 q 493 1287 476 1275 q 543 1299 510 1299 q 592 1287 576 1299 q 619 1243 608 1275 l 1051 43 q 1047 -2 1063 15 q 996 -19 1032 -19 q 952 -8 965 -19 q 928 32 939 4 l 811 360 l 271 360 l 154 32 q 131 -8 144 4 q 88 -19 118 -19 m 311 471 l 771 471 l 542 1117 l 311 471 m 542 -326 q 483 -305 503 -326 q 464 -239 464 -283 q 483 -173 464 -194 q 542 -151 503 -151 q 599 -173 579 -151 q 618 -239 618 -194 q 599 -305 619 -283 q 542 -326 579 -326 m 331 1357 q 300 1374 318 1357 q 282 1404 282 1390 q 283 1414 282 1408 q 290 1426 283 1419 l 481 1619 q 503 1638 490 1629 q 542 1647 515 1647 q 580 1638 568 1647 q 601 1619 592 1629 l 793 1426 q 801 1414 800 1419 q 801 1404 801 1408 q 784 1374 801 1390 q 753 1357 767 1357 q 736 1362 743 1357 q 718 1375 729 1367 l 542 1508 l 365 1375 q 348 1362 356 1367 q 331 1357 340 1357 z "},"Ầ":{"ha":1086,"x_min":25,"x_max":1063,"o":"m 88 -19 q 38 -2 51 -19 q 35 43 25 15 l 465 1243 q 493 1287 476 1275 q 543 1299 510 1299 q 592 1287 576 1299 q 619 1243 608 1275 l 1051 43 q 1047 -2 1063 15 q 996 -19 1032 -19 q 952 -8 965 -19 q 928 32 939 4 l 811 360 l 271 360 l 154 32 q 131 -8 144 4 q 88 -19 118 -19 m 311 471 l 771 471 l 542 1117 l 311 471 m 331 1357 q 300 1374 318 1357 q 282 1404 282 1390 q 283 1414 282 1408 q 290 1426 283 1419 l 481 1619 q 503 1638 490 1629 q 542 1647 515 1647 q 580 1638 568 1647 q 601 1619 592 1629 l 793 1426 q 801 1414 800 1419 q 801 1404 801 1408 q 784 1374 801 1390 q 753 1357 767 1357 q 736 1362 743 1357 q 718 1375 729 1367 l 542 1508 l 365 1375 q 348 1362 356 1367 q 331 1357 340 1357 m 844 1557 q 833 1560 839 1557 q 818 1571 826 1564 l 625 1753 q 608 1772 611 1765 q 604 1788 604 1778 q 617 1819 604 1801 q 649 1848 631 1836 q 681 1860 667 1860 q 694 1856 688 1860 q 707 1844 700 1851 l 885 1633 q 894 1619 892 1624 q 897 1610 897 1615 q 878 1576 897 1596 q 844 1557 860 1557 z "},"Ẩ":{"ha":1086,"x_min":25,"x_max":1063,"o":"m 88 -19 q 38 -2 51 -19 q 35 43 25 15 l 465 1243 q 493 1287 476 1275 q 543 1299 510 1299 q 592 1287 576 1299 q 619 1243 608 1275 l 1051 43 q 1047 -2 1063 15 q 996 -19 1032 -19 q 952 -8 965 -19 q 928 32 939 4 l 811 360 l 271 360 l 154 32 q 131 -8 144 4 q 88 -19 118 -19 m 311 471 l 771 471 l 542 1117 l 311 471 m 331 1357 q 300 1374 318 1357 q 282 1404 282 1390 q 283 1414 282 1408 q 290 1426 283 1419 l 481 1619 q 503 1638 490 1629 q 542 1647 515 1647 q 580 1638 568 1647 q 601 1619 592 1629 l 793 1426 q 801 1414 800 1419 q 801 1404 801 1408 q 784 1374 801 1390 q 753 1357 767 1357 q 736 1362 743 1357 q 718 1375 729 1367 l 542 1508 l 365 1375 q 348 1362 356 1367 q 331 1357 340 1357 m 796 1872 q 906 1840 864 1872 q 947 1751 947 1807 q 931 1690 947 1717 q 876 1633 915 1663 q 851 1608 858 1619 q 847 1583 844 1597 l 849 1574 q 841 1547 853 1558 q 811 1532 829 1536 q 777 1532 793 1528 q 754 1550 761 1536 l 739 1588 q 740 1647 728 1619 q 782 1696 751 1674 q 809 1721 801 1710 q 817 1743 817 1732 q 805 1763 817 1754 q 774 1771 793 1771 q 733 1765 754 1771 q 699 1750 711 1760 q 640 1772 665 1729 q 649 1826 624 1804 q 717 1860 678 1847 q 796 1872 756 1872 z "},"Ẫ":{"ha":1086,"x_min":25,"x_max":1063,"o":"m 88 -19 q 38 -2 51 -19 q 35 43 25 15 l 465 1243 q 493 1287 476 1275 q 543 1299 510 1299 q 592 1287 576 1299 q 619 1243 608 1275 l 1051 43 q 1047 -2 1063 15 q 996 -19 1032 -19 q 952 -8 965 -19 q 928 32 939 4 l 811 360 l 271 360 l 154 32 q 131 -8 144 4 q 88 -19 118 -19 m 311 471 l 771 471 l 542 1117 l 311 471 m 331 1357 q 300 1374 318 1357 q 282 1404 282 1390 q 283 1414 282 1408 q 290 1426 283 1419 l 481 1619 q 503 1638 490 1629 q 542 1647 515 1647 q 580 1638 568 1647 q 601 1619 592 1629 l 793 1426 q 801 1414 800 1419 q 801 1404 801 1408 q 784 1374 801 1390 q 753 1357 767 1357 q 736 1362 743 1357 q 718 1375 729 1367 l 542 1508 l 365 1375 q 348 1362 356 1367 q 331 1357 340 1357 m 339 1664 q 292 1701 292 1664 q 328 1833 294 1788 q 429 1878 363 1878 q 504 1862 471 1878 q 564 1826 538 1846 q 613 1790 590 1806 q 658 1774 636 1774 q 688 1796 676 1774 q 701 1850 699 1818 q 749 1879 703 1879 q 787 1869 775 1879 q 799 1842 799 1860 q 762 1710 797 1754 q 658 1667 726 1667 q 585 1683 618 1667 q 524 1719 551 1699 q 474 1756 497 1740 q 429 1772 450 1772 q 401 1754 411 1772 q 389 1701 392 1736 q 375 1674 388 1683 q 339 1664 363 1664 z "},"Ạ":{"ha":1086,"x_min":25,"x_max":1063,"o":"m 88 -19 q 38 -2 51 -19 q 35 43 25 15 l 465 1243 q 493 1287 476 1275 q 543 1299 510 1299 q 592 1287 576 1299 q 619 1243 608 1275 l 1051 43 q 1047 -2 1063 15 q 996 -19 1032 -19 q 952 -8 965 -19 q 928 32 939 4 l 811 360 l 271 360 l 154 32 q 131 -8 144 4 q 88 -19 118 -19 m 311 471 l 771 471 l 542 1117 l 311 471 m 542 -326 q 483 -305 503 -326 q 464 -239 464 -283 q 483 -173 464 -194 q 542 -151 503 -151 q 599 -173 579 -151 q 618 -239 618 -194 q 599 -305 619 -283 q 542 -326 579 -326 z "},"Ả":{"ha":1086,"x_min":25,"x_max":1063,"o":"m 88 -19 q 38 -2 51 -19 q 35 43 25 15 l 465 1243 q 493 1287 476 1275 q 543 1299 510 1299 q 592 1287 576 1299 q 619 1243 608 1275 l 1051 43 q 1047 -2 1063 15 q 996 -19 1032 -19 q 952 -8 965 -19 q 928 32 939 4 l 811 360 l 271 360 l 154 32 q 131 -8 144 4 q 88 -19 118 -19 m 311 471 l 771 471 l 542 1117 l 311 471 m 556 1686 q 665 1653 624 1686 q 707 1565 707 1621 q 691 1503 707 1531 q 636 1447 675 1476 q 612 1422 618 1433 q 608 1397 606 1411 l 610 1388 q 602 1361 614 1372 q 572 1346 590 1350 q 538 1346 554 1342 q 515 1364 522 1350 l 500 1401 q 500 1460 489 1433 q 542 1510 511 1488 q 569 1535 561 1524 q 576 1557 576 1546 q 565 1576 576 1568 q 533 1585 553 1585 q 494 1579 515 1585 q 460 1564 472 1574 q 401 1586 426 1543 q 410 1640 385 1618 q 478 1674 439 1661 q 556 1686 517 1686 z "},"Ć":{"ha":1119,"x_min":118,"x_max":1082,"o":"m 668 -26 q 440 23 542 -26 q 267 161 339 72 q 157 371 196 250 q 118 638 118 492 q 135 819 118 733 q 186 980 153 906 q 268 1113 219 1054 q 378 1213 317 1171 q 513 1277 439 1256 q 671 1299 586 1299 q 803 1283 736 1299 q 932 1231 871 1268 q 1040 1126 993 1194 q 1047 1097 1051 1110 q 1024 1069 1042 1085 q 991 1050 1006 1053 q 964 1061 976 1047 q 880 1126 926 1100 q 781 1167 833 1153 q 671 1181 728 1181 q 554 1165 608 1181 q 453 1117 500 1149 q 368 1038 406 1085 q 303 931 331 992 q 263 797 276 871 q 249 638 249 724 q 280 406 249 508 q 367 234 311 304 q 499 128 422 164 q 668 92 576 92 q 762 105 718 92 q 846 142 806 118 q 922 200 886 167 q 992 272 957 233 q 1020 282 1004 285 q 1054 264 1036 279 q 1078 236 1074 249 q 1071 208 1082 224 q 947 73 1013 125 q 810 -3 881 21 q 668 -26 740 -26 m 594 1357 q 561 1376 579 1357 q 543 1408 543 1394 q 544 1420 543 1415 q 554 1433 546 1425 l 746 1632 q 759 1643 753 1639 q 772 1647 765 1647 q 804 1635 786 1647 q 835 1606 822 1622 q 849 1575 849 1589 q 845 1558 849 1565 q 828 1540 842 1551 l 621 1371 q 606 1361 613 1365 q 594 1357 600 1357 z "},"Č":{"ha":1119,"x_min":118,"x_max":1082,"o":"m 668 -26 q 440 23 542 -26 q 267 161 339 72 q 157 371 196 250 q 118 638 118 492 q 135 819 118 733 q 186 980 153 906 q 268 1113 219 1054 q 378 1213 317 1171 q 513 1277 439 1256 q 671 1299 586 1299 q 803 1283 736 1299 q 932 1231 871 1268 q 1040 1126 993 1194 q 1047 1097 1051 1110 q 1024 1069 1042 1085 q 991 1050 1006 1053 q 964 1061 976 1047 q 880 1126 926 1100 q 781 1167 833 1153 q 671 1181 728 1181 q 554 1165 608 1181 q 453 1117 500 1149 q 368 1038 406 1085 q 303 931 331 992 q 263 797 276 871 q 249 638 249 724 q 280 406 249 508 q 367 234 311 304 q 499 128 422 164 q 668 92 576 92 q 762 105 718 92 q 846 142 806 118 q 922 200 886 167 q 992 272 957 233 q 1020 282 1004 285 q 1054 264 1036 279 q 1078 236 1074 249 q 1071 208 1082 224 q 947 73 1013 125 q 810 -3 881 21 q 668 -26 740 -26 m 869 1647 q 901 1631 883 1647 q 918 1600 918 1615 q 917 1592 918 1597 q 910 1578 917 1586 l 719 1385 q 698 1367 710 1376 q 658 1357 686 1357 q 620 1367 632 1357 q 600 1385 608 1376 l 407 1578 q 399 1592 400 1586 q 399 1600 399 1597 q 417 1631 399 1615 q 447 1647 435 1647 q 465 1642 457 1647 q 482 1631 472 1638 l 658 1496 l 835 1631 q 853 1642 846 1638 q 869 1647 860 1647 z "},"Ç":{"ha":1119,"x_min":118,"x_max":1082,"o":"m 668 -26 q 440 23 542 -26 q 267 161 339 72 q 157 371 196 250 q 118 638 118 492 q 135 819 118 733 q 186 980 153 906 q 268 1113 219 1054 q 378 1213 317 1171 q 513 1277 439 1256 q 671 1299 586 1299 q 803 1283 736 1299 q 932 1231 871 1268 q 1040 1126 993 1194 q 1047 1097 1051 1110 q 1024 1069 1042 1085 q 991 1050 1006 1053 q 964 1061 976 1047 q 880 1126 926 1100 q 781 1167 833 1153 q 671 1181 728 1181 q 554 1165 608 1181 q 453 1117 500 1149 q 368 1038 406 1085 q 303 931 331 992 q 263 797 276 871 q 249 638 249 724 q 280 406 249 508 q 367 234 311 304 q 499 128 422 164 q 668 92 576 92 q 762 105 718 92 q 846 142 806 118 q 922 200 886 167 q 992 272 957 233 q 1020 282 1004 285 q 1054 264 1036 279 q 1078 236 1074 249 q 1071 208 1082 224 q 947 73 1013 125 q 810 -3 881 21 q 668 -26 740 -26 m 617 -375 q 549 -367 593 -375 q 467 -336 504 -360 q 449 -310 451 -326 q 454 -279 447 -294 q 476 -254 464 -260 q 507 -257 489 -249 q 549 -271 522 -262 q 607 -279 575 -279 q 667 -269 650 -279 q 685 -232 685 -258 q 663 -194 685 -210 q 581 -187 642 -179 q 557 -186 565 -189 q 540 -174 549 -183 q 533 -154 533 -164 q 536 -135 532 -144 l 604 18 l 693 18 l 621 -146 l 579 -124 q 690 -108 642 -100 q 767 -149 739 -117 q 794 -232 794 -181 q 774 -308 794 -276 q 715 -358 754 -340 q 617 -375 676 -375 z "},"Ĉ":{"ha":1119,"x_min":118,"x_max":1082,"o":"m 668 -26 q 440 23 542 -26 q 267 161 339 72 q 157 371 196 250 q 118 638 118 492 q 135 819 118 733 q 186 980 153 906 q 268 1113 219 1054 q 378 1213 317 1171 q 513 1277 439 1256 q 671 1299 586 1299 q 803 1283 736 1299 q 932 1231 871 1268 q 1040 1126 993 1194 q 1047 1097 1051 1110 q 1024 1069 1042 1085 q 991 1050 1006 1053 q 964 1061 976 1047 q 880 1126 926 1100 q 781 1167 833 1153 q 671 1181 728 1181 q 554 1165 608 1181 q 453 1117 500 1149 q 368 1038 406 1085 q 303 931 331 992 q 263 797 276 871 q 249 638 249 724 q 280 406 249 508 q 367 234 311 304 q 499 128 422 164 q 668 92 576 92 q 762 105 718 92 q 846 142 806 118 q 922 200 886 167 q 992 272 957 233 q 1020 282 1004 285 q 1054 264 1036 279 q 1078 236 1074 249 q 1071 208 1082 224 q 947 73 1013 125 q 810 -3 881 21 q 668 -26 740 -26 m 447 1357 q 417 1374 435 1357 q 399 1404 399 1390 q 399 1414 399 1408 q 407 1426 400 1419 l 597 1619 q 619 1638 607 1629 q 658 1647 632 1647 q 697 1638 685 1647 q 718 1619 708 1629 l 910 1426 q 917 1414 917 1419 q 918 1404 918 1408 q 901 1374 918 1390 q 869 1357 883 1357 q 853 1362 860 1357 q 835 1375 846 1367 l 658 1508 l 482 1375 q 465 1362 472 1367 q 447 1357 457 1357 z "},"Ċ":{"ha":1119,"x_min":118,"x_max":1082,"o":"m 668 -26 q 440 23 542 -26 q 267 161 339 72 q 157 371 196 250 q 118 638 118 492 q 135 819 118 733 q 186 980 153 906 q 268 1113 219 1054 q 378 1213 317 1171 q 513 1277 439 1256 q 671 1299 586 1299 q 803 1283 736 1299 q 932 1231 871 1268 q 1040 1126 993 1194 q 1047 1097 1051 1110 q 1024 1069 1042 1085 q 991 1050 1006 1053 q 964 1061 976 1047 q 880 1126 926 1100 q 781 1167 833 1153 q 671 1181 728 1181 q 554 1165 608 1181 q 453 1117 500 1149 q 368 1038 406 1085 q 303 931 331 992 q 263 797 276 871 q 249 638 249 724 q 280 406 249 508 q 367 234 311 304 q 499 128 422 164 q 668 92 576 92 q 762 105 718 92 q 846 142 806 118 q 922 200 886 167 q 992 272 957 233 q 1020 282 1004 285 q 1054 264 1036 279 q 1078 236 1074 249 q 1071 208 1082 224 q 947 73 1013 125 q 810 -3 881 21 q 668 -26 740 -26 m 658 1401 q 600 1423 619 1401 q 581 1488 581 1444 q 600 1554 581 1532 q 658 1576 619 1576 q 715 1554 696 1576 q 735 1488 735 1532 q 716 1423 736 1444 q 658 1401 696 1401 z "},"Ď":{"ha":1254,"x_min":183,"x_max":1136,"o":"m 244 0 q 183 39 183 0 l 183 1239 q 199 1267 183 1258 q 244 1276 214 1276 l 506 1276 q 787 1230 668 1276 q 983 1103 906 1183 q 1099 921 1061 1024 q 1136 704 1136 818 q 1110 467 1136 576 q 1028 272 1083 358 q 889 125 974 186 q 688 32 804 64 q 425 0 572 0 l 244 0 m 306 118 l 425 118 q 639 142 544 118 q 803 213 733 165 q 917 332 872 261 q 983 496 961 403 q 1006 704 1006 589 q 974 884 1006 801 q 877 1028 942 967 q 720 1124 813 1090 q 506 1158 628 1158 l 306 1158 l 306 118 m 800 1647 q 831 1631 814 1647 q 849 1600 849 1615 q 848 1592 849 1597 q 840 1578 847 1586 l 650 1385 q 628 1367 640 1376 q 589 1357 617 1357 q 551 1367 563 1357 q 531 1385 539 1376 l 338 1578 q 330 1592 331 1586 q 329 1600 329 1597 q 347 1631 329 1615 q 378 1647 365 1647 q 395 1642 388 1647 q 413 1631 403 1638 l 589 1496 l 765 1631 q 783 1642 776 1638 q 800 1647 790 1647 z "},"Đ":{"ha":1254,"x_min":31,"x_max":1136,"o":"m 244 0 q 183 39 183 0 l 183 1239 q 199 1267 183 1258 q 244 1276 214 1276 l 506 1276 q 787 1230 668 1276 q 983 1103 906 1183 q 1099 921 1061 1024 q 1136 704 1136 818 q 1110 467 1136 576 q 1028 272 1083 358 q 889 125 974 186 q 688 32 804 64 q 425 0 572 0 l 244 0 m 306 118 l 425 118 q 639 142 544 118 q 803 213 733 165 q 917 332 872 261 q 983 496 961 403 q 1006 704 1006 589 q 974 884 1006 801 q 877 1028 942 967 q 720 1124 813 1090 q 506 1158 628 1158 l 306 1158 l 306 118 m 71 596 q 39 611 46 596 q 32 644 32 626 q 39 681 32 664 q 71 697 46 697 l 592 697 q 622 681 615 697 q 629 644 629 664 q 622 611 629 626 q 592 596 615 596 l 71 596 z "},"É":{"ha":957,"x_min":183,"x_max":901,"o":"m 244 0 q 199 14 214 0 q 183 56 183 28 l 183 1239 q 199 1267 183 1258 q 244 1276 214 1276 l 864 1276 q 893 1265 885 1276 q 901 1221 901 1253 q 893 1178 901 1190 q 864 1165 885 1165 l 306 1165 l 306 731 l 772 731 q 802 719 793 731 q 811 675 811 707 q 802 632 811 644 q 772 619 793 619 l 306 619 l 306 111 l 864 111 q 893 99 885 111 q 901 56 901 88 q 893 13 901 25 q 864 0 885 0 l 244 0 m 493 1357 q 460 1376 478 1357 q 442 1408 442 1394 q 443 1420 442 1415 q 453 1433 444 1425 l 644 1632 q 658 1643 651 1639 q 671 1647 664 1647 q 703 1635 685 1647 q 734 1606 721 1622 q 747 1575 747 1589 q 744 1558 747 1565 q 726 1540 740 1551 l 519 1371 q 505 1361 511 1365 q 493 1357 499 1357 z "},"Ĕ":{"ha":957,"x_min":183,"x_max":901,"o":"m 244 0 q 199 14 214 0 q 183 56 183 28 l 183 1239 q 199 1267 183 1258 q 244 1276 214 1276 l 864 1276 q 893 1265 885 1276 q 901 1221 901 1253 q 893 1178 901 1190 q 864 1165 885 1165 l 306 1165 l 306 731 l 772 731 q 802 719 793 731 q 811 675 811 707 q 802 632 811 644 q 772 619 793 619 l 306 619 l 306 111 l 864 111 q 893 99 885 111 q 901 56 901 88 q 893 13 901 25 q 864 0 885 0 l 244 0 m 557 1357 q 383 1419 450 1357 q 307 1607 317 1481 q 319 1635 306 1624 q 360 1647 333 1647 q 390 1637 382 1647 q 404 1607 399 1626 q 458 1512 422 1543 q 557 1481 494 1481 q 656 1512 619 1481 q 710 1607 693 1543 q 723 1637 715 1626 q 753 1647 731 1647 q 794 1635 779 1647 q 807 1607 808 1624 q 767 1471 801 1526 q 679 1386 733 1415 q 557 1357 625 1357 z "},"Ě":{"ha":957,"x_min":183,"x_max":901,"o":"m 244 0 q 199 14 214 0 q 183 56 183 28 l 183 1239 q 199 1267 183 1258 q 244 1276 214 1276 l 864 1276 q 893 1265 885 1276 q 901 1221 901 1253 q 893 1178 901 1190 q 864 1165 885 1165 l 306 1165 l 306 731 l 772 731 q 802 719 793 731 q 811 675 811 707 q 802 632 811 644 q 772 619 793 619 l 306 619 l 306 111 l 864 111 q 893 99 885 111 q 901 56 901 88 q 893 13 901 25 q 864 0 885 0 l 244 0 m 768 1647 q 799 1631 782 1647 q 817 1600 817 1615 q 816 1592 817 1597 q 808 1578 815 1586 l 618 1385 q 597 1367 608 1376 q 557 1357 585 1357 q 519 1367 531 1357 q 499 1385 507 1376 l 306 1578 q 298 1592 299 1586 q 297 1600 297 1597 q 315 1631 297 1615 q 346 1647 333 1647 q 363 1642 356 1647 q 381 1631 371 1638 l 557 1496 l 733 1631 q 751 1642 744 1638 q 768 1647 758 1647 z "},"Ê":{"ha":957,"x_min":183,"x_max":901,"o":"m 244 0 q 199 14 214 0 q 183 56 183 28 l 183 1239 q 199 1267 183 1258 q 244 1276 214 1276 l 864 1276 q 893 1265 885 1276 q 901 1221 901 1253 q 893 1178 901 1190 q 864 1165 885 1165 l 306 1165 l 306 731 l 772 731 q 802 719 793 731 q 811 675 811 707 q 802 632 811 644 q 772 619 793 619 l 306 619 l 306 111 l 864 111 q 893 99 885 111 q 901 56 901 88 q 893 13 901 25 q 864 0 885 0 l 244 0 m 346 1357 q 315 1374 333 1357 q 297 1404 297 1390 q 298 1414 297 1408 q 306 1426 299 1419 l 496 1619 q 518 1638 506 1629 q 557 1647 531 1647 q 595 1638 583 1647 q 617 1619 607 1629 l 808 1426 q 816 1414 815 1419 q 817 1404 817 1408 q 799 1374 817 1390 q 768 1357 782 1357 q 751 1362 758 1357 q 733 1375 744 1367 l 557 1508 l 381 1375 q 363 1362 371 1367 q 346 1357 356 1357 z "},"Ë":{"ha":957,"x_min":183,"x_max":901,"o":"m 244 0 q 199 14 214 0 q 183 56 183 28 l 183 1239 q 199 1267 183 1258 q 244 1276 214 1276 l 864 1276 q 893 1265 885 1276 q 901 1221 901 1253 q 893 1178 901 1190 q 864 1165 885 1165 l 306 1165 l 306 731 l 772 731 q 802 719 793 731 q 811 675 811 707 q 802 632 811 644 q 772 619 793 619 l 306 619 l 306 111 l 864 111 q 893 99 885 111 q 901 56 901 88 q 893 13 901 25 q 864 0 885 0 l 244 0 m 390 1403 q 332 1424 351 1403 q 313 1489 313 1446 q 332 1556 313 1533 q 390 1578 351 1578 q 448 1556 429 1578 q 467 1489 467 1533 q 449 1424 469 1446 q 390 1403 429 1403 m 725 1403 q 667 1424 686 1403 q 647 1489 647 1446 q 667 1556 647 1533 q 725 1578 686 1578 q 782 1556 763 1578 q 801 1489 801 1533 q 783 1424 803 1446 q 725 1403 763 1403 z "},"Ė":{"ha":957,"x_min":183,"x_max":901,"o":"m 244 0 q 199 14 214 0 q 183 56 183 28 l 183 1239 q 199 1267 183 1258 q 244 1276 214 1276 l 864 1276 q 893 1265 885 1276 q 901 1221 901 1253 q 893 1178 901 1190 q 864 1165 885 1165 l 306 1165 l 306 731 l 772 731 q 802 719 793 731 q 811 675 811 707 q 802 632 811 644 q 772 619 793 619 l 306 619 l 306 111 l 864 111 q 893 99 885 111 q 901 56 901 88 q 893 13 901 25 q 864 0 885 0 l 244 0 m 557 1401 q 499 1423 518 1401 q 479 1488 479 1444 q 499 1554 479 1532 q 557 1576 518 1576 q 614 1554 594 1576 q 633 1488 633 1532 q 615 1423 635 1444 q 557 1401 594 1401 z "},"È":{"ha":957,"x_min":183,"x_max":901,"o":"m 244 0 q 199 14 214 0 q 183 56 183 28 l 183 1239 q 199 1267 183 1258 q 244 1276 214 1276 l 864 1276 q 893 1265 885 1276 q 901 1221 901 1253 q 893 1178 901 1190 q 864 1165 885 1165 l 306 1165 l 306 731 l 772 731 q 802 719 793 731 q 811 675 811 707 q 802 632 811 644 q 772 619 793 619 l 306 619 l 306 111 l 864 111 q 893 99 885 111 q 901 56 901 88 q 893 13 901 25 q 864 0 885 0 l 244 0 m 621 1357 q 609 1361 615 1357 q 594 1371 603 1365 l 388 1540 q 371 1558 375 1551 q 367 1575 367 1565 q 380 1606 367 1589 q 411 1635 393 1622 q 443 1647 429 1647 q 458 1643 451 1647 q 469 1632 464 1639 l 661 1433 q 672 1420 671 1425 q 674 1410 674 1415 q 655 1376 674 1394 q 621 1357 636 1357 z "},"Ē":{"ha":957,"x_min":183,"x_max":901,"o":"m 244 0 q 199 14 214 0 q 183 56 183 28 l 183 1239 q 199 1267 183 1258 q 244 1276 214 1276 l 864 1276 q 893 1265 885 1276 q 901 1221 901 1253 q 893 1178 901 1190 q 864 1165 885 1165 l 306 1165 l 306 731 l 772 731 q 802 719 793 731 q 811 675 811 707 q 802 632 811 644 q 772 619 793 619 l 306 619 l 306 111 l 864 111 q 893 99 885 111 q 901 56 901 88 q 893 13 901 25 q 864 0 885 0 l 244 0 m 369 1443 q 339 1459 346 1443 q 332 1500 332 1475 q 339 1544 332 1526 q 369 1561 346 1561 l 746 1561 q 777 1544 771 1561 q 783 1500 783 1526 q 777 1459 783 1475 q 746 1443 771 1443 l 369 1443 z "},"Ę":{"ha":957,"x_min":183,"x_max":925,"o":"m 244 0 q 199 14 214 0 q 183 56 183 28 l 183 1239 q 199 1267 183 1258 q 244 1276 214 1276 l 864 1276 q 893 1265 885 1276 q 901 1221 901 1253 q 893 1178 901 1190 q 864 1165 885 1165 l 306 1165 l 306 731 l 772 731 q 802 719 793 731 q 811 675 811 707 q 802 632 811 644 q 772 619 793 619 l 306 619 l 306 111 l 864 111 q 893 99 885 111 q 901 56 901 88 q 893 13 901 25 q 864 0 885 0 l 244 0 m 749 -354 q 655 -324 694 -354 q 615 -232 615 -293 q 628 -162 615 -194 q 665 -99 640 -129 q 724 -35 689 -68 q 807 33 760 -3 l 893 35 l 893 22 q 831 -31 861 -4 q 777 -85 801 -58 q 738 -138 753 -111 q 722 -192 722 -165 q 736 -235 722 -222 q 772 -249 750 -249 q 810 -240 793 -249 q 853 -211 826 -232 q 876 -203 863 -204 q 904 -215 890 -203 q 922 -247 918 -229 q 918 -276 925 -265 q 872 -318 901 -300 q 809 -345 842 -336 q 749 -354 776 -354 z "},"Ế":{"ha":957,"x_min":183,"x_max":1021,"o":"m 244 0 q 199 14 214 0 q 183 56 183 28 l 183 1239 q 199 1267 183 1258 q 244 1276 214 1276 l 864 1276 q 893 1265 885 1276 q 901 1221 901 1253 q 893 1178 901 1190 q 864 1165 885 1165 l 306 1165 l 306 731 l 772 731 q 802 719 793 731 q 811 675 811 707 q 802 632 811 644 q 772 619 793 619 l 306 619 l 306 111 l 864 111 q 893 99 885 111 q 901 56 901 88 q 893 13 901 25 q 864 0 885 0 l 244 0 m 346 1357 q 315 1374 333 1357 q 297 1404 297 1390 q 298 1414 297 1408 q 306 1426 299 1419 l 496 1619 q 518 1638 506 1629 q 557 1647 531 1647 q 595 1638 583 1647 q 617 1619 607 1629 l 808 1426 q 816 1414 815 1419 q 817 1404 817 1408 q 799 1374 817 1390 q 768 1357 782 1357 q 751 1362 758 1357 q 733 1375 744 1367 l 557 1508 l 381 1375 q 363 1362 371 1367 q 346 1357 356 1357 m 774 1578 q 741 1597 760 1578 q 722 1629 722 1615 q 724 1640 722 1636 q 735 1654 726 1644 l 919 1842 q 932 1854 926 1850 q 944 1858 938 1858 q 976 1846 958 1858 q 1008 1816 994 1833 q 1021 1785 1021 1799 q 1018 1769 1021 1775 q 1000 1750 1015 1764 l 801 1592 q 786 1582 793 1586 q 774 1578 779 1578 z "},"Ệ":{"ha":957,"x_min":183,"x_max":901,"o":"m 244 0 q 199 14 214 0 q 183 56 183 28 l 183 1239 q 199 1267 183 1258 q 244 1276 214 1276 l 864 1276 q 893 1265 885 1276 q 901 1221 901 1253 q 893 1178 901 1190 q 864 1165 885 1165 l 306 1165 l 306 731 l 772 731 q 802 719 793 731 q 811 675 811 707 q 802 632 811 644 q 772 619 793 619 l 306 619 l 306 111 l 864 111 q 893 99 885 111 q 901 56 901 88 q 893 13 901 25 q 864 0 885 0 l 244 0 m 531 -326 q 472 -305 492 -326 q 453 -239 453 -283 q 472 -173 453 -194 q 531 -151 492 -151 q 588 -173 568 -151 q 607 -239 607 -194 q 588 -305 608 -283 q 531 -326 568 -326 m 346 1357 q 315 1374 333 1357 q 297 1404 297 1390 q 298 1414 297 1408 q 306 1426 299 1419 l 496 1619 q 518 1638 506 1629 q 557 1647 531 1647 q 595 1638 583 1647 q 617 1619 607 1629 l 808 1426 q 816 1414 815 1419 q 817 1404 817 1408 q 799 1374 817 1390 q 768 1357 782 1357 q 751 1362 758 1357 q 733 1375 744 1367 l 557 1508 l 381 1375 q 363 1362 371 1367 q 346 1357 356 1357 z "},"Ề":{"ha":957,"x_min":183,"x_max":913,"o":"m 244 0 q 199 14 214 0 q 183 56 183 28 l 183 1239 q 199 1267 183 1258 q 244 1276 214 1276 l 864 1276 q 893 1265 885 1276 q 901 1221 901 1253 q 893 1178 901 1190 q 864 1165 885 1165 l 306 1165 l 306 731 l 772 731 q 802 719 793 731 q 811 675 811 707 q 802 632 811 644 q 772 619 793 619 l 306 619 l 306 111 l 864 111 q 893 99 885 111 q 901 56 901 88 q 893 13 901 25 q 864 0 885 0 l 244 0 m 346 1357 q 315 1374 333 1357 q 297 1404 297 1390 q 298 1414 297 1408 q 306 1426 299 1419 l 496 1619 q 518 1638 506 1629 q 557 1647 531 1647 q 595 1638 583 1647 q 617 1619 607 1629 l 808 1426 q 816 1414 815 1419 q 817 1404 817 1408 q 799 1374 817 1390 q 768 1357 782 1357 q 751 1362 758 1357 q 733 1375 744 1367 l 557 1508 l 381 1375 q 363 1362 371 1367 q 346 1357 356 1357 m 860 1557 q 848 1560 854 1557 q 833 1571 842 1564 l 640 1753 q 623 1772 626 1765 q 619 1788 619 1778 q 633 1819 619 1801 q 664 1848 646 1836 q 696 1860 682 1860 q 709 1856 703 1860 q 722 1844 715 1851 l 900 1633 q 910 1619 907 1624 q 913 1610 913 1615 q 894 1576 913 1596 q 860 1557 875 1557 z "},"Ể":{"ha":957,"x_min":183,"x_max":963,"o":"m 244 0 q 199 14 214 0 q 183 56 183 28 l 183 1239 q 199 1267 183 1258 q 244 1276 214 1276 l 864 1276 q 893 1265 885 1276 q 901 1221 901 1253 q 893 1178 901 1190 q 864 1165 885 1165 l 306 1165 l 306 731 l 772 731 q 802 719 793 731 q 811 675 811 707 q 802 632 811 644 q 772 619 793 619 l 306 619 l 306 111 l 864 111 q 893 99 885 111 q 901 56 901 88 q 893 13 901 25 q 864 0 885 0 l 244 0 m 346 1357 q 315 1374 333 1357 q 297 1404 297 1390 q 298 1414 297 1408 q 306 1426 299 1419 l 496 1619 q 518 1638 506 1629 q 557 1647 531 1647 q 595 1638 583 1647 q 617 1619 607 1629 l 808 1426 q 816 1414 815 1419 q 817 1404 817 1408 q 799 1374 817 1390 q 768 1357 782 1357 q 751 1362 758 1357 q 733 1375 744 1367 l 557 1508 l 381 1375 q 363 1362 371 1367 q 346 1357 356 1357 m 811 1872 q 921 1840 879 1872 q 963 1751 963 1807 q 947 1690 963 1717 q 892 1633 931 1663 q 867 1608 874 1619 q 863 1583 860 1597 l 864 1574 q 856 1547 868 1558 q 826 1532 844 1536 q 792 1532 808 1528 q 769 1550 776 1536 l 754 1588 q 755 1647 743 1619 q 797 1696 767 1674 q 824 1721 817 1710 q 832 1743 832 1732 q 820 1763 832 1754 q 789 1771 808 1771 q 748 1765 769 1771 q 714 1750 726 1760 q 656 1772 681 1729 q 664 1826 639 1804 q 732 1860 693 1847 q 811 1872 771 1872 z "},"Ễ":{"ha":957,"x_min":183,"x_max":901,"o":"m 244 0 q 199 14 214 0 q 183 56 183 28 l 183 1239 q 199 1267 183 1258 q 244 1276 214 1276 l 864 1276 q 893 1265 885 1276 q 901 1221 901 1253 q 893 1178 901 1190 q 864 1165 885 1165 l 306 1165 l 306 731 l 772 731 q 802 719 793 731 q 811 675 811 707 q 802 632 811 644 q 772 619 793 619 l 306 619 l 306 111 l 864 111 q 893 99 885 111 q 901 56 901 88 q 893 13 901 25 q 864 0 885 0 l 244 0 m 346 1357 q 315 1374 333 1357 q 297 1404 297 1390 q 298 1414 297 1408 q 306 1426 299 1419 l 496 1619 q 518 1638 506 1629 q 557 1647 531 1647 q 595 1638 583 1647 q 617 1619 607 1629 l 808 1426 q 816 1414 815 1419 q 817 1404 817 1408 q 799 1374 817 1390 q 768 1357 782 1357 q 751 1362 758 1357 q 733 1375 744 1367 l 557 1508 l 381 1375 q 363 1362 371 1367 q 346 1357 356 1357 m 354 1664 q 307 1701 307 1664 q 344 1833 310 1788 q 444 1878 378 1878 q 519 1862 486 1878 q 579 1826 553 1846 q 628 1790 606 1806 q 674 1774 651 1774 q 703 1796 692 1774 q 717 1850 714 1818 q 764 1879 718 1879 q 802 1869 790 1879 q 814 1842 814 1860 q 777 1710 813 1754 q 674 1667 742 1667 q 600 1683 633 1667 q 540 1719 567 1699 q 489 1756 513 1740 q 444 1772 465 1772 q 417 1754 426 1772 q 404 1701 407 1736 q 390 1674 403 1683 q 354 1664 378 1664 z "},"Ẹ":{"ha":957,"x_min":183,"x_max":901,"o":"m 244 0 q 199 14 214 0 q 183 56 183 28 l 183 1239 q 199 1267 183 1258 q 244 1276 214 1276 l 864 1276 q 893 1265 885 1276 q 901 1221 901 1253 q 893 1178 901 1190 q 864 1165 885 1165 l 306 1165 l 306 731 l 772 731 q 802 719 793 731 q 811 675 811 707 q 802 632 811 644 q 772 619 793 619 l 306 619 l 306 111 l 864 111 q 893 99 885 111 q 901 56 901 88 q 893 13 901 25 q 864 0 885 0 l 244 0 m 531 -326 q 472 -305 492 -326 q 453 -239 453 -283 q 472 -173 453 -194 q 531 -151 492 -151 q 588 -173 568 -151 q 607 -239 607 -194 q 588 -305 608 -283 q 531 -326 568 -326 z "},"Ẻ":{"ha":957,"x_min":183,"x_max":901,"o":"m 244 0 q 199 14 214 0 q 183 56 183 28 l 183 1239 q 199 1267 183 1258 q 244 1276 214 1276 l 864 1276 q 893 1265 885 1276 q 901 1221 901 1253 q 893 1178 901 1190 q 864 1165 885 1165 l 306 1165 l 306 731 l 772 731 q 802 719 793 731 q 811 675 811 707 q 802 632 811 644 q 772 619 793 619 l 306 619 l 306 111 l 864 111 q 893 99 885 111 q 901 56 901 88 q 893 13 901 25 q 864 0 885 0 l 244 0 m 571 1686 q 681 1653 639 1686 q 722 1565 722 1621 q 706 1503 722 1531 q 651 1447 690 1476 q 627 1422 633 1433 q 624 1397 621 1411 l 625 1388 q 617 1361 629 1372 q 588 1346 606 1350 q 553 1346 569 1342 q 531 1364 538 1350 l 515 1401 q 515 1460 504 1433 q 557 1510 526 1488 q 584 1535 576 1524 q 592 1557 592 1546 q 580 1576 592 1568 q 549 1585 568 1585 q 509 1579 531 1585 q 475 1564 488 1574 q 417 1586 442 1543 q 425 1640 400 1618 q 493 1674 454 1661 q 571 1686 532 1686 z "},"Ẽ":{"ha":957,"x_min":183,"x_max":901,"o":"m 244 0 q 199 14 214 0 q 183 56 183 28 l 183 1239 q 199 1267 183 1258 q 244 1276 214 1276 l 864 1276 q 893 1265 885 1276 q 901 1221 901 1253 q 893 1178 901 1190 q 864 1165 885 1165 l 306 1165 l 306 731 l 772 731 q 802 719 793 731 q 811 675 811 707 q 802 632 811 644 q 772 619 793 619 l 306 619 l 306 111 l 864 111 q 893 99 885 111 q 901 56 901 88 q 893 13 901 25 q 864 0 885 0 l 244 0 m 347 1394 q 300 1431 300 1394 q 337 1563 303 1518 q 439 1607 371 1607 q 513 1591 481 1607 q 572 1555 546 1575 q 622 1519 599 1535 q 667 1503 644 1503 q 697 1525 686 1503 q 710 1579 707 1547 q 757 1610 711 1610 q 795 1600 783 1610 q 807 1571 807 1590 q 771 1440 806 1483 q 667 1396 736 1396 q 593 1412 626 1396 q 533 1449 560 1428 q 483 1485 506 1469 q 439 1501 460 1501 q 410 1484 419 1501 q 397 1431 400 1467 q 383 1403 396 1413 q 347 1394 371 1394 z "},"Ğ":{"ha":1264,"x_min":118,"x_max":1138,"o":"m 650 -26 q 433 24 531 -25 q 265 163 335 74 q 156 372 194 251 q 118 638 118 492 q 135 819 118 733 q 186 980 153 906 q 268 1113 219 1054 q 378 1213 317 1171 q 513 1277 439 1256 q 671 1299 586 1299 q 803 1284 736 1299 q 930 1232 869 1269 q 1039 1126 990 1194 q 1046 1097 1051 1110 q 1024 1069 1040 1085 q 990 1050 1004 1053 q 963 1061 976 1047 q 879 1126 925 1100 q 781 1167 833 1153 q 671 1181 729 1181 q 554 1165 608 1181 q 453 1117 500 1149 q 368 1038 406 1085 q 303 931 331 992 q 263 797 276 871 q 249 638 249 724 q 279 406 249 508 q 365 234 310 304 q 492 128 419 164 q 650 92 565 92 q 778 110 721 92 q 877 163 835 128 q 949 256 919 199 q 994 391 979 313 q 1011 571 1010 469 l 682 571 q 652 583 661 571 q 643 626 643 596 q 652 670 643 658 q 682 682 661 682 l 1099 682 q 1128 670 1119 682 q 1138 626 1138 658 q 1100 326 1138 450 q 996 124 1063 201 q 840 10 929 46 q 650 -26 751 -26 m 650 1357 q 476 1419 543 1357 q 400 1607 410 1481 q 413 1635 399 1624 q 453 1647 426 1647 q 483 1637 475 1647 q 497 1607 492 1626 q 551 1512 515 1543 q 650 1481 588 1481 q 749 1512 713 1481 q 803 1607 786 1543 q 816 1637 808 1626 q 846 1647 824 1647 q 887 1635 872 1647 q 900 1607 901 1624 q 860 1471 894 1526 q 772 1386 826 1415 q 650 1357 718 1357 z "},"Ĝ":{"ha":1264,"x_min":118,"x_max":1138,"o":"m 650 -26 q 433 24 531 -25 q 265 163 335 74 q 156 372 194 251 q 118 638 118 492 q 135 819 118 733 q 186 980 153 906 q 268 1113 219 1054 q 378 1213 317 1171 q 513 1277 439 1256 q 671 1299 586 1299 q 803 1284 736 1299 q 930 1232 869 1269 q 1039 1126 990 1194 q 1046 1097 1051 1110 q 1024 1069 1040 1085 q 990 1050 1004 1053 q 963 1061 976 1047 q 879 1126 925 1100 q 781 1167 833 1153 q 671 1181 729 1181 q 554 1165 608 1181 q 453 1117 500 1149 q 368 1038 406 1085 q 303 931 331 992 q 263 797 276 871 q 249 638 249 724 q 279 406 249 508 q 365 234 310 304 q 492 128 419 164 q 650 92 565 92 q 778 110 721 92 q 877 163 835 128 q 949 256 919 199 q 994 391 979 313 q 1011 571 1010 469 l 682 571 q 652 583 661 571 q 643 626 643 596 q 652 670 643 658 q 682 682 661 682 l 1099 682 q 1128 670 1119 682 q 1138 626 1138 658 q 1100 326 1138 450 q 996 124 1063 201 q 840 10 929 46 q 650 -26 751 -26 m 439 1357 q 408 1374 426 1357 q 390 1404 390 1390 q 391 1414 390 1408 q 399 1426 392 1419 l 589 1619 q 611 1638 599 1629 q 650 1647 624 1647 q 688 1638 676 1647 q 710 1619 700 1629 l 901 1426 q 909 1414 908 1419 q 910 1404 910 1408 q 892 1374 910 1390 q 861 1357 875 1357 q 844 1362 851 1357 q 826 1375 838 1367 l 650 1508 l 474 1375 q 456 1362 464 1367 q 439 1357 449 1357 z "},"Ģ":{"ha":1264,"x_min":118,"x_max":1138,"o":"m 650 -26 q 433 24 531 -25 q 265 163 335 74 q 156 372 194 251 q 118 638 118 492 q 135 819 118 733 q 186 980 153 906 q 268 1113 219 1054 q 378 1213 317 1171 q 513 1277 439 1256 q 671 1299 586 1299 q 803 1284 736 1299 q 930 1232 869 1269 q 1039 1126 990 1194 q 1046 1097 1051 1110 q 1024 1069 1040 1085 q 990 1050 1004 1053 q 963 1061 976 1047 q 879 1126 925 1100 q 781 1167 833 1153 q 671 1181 729 1181 q 554 1165 608 1181 q 453 1117 500 1149 q 368 1038 406 1085 q 303 931 331 992 q 263 797 276 871 q 249 638 249 724 q 279 406 249 508 q 365 234 310 304 q 492 128 419 164 q 650 92 565 92 q 778 110 721 92 q 877 163 835 128 q 949 256 919 199 q 994 391 979 313 q 1011 571 1010 469 l 682 571 q 652 583 661 571 q 643 626 643 596 q 652 670 643 658 q 682 682 661 682 l 1099 682 q 1128 670 1119 682 q 1138 626 1138 658 q 1100 326 1138 450 q 996 124 1063 201 q 840 10 929 46 q 650 -26 751 -26 m 554 -410 q 533 -391 538 -403 q 536 -358 529 -379 q 561 -285 553 -317 q 572 -220 569 -253 q 574 -146 574 -187 q 587 -112 574 -122 q 626 -103 600 -103 q 676 -118 658 -103 q 693 -160 693 -133 q 683 -235 693 -194 q 657 -314 674 -275 q 618 -386 640 -353 q 590 -412 604 -408 q 554 -410 576 -417 z "},"Ġ":{"ha":1264,"x_min":118,"x_max":1138,"o":"m 650 -26 q 433 24 531 -25 q 265 163 335 74 q 156 372 194 251 q 118 638 118 492 q 135 819 118 733 q 186 980 153 906 q 268 1113 219 1054 q 378 1213 317 1171 q 513 1277 439 1256 q 671 1299 586 1299 q 803 1284 736 1299 q 930 1232 869 1269 q 1039 1126 990 1194 q 1046 1097 1051 1110 q 1024 1069 1040 1085 q 990 1050 1004 1053 q 963 1061 976 1047 q 879 1126 925 1100 q 781 1167 833 1153 q 671 1181 729 1181 q 554 1165 608 1181 q 453 1117 500 1149 q 368 1038 406 1085 q 303 931 331 992 q 263 797 276 871 q 249 638 249 724 q 279 406 249 508 q 365 234 310 304 q 492 128 419 164 q 650 92 565 92 q 778 110 721 92 q 877 163 835 128 q 949 256 919 199 q 994 391 979 313 q 1011 571 1010 469 l 682 571 q 652 583 661 571 q 643 626 643 596 q 652 670 643 658 q 682 682 661 682 l 1099 682 q 1128 670 1119 682 q 1138 626 1138 658 q 1100 326 1138 450 q 996 124 1063 201 q 840 10 929 46 q 650 -26 751 -26 m 650 1401 q 592 1423 611 1401 q 572 1488 572 1444 q 592 1554 572 1532 q 650 1576 611 1576 q 707 1554 688 1576 q 726 1488 726 1532 q 708 1423 728 1444 q 650 1401 688 1401 z "},"Ħ":{"ha":1282,"x_min":49,"x_max":1235,"o":"m 244 -19 q 183 19 183 -19 l 183 1261 q 199 1290 183 1281 q 244 1299 214 1299 q 306 1261 306 1299 l 306 725 l 978 725 l 978 1261 q 993 1290 978 1281 q 1039 1299 1008 1299 q 1100 1261 1100 1299 l 1100 19 q 1085 -10 1100 0 q 1039 -19 1069 -19 q 978 19 978 -19 l 978 614 l 306 614 l 306 19 q 290 -10 306 0 q 244 -19 275 -19 m 88 932 q 56 946 63 932 q 50 983 50 960 q 56 1024 50 1010 q 88 1039 63 1039 l 1196 1039 q 1228 1024 1221 1039 q 1235 983 1235 1010 q 1228 946 1235 960 q 1196 932 1221 932 l 88 932 z "},"Ĥ":{"ha":1282,"x_min":183,"x_max":1100,"o":"m 244 -19 q 183 19 183 -19 l 183 1261 q 199 1290 183 1281 q 244 1299 214 1299 q 306 1261 306 1299 l 306 725 l 978 725 l 978 1261 q 993 1290 978 1281 q 1039 1299 1008 1299 q 1100 1261 1100 1299 l 1100 19 q 1085 -10 1100 0 q 1039 -19 1069 -19 q 978 19 978 -19 l 978 614 l 306 614 l 306 19 q 290 -10 306 0 q 244 -19 275 -19 m 431 1357 q 400 1374 418 1357 q 382 1404 382 1390 q 383 1414 382 1408 q 390 1426 383 1419 l 581 1619 q 603 1638 590 1629 q 642 1647 615 1647 q 680 1638 668 1647 q 701 1619 692 1629 l 893 1426 q 901 1414 900 1419 q 901 1404 901 1408 q 884 1374 901 1390 q 853 1357 867 1357 q 836 1362 843 1357 q 818 1375 829 1367 l 642 1508 l 465 1375 q 448 1362 456 1367 q 431 1357 440 1357 z "},"Í":{"ha":488,"x_min":128,"x_max":433,"o":"m 244 -19 q 199 -10 214 -19 q 183 19 183 0 l 183 1261 q 199 1290 183 1281 q 244 1299 214 1299 q 290 1290 275 1299 q 306 1261 306 1281 l 306 19 q 290 -10 306 0 q 244 -19 275 -19 m 181 1357 q 147 1376 165 1357 q 129 1408 129 1394 q 131 1420 129 1415 q 140 1433 132 1425 l 332 1632 q 345 1643 339 1639 q 358 1647 351 1647 q 390 1635 372 1647 q 422 1606 408 1622 q 435 1575 435 1589 q 431 1558 435 1565 q 414 1540 428 1551 l 207 1371 q 192 1361 199 1365 q 181 1357 186 1357 z "},"Ĭ":{"ha":488,"x_min":-7,"x_max":496,"o":"m 244 -19 q 199 -10 214 -19 q 183 19 183 0 l 183 1261 q 199 1290 183 1281 q 244 1299 214 1299 q 290 1290 275 1299 q 306 1261 306 1281 l 306 19 q 290 -10 306 0 q 244 -19 275 -19 m 244 1357 q 71 1419 138 1357 q -6 1607 4 1481 q 7 1635 -7 1624 q 47 1647 21 1647 q 78 1637 69 1647 q 92 1607 86 1626 q 146 1512 110 1543 q 244 1481 182 1481 q 344 1512 307 1481 q 397 1607 381 1543 q 410 1637 403 1626 q 440 1647 418 1647 q 481 1635 467 1647 q 494 1607 496 1624 q 455 1471 489 1526 q 367 1386 421 1415 q 244 1357 313 1357 z "},"Ǐ":{"ha":488,"x_min":-15,"x_max":503,"o":"m 244 -19 q 199 -10 214 -19 q 183 19 183 0 l 183 1261 q 199 1290 183 1281 q 244 1299 214 1299 q 290 1290 275 1299 q 306 1261 306 1281 l 306 19 q 290 -10 306 0 q 244 -19 275 -19 m 456 1647 q 487 1631 469 1647 q 504 1600 504 1615 q 503 1592 504 1597 q 496 1578 503 1586 l 306 1385 q 284 1367 296 1376 q 244 1357 272 1357 q 206 1367 218 1357 q 186 1385 194 1376 l -7 1578 q -15 1592 -14 1586 q -15 1600 -15 1597 q 3 1631 -15 1615 q 33 1647 21 1647 q 51 1642 43 1647 q 68 1631 58 1638 l 244 1496 l 421 1631 q 439 1642 432 1638 q 456 1647 446 1647 z "},"Î":{"ha":488,"x_min":-15,"x_max":503,"o":"m 244 -19 q 199 -10 214 -19 q 183 19 183 0 l 183 1261 q 199 1290 183 1281 q 244 1299 214 1299 q 290 1290 275 1299 q 306 1261 306 1281 l 306 19 q 290 -10 306 0 q 244 -19 275 -19 m 33 1357 q 3 1374 21 1357 q -15 1404 -15 1390 q -15 1414 -15 1408 q -7 1426 -14 1419 l 183 1619 q 206 1638 193 1629 q 244 1647 218 1647 q 283 1638 271 1647 q 304 1619 294 1629 l 496 1426 q 503 1414 503 1419 q 504 1404 504 1408 q 487 1374 504 1390 q 456 1357 469 1357 q 439 1362 446 1357 q 421 1375 432 1367 l 244 1508 l 68 1375 q 51 1362 58 1367 q 33 1357 43 1357 z "},"Ï":{"ha":488,"x_min":-1,"x_max":490,"o":"m 244 -19 q 199 -10 214 -19 q 183 19 183 0 l 183 1261 q 199 1290 183 1281 q 244 1299 214 1299 q 290 1290 275 1299 q 306 1261 306 1281 l 306 19 q 290 -10 306 0 q 244 -19 275 -19 m 78 1403 q 19 1424 39 1403 q 0 1489 0 1446 q 19 1556 0 1533 q 78 1578 39 1578 q 135 1556 117 1578 q 154 1489 154 1533 q 137 1424 157 1446 q 78 1403 117 1403 m 413 1403 q 354 1424 374 1403 q 335 1489 335 1446 q 354 1556 335 1533 q 413 1578 374 1578 q 469 1556 450 1578 q 489 1489 489 1533 q 470 1424 490 1446 q 413 1403 450 1403 z "},"İ":{"ha":488,"x_min":167,"x_max":322,"o":"m 244 -19 q 199 -10 214 -19 q 183 19 183 0 l 183 1261 q 199 1290 183 1281 q 244 1299 214 1299 q 290 1290 275 1299 q 306 1261 306 1281 l 306 19 q 290 -10 306 0 q 244 -19 275 -19 m 244 1401 q 186 1423 206 1401 q 167 1488 167 1444 q 186 1554 167 1532 q 244 1576 206 1576 q 301 1554 282 1576 q 321 1488 321 1532 q 302 1423 322 1444 q 244 1401 282 1401 z "},"Ì":{"ha":488,"x_min":54,"x_max":361,"o":"m 244 -19 q 199 -10 214 -19 q 183 19 183 0 l 183 1261 q 199 1290 183 1281 q 244 1299 214 1299 q 290 1290 275 1299 q 306 1261 306 1281 l 306 19 q 290 -10 306 0 q 244 -19 275 -19 m 308 1357 q 297 1361 303 1357 q 282 1371 290 1365 l 75 1540 q 58 1558 63 1551 q 54 1575 54 1565 q 67 1606 54 1589 q 99 1635 81 1622 q 131 1647 117 1647 q 145 1643 139 1647 q 157 1632 151 1639 l 349 1433 q 360 1420 358 1425 q 361 1410 361 1415 q 342 1376 361 1394 q 308 1357 324 1357 z "},"Ī":{"ha":488,"x_min":18,"x_max":469,"o":"m 244 -19 q 199 -10 214 -19 q 183 19 183 0 l 183 1261 q 199 1290 183 1281 q 244 1299 214 1299 q 290 1290 275 1299 q 306 1261 306 1281 l 306 19 q 290 -10 306 0 q 244 -19 275 -19 m 57 1443 q 26 1459 33 1443 q 19 1500 19 1475 q 26 1544 19 1526 q 57 1561 33 1561 l 433 1561 q 465 1544 458 1561 q 471 1500 471 1526 q 465 1459 471 1475 q 433 1443 458 1443 l 57 1443 z "},"Į":{"ha":488,"x_min":18,"x_max":329,"o":"m 244 -19 q 199 -10 214 -19 q 183 19 183 0 l 183 1261 q 199 1290 183 1281 q 244 1299 214 1299 q 290 1290 275 1299 q 306 1261 306 1281 l 306 19 q 290 -10 306 0 q 244 -19 275 -19 m 153 -368 q 59 -337 99 -368 q 19 -246 19 -307 q 32 -176 19 -208 q 69 -112 44 -143 q 128 -49 93 -82 q 211 19 164 -17 l 297 21 l 297 8 q 235 -45 265 -18 q 181 -99 206 -72 q 142 -152 157 -125 q 126 -206 126 -179 q 140 -249 126 -236 q 176 -262 154 -262 q 214 -254 197 -262 q 257 -225 231 -246 q 281 -217 267 -218 q 308 -229 294 -217 q 326 -261 322 -243 q 322 -290 329 -279 q 276 -332 306 -314 q 213 -359 246 -350 q 153 -368 181 -368 z "},"Ĩ":{"ha":488,"x_min":-12,"x_max":493,"o":"m 244 -19 q 199 -10 214 -19 q 183 19 183 0 l 183 1261 q 199 1290 183 1281 q 244 1299 214 1299 q 290 1290 275 1299 q 306 1261 306 1281 l 306 19 q 290 -10 306 0 q 244 -19 275 -19 m 35 1394 q -12 1431 -12 1394 q 24 1563 -10 1518 q 126 1607 58 1607 q 201 1591 168 1607 q 260 1555 233 1575 q 309 1519 286 1535 q 354 1503 332 1503 q 384 1525 374 1503 q 397 1579 394 1547 q 444 1610 399 1610 q 483 1600 471 1610 q 494 1571 494 1590 q 458 1440 493 1483 q 354 1396 424 1396 q 281 1412 314 1396 q 220 1449 247 1428 q 170 1485 193 1469 q 126 1501 147 1501 q 97 1484 107 1501 q 85 1431 88 1467 q 71 1403 83 1413 q 35 1394 58 1394 z "},"Ị":{"ha":488,"x_min":167,"x_max":322,"o":"m 244 -19 q 199 -10 214 -19 q 183 19 183 0 l 183 1261 q 199 1290 183 1281 q 244 1299 214 1299 q 290 1290 275 1299 q 306 1261 306 1281 l 306 19 q 290 -10 306 0 q 244 -19 275 -19 m 244 -326 q 186 -305 206 -326 q 167 -239 167 -283 q 186 -173 167 -194 q 244 -151 206 -151 q 301 -173 282 -151 q 321 -239 321 -194 q 302 -305 322 -283 q 244 -326 282 -326 z "},"Ỉ":{"ha":488,"x_min":86,"x_max":410,"o":"m 244 -19 q 199 -10 214 -19 q 183 19 183 0 l 183 1261 q 199 1290 183 1281 q 244 1299 214 1299 q 290 1290 275 1299 q 306 1261 306 1281 l 306 19 q 290 -10 306 0 q 244 -19 275 -19 m 258 1686 q 368 1653 326 1686 q 410 1565 410 1621 q 394 1503 410 1531 q 339 1447 378 1476 q 315 1422 321 1433 q 311 1397 308 1411 l 313 1388 q 305 1361 317 1372 q 275 1346 293 1350 q 241 1346 257 1342 q 218 1364 225 1350 l 203 1401 q 203 1460 192 1433 q 244 1510 214 1488 q 272 1535 264 1524 q 279 1557 279 1546 q 267 1576 279 1568 q 236 1585 256 1585 q 197 1579 218 1585 q 163 1564 175 1574 q 104 1586 129 1543 q 113 1640 88 1618 q 181 1674 142 1661 q 258 1686 219 1686 z "},"Ĵ":{"ha":939,"x_min":49,"x_max":982,"o":"m 417 -26 q 257 3 329 -26 q 133 92 185 33 q 54 235 82 150 q 60 267 49 256 q 93 283 72 278 q 131 290 114 292 q 154 268 147 289 q 210 170 179 210 q 290 111 240 131 q 417 92 339 92 q 494 103 458 92 q 561 137 531 114 q 614 196 592 160 q 649 282 636 232 q 661 397 661 332 l 661 1261 q 676 1290 661 1281 q 722 1299 692 1299 q 768 1290 753 1299 q 783 1261 783 1281 l 783 397 q 765 247 783 314 q 715 129 747 181 q 637 43 682 78 q 536 -9 592 8 q 417 -26 481 -26 m 511 1357 q 481 1374 499 1357 q 463 1404 463 1390 q 463 1414 463 1408 q 471 1426 464 1419 l 661 1619 q 683 1638 671 1629 q 722 1647 696 1647 q 760 1638 749 1647 q 782 1619 772 1629 l 974 1426 q 981 1414 981 1419 q 982 1404 982 1408 q 965 1374 982 1390 q 933 1357 947 1357 q 917 1362 924 1357 q 899 1375 910 1367 l 722 1508 l 546 1375 q 528 1362 536 1367 q 511 1357 521 1357 z "},"Ķ":{"ha":993,"x_min":183,"x_max":976,"o":"m 244 -19 q 199 -10 214 -19 q 183 19 183 0 l 183 1261 q 244 1299 183 1299 q 306 1261 306 1299 l 306 738 l 869 1286 q 902 1299 886 1304 q 936 1275 918 1294 q 956 1238 956 1253 q 944 1210 957 1224 l 396 672 q 588 437 496 544 q 771 240 681 329 q 953 75 861 150 q 972 42 968 64 q 950 -6 976 21 q 913 -23 932 -22 q 872 -7 893 -24 q 717 131 794 57 q 568 286 640 206 q 430 449 496 367 q 306 614 364 532 l 306 19 q 290 -10 306 0 q 244 -19 275 -19 m 472 -410 q 451 -391 456 -403 q 454 -358 447 -379 q 479 -285 471 -317 q 490 -220 488 -253 q 492 -146 492 -187 q 505 -112 492 -122 q 544 -103 518 -103 q 594 -118 576 -103 q 611 -160 611 -133 q 601 -235 611 -194 q 575 -314 592 -275 q 536 -386 558 -353 q 508 -412 522 -408 q 472 -410 494 -417 z "},"Ĺ":{"ha":903,"x_min":128,"x_max":867,"o":"m 244 0 q 183 56 183 0 l 183 1261 q 199 1290 183 1281 q 244 1299 214 1299 q 290 1290 275 1299 q 306 1261 306 1281 l 306 111 l 829 111 q 858 99 850 111 q 867 56 867 88 q 858 13 867 25 q 829 0 850 0 l 244 0 m 181 1357 q 147 1376 165 1357 q 129 1408 129 1394 q 131 1420 129 1415 q 140 1433 132 1425 l 332 1632 q 345 1643 339 1639 q 358 1647 351 1647 q 390 1635 372 1647 q 422 1606 408 1622 q 435 1575 435 1589 q 431 1558 435 1565 q 414 1540 428 1551 l 207 1371 q 192 1361 199 1365 q 181 1357 186 1357 z "},"Ľ":{"ha":903,"x_min":183,"x_max":867,"o":"m 244 0 q 183 56 183 0 l 183 1261 q 199 1290 183 1281 q 244 1299 214 1299 q 290 1290 275 1299 q 306 1261 306 1281 l 306 111 l 829 111 q 858 99 850 111 q 867 56 867 88 q 858 13 867 25 q 829 0 850 0 l 244 0 m 465 964 q 433 982 442 972 q 431 1010 425 992 q 448 1088 440 1040 q 461 1184 456 1135 q 468 1268 467 1233 q 481 1293 468 1283 q 528 1303 494 1303 q 578 1293 563 1303 q 593 1268 593 1283 q 581 1177 592 1231 q 553 1070 569 1124 q 519 978 538 1017 q 505 961 514 968 q 465 964 496 954 z "},"Ļ":{"ha":903,"x_min":183,"x_max":867,"o":"m 244 0 q 183 56 183 0 l 183 1261 q 199 1290 183 1281 q 244 1299 214 1299 q 290 1290 275 1299 q 306 1261 306 1281 l 306 111 l 829 111 q 858 99 850 111 q 867 56 867 88 q 858 13 867 25 q 829 0 850 0 l 244 0 m 464 -410 q 443 -391 447 -403 q 446 -358 439 -379 q 471 -285 463 -317 q 481 -220 479 -253 q 483 -146 483 -187 q 497 -112 483 -122 q 536 -103 510 -103 q 585 -118 568 -103 q 603 -160 603 -133 q 593 -235 603 -194 q 567 -314 583 -275 q 528 -386 550 -353 q 500 -412 514 -408 q 464 -410 486 -417 z "},"Ŀ":{"ha":903,"x_min":183,"x_max":867,"o":"m 244 0 q 183 56 183 0 l 183 1261 q 199 1290 183 1281 q 244 1299 214 1299 q 290 1290 275 1299 q 306 1261 306 1281 l 306 111 l 829 111 q 858 99 850 111 q 867 56 867 88 q 858 13 867 25 q 829 0 850 0 l 244 0 m 671 568 q 613 590 632 568 q 593 656 593 611 q 613 722 593 700 q 671 743 632 743 q 728 722 708 743 q 747 656 747 700 q 728 590 749 611 q 671 568 708 568 z "},"Ł":{"ha":903,"x_min":25,"x_max":867,"o":"m 244 0 q 183 56 183 0 l 183 1261 q 199 1290 183 1281 q 244 1299 214 1299 q 290 1290 275 1299 q 306 1261 306 1281 l 306 111 l 829 111 q 858 99 850 111 q 867 56 867 88 q 858 13 867 25 q 829 0 850 0 l 244 0 m 97 519 q 63 514 79 510 q 33 540 47 518 q 25 576 25 557 q 44 604 25 594 l 490 844 q 522 851 510 856 q 547 832 535 847 q 546 765 578 782 l 97 519 z "},"Ń":{"ha":1282,"x_min":183,"x_max":1100,"o":"m 244 -19 q 183 19 183 -19 l 183 1261 q 199 1290 183 1281 q 244 1299 214 1299 q 285 1290 269 1299 q 314 1261 300 1281 l 978 239 l 978 1261 q 993 1290 978 1281 q 1039 1299 1008 1299 q 1100 1261 1100 1299 l 1100 19 q 1085 -10 1100 0 q 1040 -19 1069 -19 q 1006 -12 1018 -19 q 978 19 993 -6 l 306 1056 l 306 19 q 290 -10 306 0 q 244 -19 275 -19 m 578 1357 q 544 1376 563 1357 q 526 1408 526 1394 q 528 1420 526 1415 q 538 1433 529 1425 l 729 1632 q 742 1643 736 1639 q 756 1647 749 1647 q 788 1635 769 1647 q 819 1606 806 1622 q 832 1575 832 1589 q 828 1558 832 1565 q 811 1540 825 1551 l 604 1371 q 590 1361 596 1365 q 578 1357 583 1357 z "},"Ň":{"ha":1282,"x_min":183,"x_max":1100,"o":"m 244 -19 q 183 19 183 -19 l 183 1261 q 199 1290 183 1281 q 244 1299 214 1299 q 285 1290 269 1299 q 314 1261 300 1281 l 978 239 l 978 1261 q 993 1290 978 1281 q 1039 1299 1008 1299 q 1100 1261 1100 1299 l 1100 19 q 1085 -10 1100 0 q 1040 -19 1069 -19 q 1006 -12 1018 -19 q 978 19 993 -6 l 306 1056 l 306 19 q 290 -10 306 0 q 244 -19 275 -19 m 853 1647 q 884 1631 867 1647 q 901 1600 901 1615 q 901 1592 901 1597 q 893 1578 900 1586 l 703 1385 q 681 1367 693 1376 q 642 1357 669 1357 q 603 1367 615 1357 q 583 1385 592 1376 l 390 1578 q 383 1592 383 1586 q 382 1600 382 1597 q 400 1631 382 1615 q 431 1647 418 1647 q 448 1642 440 1647 q 465 1631 456 1638 l 642 1496 l 818 1631 q 836 1642 829 1638 q 853 1647 843 1647 z "},"Ņ":{"ha":1282,"x_min":183,"x_max":1100,"o":"m 244 -19 q 183 19 183 -19 l 183 1261 q 199 1290 183 1281 q 244 1299 214 1299 q 285 1290 269 1299 q 314 1261 300 1281 l 978 239 l 978 1261 q 993 1290 978 1281 q 1039 1299 1008 1299 q 1100 1261 1100 1299 l 1100 19 q 1085 -10 1100 0 q 1040 -19 1069 -19 q 1006 -12 1018 -19 q 978 19 993 -6 l 306 1056 l 306 19 q 290 -10 306 0 q 244 -19 275 -19 m 564 -410 q 543 -391 547 -403 q 546 -358 539 -379 q 571 -285 563 -317 q 581 -220 579 -253 q 583 -146 583 -187 q 597 -112 583 -122 q 636 -103 610 -103 q 685 -118 668 -103 q 703 -160 703 -133 q 693 -235 703 -194 q 667 -314 683 -275 q 628 -386 650 -353 q 600 -412 614 -408 q 564 -410 586 -417 z "},"Ñ":{"ha":1282,"x_min":183,"x_max":1100,"o":"m 244 -19 q 183 19 183 -19 l 183 1261 q 199 1290 183 1281 q 244 1299 214 1299 q 285 1290 269 1299 q 314 1261 300 1281 l 978 239 l 978 1261 q 993 1290 978 1281 q 1039 1299 1008 1299 q 1100 1261 1100 1299 l 1100 19 q 1085 -10 1100 0 q 1040 -19 1069 -19 q 1006 -12 1018 -19 q 978 19 993 -6 l 306 1056 l 306 19 q 290 -10 306 0 q 244 -19 275 -19 m 432 1394 q 385 1431 385 1394 q 422 1563 388 1518 q 524 1607 456 1607 q 598 1591 565 1607 q 657 1555 631 1575 q 706 1519 683 1535 q 751 1503 729 1503 q 781 1525 771 1503 q 794 1579 792 1547 q 842 1610 796 1610 q 880 1600 868 1610 q 892 1571 892 1590 q 856 1440 890 1483 q 751 1396 821 1396 q 678 1412 711 1396 q 617 1449 644 1428 q 567 1485 590 1469 q 524 1501 544 1501 q 494 1484 504 1501 q 482 1431 485 1467 q 468 1403 481 1413 q 432 1394 456 1394 z "},"Ó":{"ha":1336,"x_min":118,"x_max":1218,"o":"m 669 -26 q 442 23 543 -26 q 268 161 340 72 q 157 371 196 250 q 118 638 118 492 q 135 819 118 733 q 186 980 153 906 q 267 1113 219 1054 q 377 1213 315 1171 q 513 1277 439 1256 q 669 1299 586 1299 q 897 1250 796 1299 q 1069 1113 997 1201 q 1179 903 1140 1024 q 1218 638 1218 782 q 1201 454 1218 540 q 1150 294 1183 368 q 1069 160 1117 219 q 960 60 1021 101 q 826 -4 899 18 q 669 -26 753 -26 m 669 92 q 785 108 732 92 q 886 156 839 125 q 970 234 933 188 q 1033 342 1007 281 q 1074 476 1060 403 q 1088 638 1088 550 q 1057 867 1088 765 q 970 1038 1026 968 q 838 1144 914 1108 q 669 1181 761 1181 q 553 1164 608 1181 q 451 1116 499 1147 q 367 1038 404 1085 q 303 931 331 992 q 263 797 276 869 q 249 638 249 724 q 280 407 249 508 q 367 235 311 306 q 501 128 424 164 q 669 92 578 92 m 604 1357 q 571 1376 589 1357 q 553 1408 553 1394 q 554 1420 553 1415 q 564 1433 556 1425 l 756 1632 q 769 1643 763 1639 q 782 1647 775 1647 q 814 1635 796 1647 q 845 1606 832 1622 q 858 1575 858 1589 q 855 1558 858 1565 q 838 1540 851 1551 l 631 1371 q 616 1361 622 1365 q 604 1357 610 1357 z "},"Ŏ":{"ha":1336,"x_min":118,"x_max":1218,"o":"m 669 -26 q 442 23 543 -26 q 268 161 340 72 q 157 371 196 250 q 118 638 118 492 q 135 819 118 733 q 186 980 153 906 q 267 1113 219 1054 q 377 1213 315 1171 q 513 1277 439 1256 q 669 1299 586 1299 q 897 1250 796 1299 q 1069 1113 997 1201 q 1179 903 1140 1024 q 1218 638 1218 782 q 1201 454 1218 540 q 1150 294 1183 368 q 1069 160 1117 219 q 960 60 1021 101 q 826 -4 899 18 q 669 -26 753 -26 m 669 92 q 785 108 732 92 q 886 156 839 125 q 970 234 933 188 q 1033 342 1007 281 q 1074 476 1060 403 q 1088 638 1088 550 q 1057 867 1088 765 q 970 1038 1026 968 q 838 1144 914 1108 q 669 1181 761 1181 q 553 1164 608 1181 q 451 1116 499 1147 q 367 1038 404 1085 q 303 931 331 992 q 263 797 276 869 q 249 638 249 724 q 280 407 249 508 q 367 235 311 306 q 501 128 424 164 q 669 92 578 92 m 668 1357 q 494 1419 561 1357 q 418 1607 428 1481 q 431 1635 417 1624 q 471 1647 444 1647 q 501 1637 493 1647 q 515 1607 510 1626 q 569 1512 533 1543 q 668 1481 606 1481 q 767 1512 731 1481 q 821 1607 804 1543 q 834 1637 826 1626 q 864 1647 842 1647 q 905 1635 890 1647 q 918 1607 919 1624 q 878 1471 913 1526 q 790 1386 844 1415 q 668 1357 736 1357 z "},"Ǒ":{"ha":1336,"x_min":118,"x_max":1218,"o":"m 669 -26 q 442 23 543 -26 q 268 161 340 72 q 157 371 196 250 q 118 638 118 492 q 135 819 118 733 q 186 980 153 906 q 267 1113 219 1054 q 377 1213 315 1171 q 513 1277 439 1256 q 669 1299 586 1299 q 897 1250 796 1299 q 1069 1113 997 1201 q 1179 903 1140 1024 q 1218 638 1218 782 q 1201 454 1218 540 q 1150 294 1183 368 q 1069 160 1117 219 q 960 60 1021 101 q 826 -4 899 18 q 669 -26 753 -26 m 669 92 q 785 108 732 92 q 886 156 839 125 q 970 234 933 188 q 1033 342 1007 281 q 1074 476 1060 403 q 1088 638 1088 550 q 1057 867 1088 765 q 970 1038 1026 968 q 838 1144 914 1108 q 669 1181 761 1181 q 553 1164 608 1181 q 451 1116 499 1147 q 367 1038 404 1085 q 303 931 331 992 q 263 797 276 869 q 249 638 249 724 q 280 407 249 508 q 367 235 311 306 q 501 128 424 164 q 669 92 578 92 m 879 1647 q 910 1631 893 1647 q 928 1600 928 1615 q 927 1592 928 1597 q 919 1578 926 1586 l 729 1385 q 708 1367 719 1376 q 668 1357 696 1357 q 630 1367 642 1357 q 610 1385 618 1376 l 417 1578 q 409 1592 410 1586 q 408 1600 408 1597 q 426 1631 408 1615 q 457 1647 444 1647 q 474 1642 467 1647 q 492 1631 482 1638 l 668 1496 l 844 1631 q 863 1642 856 1638 q 879 1647 869 1647 z "},"Ô":{"ha":1336,"x_min":118,"x_max":1218,"o":"m 669 -26 q 442 23 543 -26 q 268 161 340 72 q 157 371 196 250 q 118 638 118 492 q 135 819 118 733 q 186 980 153 906 q 267 1113 219 1054 q 377 1213 315 1171 q 513 1277 439 1256 q 669 1299 586 1299 q 897 1250 796 1299 q 1069 1113 997 1201 q 1179 903 1140 1024 q 1218 638 1218 782 q 1201 454 1218 540 q 1150 294 1183 368 q 1069 160 1117 219 q 960 60 1021 101 q 826 -4 899 18 q 669 -26 753 -26 m 669 92 q 785 108 732 92 q 886 156 839 125 q 970 234 933 188 q 1033 342 1007 281 q 1074 476 1060 403 q 1088 638 1088 550 q 1057 867 1088 765 q 970 1038 1026 968 q 838 1144 914 1108 q 669 1181 761 1181 q 553 1164 608 1181 q 451 1116 499 1147 q 367 1038 404 1085 q 303 931 331 992 q 263 797 276 869 q 249 638 249 724 q 280 407 249 508 q 367 235 311 306 q 501 128 424 164 q 669 92 578 92 m 457 1357 q 426 1374 444 1357 q 408 1404 408 1390 q 409 1414 408 1408 q 417 1426 410 1419 l 607 1619 q 629 1638 617 1629 q 668 1647 642 1647 q 706 1638 694 1647 q 728 1619 718 1629 l 919 1426 q 927 1414 926 1419 q 928 1404 928 1408 q 910 1374 928 1390 q 879 1357 893 1357 q 863 1362 869 1357 q 844 1375 856 1367 l 668 1508 l 492 1375 q 474 1362 482 1367 q 457 1357 467 1357 z "},"Ö":{"ha":1336,"x_min":118,"x_max":1218,"o":"m 669 -26 q 442 23 543 -26 q 268 161 340 72 q 157 371 196 250 q 118 638 118 492 q 135 819 118 733 q 186 980 153 906 q 267 1113 219 1054 q 377 1213 315 1171 q 513 1277 439 1256 q 669 1299 586 1299 q 897 1250 796 1299 q 1069 1113 997 1201 q 1179 903 1140 1024 q 1218 638 1218 782 q 1201 454 1218 540 q 1150 294 1183 368 q 1069 160 1117 219 q 960 60 1021 101 q 826 -4 899 18 q 669 -26 753 -26 m 669 92 q 785 108 732 92 q 886 156 839 125 q 970 234 933 188 q 1033 342 1007 281 q 1074 476 1060 403 q 1088 638 1088 550 q 1057 867 1088 765 q 970 1038 1026 968 q 838 1144 914 1108 q 669 1181 761 1181 q 553 1164 608 1181 q 451 1116 499 1147 q 367 1038 404 1085 q 303 931 331 992 q 263 797 276 869 q 249 638 249 724 q 280 407 249 508 q 367 235 311 306 q 501 128 424 164 q 669 92 578 92 m 501 1403 q 443 1424 463 1403 q 424 1489 424 1446 q 443 1556 424 1533 q 501 1578 463 1578 q 559 1556 540 1578 q 578 1489 578 1533 q 560 1424 581 1446 q 501 1403 540 1403 m 836 1403 q 778 1424 797 1403 q 758 1489 758 1446 q 778 1556 758 1533 q 836 1578 797 1578 q 893 1556 874 1578 q 913 1489 913 1533 q 894 1424 914 1446 q 836 1403 874 1403 z "},"Ò":{"ha":1336,"x_min":118,"x_max":1218,"o":"m 669 -26 q 442 23 543 -26 q 268 161 340 72 q 157 371 196 250 q 118 638 118 492 q 135 819 118 733 q 186 980 153 906 q 267 1113 219 1054 q 377 1213 315 1171 q 513 1277 439 1256 q 669 1299 586 1299 q 897 1250 796 1299 q 1069 1113 997 1201 q 1179 903 1140 1024 q 1218 638 1218 782 q 1201 454 1218 540 q 1150 294 1183 368 q 1069 160 1117 219 q 960 60 1021 101 q 826 -4 899 18 q 669 -26 753 -26 m 669 92 q 785 108 732 92 q 886 156 839 125 q 970 234 933 188 q 1033 342 1007 281 q 1074 476 1060 403 q 1088 638 1088 550 q 1057 867 1088 765 q 970 1038 1026 968 q 838 1144 914 1108 q 669 1181 761 1181 q 553 1164 608 1181 q 451 1116 499 1147 q 367 1038 404 1085 q 303 931 331 992 q 263 797 276 869 q 249 638 249 724 q 280 407 249 508 q 367 235 311 306 q 501 128 424 164 q 669 92 578 92 m 732 1357 q 720 1361 726 1357 q 706 1371 714 1365 l 499 1540 q 482 1558 486 1551 q 478 1575 478 1565 q 491 1606 478 1589 q 522 1635 504 1622 q 554 1647 540 1647 q 569 1643 563 1647 q 581 1632 575 1639 l 772 1433 q 783 1420 782 1425 q 785 1410 785 1415 q 766 1376 785 1394 q 732 1357 747 1357 z "},"Ő":{"ha":1336,"x_min":118,"x_max":1218,"o":"m 669 -26 q 442 23 543 -26 q 268 161 340 72 q 157 371 196 250 q 118 638 118 492 q 135 819 118 733 q 186 980 153 906 q 267 1113 219 1054 q 377 1213 315 1171 q 513 1277 439 1256 q 669 1299 586 1299 q 897 1250 796 1299 q 1069 1113 997 1201 q 1179 903 1140 1024 q 1218 638 1218 782 q 1201 454 1218 540 q 1150 294 1183 368 q 1069 160 1117 219 q 960 60 1021 101 q 826 -4 899 18 q 669 -26 753 -26 m 669 92 q 785 108 732 92 q 886 156 839 125 q 970 234 933 188 q 1033 342 1007 281 q 1074 476 1060 403 q 1088 638 1088 550 q 1057 867 1088 765 q 970 1038 1026 968 q 838 1144 914 1108 q 669 1181 761 1181 q 553 1164 608 1181 q 451 1116 499 1147 q 367 1038 404 1085 q 303 931 331 992 q 263 797 276 869 q 249 638 249 724 q 280 407 249 508 q 367 235 311 306 q 501 128 424 164 q 669 92 578 92 m 529 1357 q 497 1376 515 1357 q 478 1410 478 1394 q 479 1419 478 1415 q 489 1433 481 1424 l 664 1632 q 678 1643 671 1639 q 693 1647 686 1647 q 724 1635 708 1647 q 751 1608 740 1624 q 763 1578 763 1592 q 759 1560 763 1568 q 742 1542 756 1553 l 556 1371 q 541 1361 547 1365 q 529 1357 535 1357 m 790 1357 q 758 1376 776 1357 q 739 1410 739 1394 q 740 1420 739 1415 q 751 1433 742 1425 l 932 1632 q 947 1643 939 1639 q 963 1647 954 1647 q 994 1635 978 1647 q 1021 1608 1010 1624 q 1032 1578 1032 1592 q 1028 1560 1032 1568 q 1011 1542 1024 1553 l 817 1371 q 803 1361 810 1365 q 790 1357 796 1357 z "},"Ō":{"ha":1336,"x_min":118,"x_max":1218,"o":"m 669 -26 q 442 23 543 -26 q 268 161 340 72 q 157 371 196 250 q 118 638 118 492 q 135 819 118 733 q 186 980 153 906 q 267 1113 219 1054 q 377 1213 315 1171 q 513 1277 439 1256 q 669 1299 586 1299 q 897 1250 796 1299 q 1069 1113 997 1201 q 1179 903 1140 1024 q 1218 638 1218 782 q 1201 454 1218 540 q 1150 294 1183 368 q 1069 160 1117 219 q 960 60 1021 101 q 826 -4 899 18 q 669 -26 753 -26 m 669 92 q 785 108 732 92 q 886 156 839 125 q 970 234 933 188 q 1033 342 1007 281 q 1074 476 1060 403 q 1088 638 1088 550 q 1057 867 1088 765 q 970 1038 1026 968 q 838 1144 914 1108 q 669 1181 761 1181 q 553 1164 608 1181 q 451 1116 499 1147 q 367 1038 404 1085 q 303 931 331 992 q 263 797 276 869 q 249 638 249 724 q 280 407 249 508 q 367 235 311 306 q 501 128 424 164 q 669 92 578 92 m 481 1443 q 450 1459 457 1443 q 443 1500 443 1475 q 450 1544 443 1526 q 481 1561 457 1561 l 857 1561 q 888 1544 882 1561 q 894 1500 894 1526 q 888 1459 894 1475 q 857 1443 882 1443 l 481 1443 z "},"Ø":{"ha":1336,"x_min":118,"x_max":1218,"o":"m 669 -26 q 442 23 543 -26 q 268 161 340 72 q 157 371 196 250 q 118 638 118 492 q 135 819 118 733 q 186 980 153 906 q 267 1113 219 1054 q 377 1213 315 1171 q 513 1277 439 1256 q 669 1299 586 1299 q 897 1250 796 1299 q 1069 1113 997 1201 q 1179 903 1140 1024 q 1218 638 1218 782 q 1201 454 1218 540 q 1150 294 1183 368 q 1069 160 1117 219 q 960 60 1021 101 q 826 -4 899 18 q 669 -26 753 -26 m 669 92 q 785 108 732 92 q 886 156 839 125 q 970 234 933 188 q 1033 342 1007 281 q 1074 476 1060 403 q 1088 638 1088 550 q 1057 867 1088 765 q 970 1038 1026 968 q 838 1144 914 1108 q 669 1181 761 1181 q 553 1164 608 1181 q 451 1116 499 1147 q 367 1038 404 1085 q 303 931 331 992 q 263 797 276 869 q 249 638 249 724 q 280 407 249 508 q 367 235 311 306 q 501 128 424 164 q 669 92 578 92 m 319 -96 q 291 -119 310 -111 q 243 -111 272 -128 q 217 -43 193 -85 l 1024 1350 q 1054 1372 1035 1367 q 1100 1364 1074 1376 q 1128 1335 1121 1354 q 1124 1294 1135 1315 l 319 -96 z "},"Õ":{"ha":1336,"x_min":118,"x_max":1218,"o":"m 669 -26 q 442 23 543 -26 q 268 161 340 72 q 157 371 196 250 q 118 638 118 492 q 135 819 118 733 q 186 980 153 906 q 267 1113 219 1054 q 377 1213 315 1171 q 513 1277 439 1256 q 669 1299 586 1299 q 897 1250 796 1299 q 1069 1113 997 1201 q 1179 903 1140 1024 q 1218 638 1218 782 q 1201 454 1218 540 q 1150 294 1183 368 q 1069 160 1117 219 q 960 60 1021 101 q 826 -4 899 18 q 669 -26 753 -26 m 669 92 q 785 108 732 92 q 886 156 839 125 q 970 234 933 188 q 1033 342 1007 281 q 1074 476 1060 403 q 1088 638 1088 550 q 1057 867 1088 765 q 970 1038 1026 968 q 838 1144 914 1108 q 669 1181 761 1181 q 553 1164 608 1181 q 451 1116 499 1147 q 367 1038 404 1085 q 303 931 331 992 q 263 797 276 869 q 249 638 249 724 q 280 407 249 508 q 367 235 311 306 q 501 128 424 164 q 669 92 578 92 m 458 1394 q 411 1431 411 1394 q 448 1563 414 1518 q 550 1607 482 1607 q 624 1591 592 1607 q 683 1555 657 1575 q 733 1519 710 1535 q 778 1503 756 1503 q 808 1525 797 1503 q 821 1579 818 1547 q 868 1610 822 1610 q 906 1600 894 1610 q 918 1571 918 1590 q 882 1440 917 1483 q 778 1396 847 1396 q 704 1412 738 1396 q 644 1449 671 1428 q 594 1485 617 1469 q 550 1501 571 1501 q 521 1484 531 1501 q 508 1431 511 1467 q 494 1403 507 1413 q 458 1394 482 1394 z "},"Ố":{"ha":1336,"x_min":118,"x_max":1218,"o":"m 669 -26 q 442 23 543 -26 q 268 161 340 72 q 157 371 196 250 q 118 638 118 492 q 135 819 118 733 q 186 980 153 906 q 267 1113 219 1054 q 377 1213 315 1171 q 513 1277 439 1256 q 669 1299 586 1299 q 897 1250 796 1299 q 1069 1113 997 1201 q 1179 903 1140 1024 q 1218 638 1218 782 q 1201 454 1218 540 q 1150 294 1183 368 q 1069 160 1117 219 q 960 60 1021 101 q 826 -4 899 18 q 669 -26 753 -26 m 669 92 q 785 108 732 92 q 886 156 839 125 q 970 234 933 188 q 1033 342 1007 281 q 1074 476 1060 403 q 1088 638 1088 550 q 1057 867 1088 765 q 970 1038 1026 968 q 838 1144 914 1108 q 669 1181 761 1181 q 553 1164 608 1181 q 451 1116 499 1147 q 367 1038 404 1085 q 303 931 331 992 q 263 797 276 869 q 249 638 249 724 q 280 407 249 508 q 367 235 311 306 q 501 128 424 164 q 669 92 578 92 m 457 1357 q 426 1374 444 1357 q 408 1404 408 1390 q 409 1414 408 1408 q 417 1426 410 1419 l 607 1619 q 629 1638 617 1629 q 668 1647 642 1647 q 706 1638 694 1647 q 728 1619 718 1629 l 919 1426 q 927 1414 926 1419 q 928 1404 928 1408 q 910 1374 928 1390 q 879 1357 893 1357 q 863 1362 869 1357 q 844 1375 856 1367 l 668 1508 l 492 1375 q 474 1362 482 1367 q 457 1357 467 1357 m 885 1578 q 852 1597 871 1578 q 833 1629 833 1615 q 835 1640 833 1636 q 846 1654 838 1644 l 1031 1842 q 1043 1854 1038 1850 q 1056 1858 1049 1858 q 1088 1846 1069 1858 q 1119 1816 1106 1833 q 1132 1785 1132 1799 q 1129 1769 1132 1775 q 1111 1750 1126 1764 l 913 1592 q 897 1582 904 1586 q 885 1578 890 1578 z "},"Ộ":{"ha":1336,"x_min":118,"x_max":1218,"o":"m 669 -26 q 442 23 543 -26 q 268 161 340 72 q 157 371 196 250 q 118 638 118 492 q 135 819 118 733 q 186 980 153 906 q 267 1113 219 1054 q 377 1213 315 1171 q 513 1277 439 1256 q 669 1299 586 1299 q 897 1250 796 1299 q 1069 1113 997 1201 q 1179 903 1140 1024 q 1218 638 1218 782 q 1201 454 1218 540 q 1150 294 1183 368 q 1069 160 1117 219 q 960 60 1021 101 q 826 -4 899 18 q 669 -26 753 -26 m 669 92 q 785 108 732 92 q 886 156 839 125 q 970 234 933 188 q 1033 342 1007 281 q 1074 476 1060 403 q 1088 638 1088 550 q 1057 867 1088 765 q 970 1038 1026 968 q 838 1144 914 1108 q 669 1181 761 1181 q 553 1164 608 1181 q 451 1116 499 1147 q 367 1038 404 1085 q 303 931 331 992 q 263 797 276 869 q 249 638 249 724 q 280 407 249 508 q 367 235 311 306 q 501 128 424 164 q 669 92 578 92 m 668 -326 q 610 -305 629 -326 q 590 -239 590 -283 q 610 -173 590 -194 q 668 -151 629 -151 q 725 -173 706 -151 q 744 -239 744 -194 q 726 -305 746 -283 q 668 -326 706 -326 m 457 1357 q 426 1374 444 1357 q 408 1404 408 1390 q 409 1414 408 1408 q 417 1426 410 1419 l 607 1619 q 629 1638 617 1629 q 668 1647 642 1647 q 706 1638 694 1647 q 728 1619 718 1629 l 919 1426 q 927 1414 926 1419 q 928 1404 928 1408 q 910 1374 928 1390 q 879 1357 893 1357 q 863 1362 869 1357 q 844 1375 856 1367 l 668 1508 l 492 1375 q 474 1362 482 1367 q 457 1357 467 1357 z "},"Ồ":{"ha":1336,"x_min":118,"x_max":1218,"o":"m 669 -26 q 442 23 543 -26 q 268 161 340 72 q 157 371 196 250 q 118 638 118 492 q 135 819 118 733 q 186 980 153 906 q 267 1113 219 1054 q 377 1213 315 1171 q 513 1277 439 1256 q 669 1299 586 1299 q 897 1250 796 1299 q 1069 1113 997 1201 q 1179 903 1140 1024 q 1218 638 1218 782 q 1201 454 1218 540 q 1150 294 1183 368 q 1069 160 1117 219 q 960 60 1021 101 q 826 -4 899 18 q 669 -26 753 -26 m 669 92 q 785 108 732 92 q 886 156 839 125 q 970 234 933 188 q 1033 342 1007 281 q 1074 476 1060 403 q 1088 638 1088 550 q 1057 867 1088 765 q 970 1038 1026 968 q 838 1144 914 1108 q 669 1181 761 1181 q 553 1164 608 1181 q 451 1116 499 1147 q 367 1038 404 1085 q 303 931 331 992 q 263 797 276 869 q 249 638 249 724 q 280 407 249 508 q 367 235 311 306 q 501 128 424 164 q 669 92 578 92 m 457 1357 q 426 1374 444 1357 q 408 1404 408 1390 q 409 1414 408 1408 q 417 1426 410 1419 l 607 1619 q 629 1638 617 1629 q 668 1647 642 1647 q 706 1638 694 1647 q 728 1619 718 1629 l 919 1426 q 927 1414 926 1419 q 928 1404 928 1408 q 910 1374 928 1390 q 879 1357 893 1357 q 863 1362 869 1357 q 844 1375 856 1367 l 668 1508 l 492 1375 q 474 1362 482 1367 q 457 1357 467 1357 m 971 1557 q 959 1560 965 1557 q 944 1571 953 1564 l 751 1753 q 734 1772 738 1765 q 731 1788 731 1778 q 744 1819 731 1801 q 775 1848 757 1836 q 807 1860 793 1860 q 820 1856 814 1860 q 833 1844 826 1851 l 1011 1633 q 1021 1619 1018 1624 q 1024 1610 1024 1615 q 1005 1576 1024 1596 q 971 1557 986 1557 z "},"Ổ":{"ha":1336,"x_min":118,"x_max":1218,"o":"m 669 -26 q 442 23 543 -26 q 268 161 340 72 q 157 371 196 250 q 118 638 118 492 q 135 819 118 733 q 186 980 153 906 q 267 1113 219 1054 q 377 1213 315 1171 q 513 1277 439 1256 q 669 1299 586 1299 q 897 1250 796 1299 q 1069 1113 997 1201 q 1179 903 1140 1024 q 1218 638 1218 782 q 1201 454 1218 540 q 1150 294 1183 368 q 1069 160 1117 219 q 960 60 1021 101 q 826 -4 899 18 q 669 -26 753 -26 m 669 92 q 785 108 732 92 q 886 156 839 125 q 970 234 933 188 q 1033 342 1007 281 q 1074 476 1060 403 q 1088 638 1088 550 q 1057 867 1088 765 q 970 1038 1026 968 q 838 1144 914 1108 q 669 1181 761 1181 q 553 1164 608 1181 q 451 1116 499 1147 q 367 1038 404 1085 q 303 931 331 992 q 263 797 276 869 q 249 638 249 724 q 280 407 249 508 q 367 235 311 306 q 501 128 424 164 q 669 92 578 92 m 457 1357 q 426 1374 444 1357 q 408 1404 408 1390 q 409 1414 408 1408 q 417 1426 410 1419 l 607 1619 q 629 1638 617 1629 q 668 1647 642 1647 q 706 1638 694 1647 q 728 1619 718 1629 l 919 1426 q 927 1414 926 1419 q 928 1404 928 1408 q 910 1374 928 1390 q 879 1357 893 1357 q 863 1362 869 1357 q 844 1375 856 1367 l 668 1508 l 492 1375 q 474 1362 482 1367 q 457 1357 467 1357 m 922 1872 q 1032 1840 990 1872 q 1074 1751 1074 1807 q 1058 1690 1074 1717 q 1003 1633 1042 1663 q 978 1608 985 1619 q 974 1583 971 1597 l 975 1574 q 967 1547 979 1558 q 938 1532 956 1536 q 903 1532 919 1528 q 881 1550 888 1536 l 865 1588 q 866 1647 854 1619 q 908 1696 878 1674 q 935 1721 928 1710 q 943 1743 943 1732 q 931 1763 943 1754 q 900 1771 919 1771 q 859 1765 881 1771 q 825 1750 838 1760 q 767 1772 792 1729 q 775 1826 750 1804 q 843 1860 804 1847 q 922 1872 882 1872 z "},"Ỗ":{"ha":1336,"x_min":118,"x_max":1218,"o":"m 669 -26 q 442 23 543 -26 q 268 161 340 72 q 157 371 196 250 q 118 638 118 492 q 135 819 118 733 q 186 980 153 906 q 267 1113 219 1054 q 377 1213 315 1171 q 513 1277 439 1256 q 669 1299 586 1299 q 897 1250 796 1299 q 1069 1113 997 1201 q 1179 903 1140 1024 q 1218 638 1218 782 q 1201 454 1218 540 q 1150 294 1183 368 q 1069 160 1117 219 q 960 60 1021 101 q 826 -4 899 18 q 669 -26 753 -26 m 669 92 q 785 108 732 92 q 886 156 839 125 q 970 234 933 188 q 1033 342 1007 281 q 1074 476 1060 403 q 1088 638 1088 550 q 1057 867 1088 765 q 970 1038 1026 968 q 838 1144 914 1108 q 669 1181 761 1181 q 553 1164 608 1181 q 451 1116 499 1147 q 367 1038 404 1085 q 303 931 331 992 q 263 797 276 869 q 249 638 249 724 q 280 407 249 508 q 367 235 311 306 q 501 128 424 164 q 669 92 578 92 m 457 1357 q 426 1374 444 1357 q 408 1404 408 1390 q 409 1414 408 1408 q 417 1426 410 1419 l 607 1619 q 629 1638 617 1629 q 668 1647 642 1647 q 706 1638 694 1647 q 728 1619 718 1629 l 919 1426 q 927 1414 926 1419 q 928 1404 928 1408 q 910 1374 928 1390 q 879 1357 893 1357 q 863 1362 869 1357 q 844 1375 856 1367 l 668 1508 l 492 1375 q 474 1362 482 1367 q 457 1357 467 1357 m 465 1664 q 418 1701 418 1664 q 455 1833 421 1788 q 556 1878 489 1878 q 631 1862 597 1878 q 690 1826 664 1846 q 740 1790 717 1806 q 785 1774 763 1774 q 814 1796 803 1774 q 828 1850 825 1818 q 875 1879 829 1879 q 913 1869 901 1879 q 925 1842 925 1860 q 888 1710 924 1754 q 785 1667 853 1667 q 711 1683 744 1667 q 651 1719 678 1699 q 600 1756 624 1740 q 556 1772 576 1772 q 528 1754 538 1772 q 515 1701 518 1736 q 501 1674 514 1683 q 465 1664 489 1664 z "},"Ọ":{"ha":1336,"x_min":118,"x_max":1218,"o":"m 669 -26 q 442 23 543 -26 q 268 161 340 72 q 157 371 196 250 q 118 638 118 492 q 135 819 118 733 q 186 980 153 906 q 267 1113 219 1054 q 377 1213 315 1171 q 513 1277 439 1256 q 669 1299 586 1299 q 897 1250 796 1299 q 1069 1113 997 1201 q 1179 903 1140 1024 q 1218 638 1218 782 q 1201 454 1218 540 q 1150 294 1183 368 q 1069 160 1117 219 q 960 60 1021 101 q 826 -4 899 18 q 669 -26 753 -26 m 669 92 q 785 108 732 92 q 886 156 839 125 q 970 234 933 188 q 1033 342 1007 281 q 1074 476 1060 403 q 1088 638 1088 550 q 1057 867 1088 765 q 970 1038 1026 968 q 838 1144 914 1108 q 669 1181 761 1181 q 553 1164 608 1181 q 451 1116 499 1147 q 367 1038 404 1085 q 303 931 331 992 q 263 797 276 869 q 249 638 249 724 q 280 407 249 508 q 367 235 311 306 q 501 128 424 164 q 669 92 578 92 m 668 -326 q 610 -305 629 -326 q 590 -239 590 -283 q 610 -173 590 -194 q 668 -151 629 -151 q 725 -173 706 -151 q 744 -239 744 -194 q 726 -305 746 -283 q 668 -326 706 -326 z "},"Ỏ":{"ha":1336,"x_min":118,"x_max":1218,"o":"m 669 -26 q 442 23 543 -26 q 268 161 340 72 q 157 371 196 250 q 118 638 118 492 q 135 819 118 733 q 186 980 153 906 q 267 1113 219 1054 q 377 1213 315 1171 q 513 1277 439 1256 q 669 1299 586 1299 q 897 1250 796 1299 q 1069 1113 997 1201 q 1179 903 1140 1024 q 1218 638 1218 782 q 1201 454 1218 540 q 1150 294 1183 368 q 1069 160 1117 219 q 960 60 1021 101 q 826 -4 899 18 q 669 -26 753 -26 m 669 92 q 785 108 732 92 q 886 156 839 125 q 970 234 933 188 q 1033 342 1007 281 q 1074 476 1060 403 q 1088 638 1088 550 q 1057 867 1088 765 q 970 1038 1026 968 q 838 1144 914 1108 q 669 1181 761 1181 q 553 1164 608 1181 q 451 1116 499 1147 q 367 1038 404 1085 q 303 931 331 992 q 263 797 276 869 q 249 638 249 724 q 280 407 249 508 q 367 235 311 306 q 501 128 424 164 q 669 92 578 92 m 682 1686 q 792 1653 750 1686 q 833 1565 833 1621 q 817 1503 833 1531 q 763 1447 801 1476 q 738 1422 744 1433 q 735 1397 732 1411 l 736 1388 q 728 1361 740 1372 q 699 1346 717 1350 q 665 1346 681 1342 q 642 1364 649 1350 l 626 1401 q 626 1460 615 1433 q 668 1510 638 1488 q 695 1535 688 1524 q 703 1557 703 1546 q 691 1576 703 1568 q 660 1585 679 1585 q 620 1579 642 1585 q 586 1564 599 1574 q 528 1586 553 1543 q 536 1640 511 1618 q 604 1674 565 1661 q 682 1686 643 1686 z "},"Ơ":{"ha":1336,"x_min":118,"x_max":1218,"o":"m 669 -26 q 442 23 543 -26 q 268 161 340 72 q 157 371 196 250 q 118 638 118 492 q 135 819 118 733 q 186 980 153 906 q 267 1113 219 1054 q 377 1213 315 1171 q 513 1277 439 1256 q 669 1299 586 1299 q 757 1292 715 1299 q 838 1269 799 1285 q 984 1291 932 1274 q 1056 1336 1036 1308 q 1067 1401 1075 1364 q 1033 1485 1058 1439 q 1028 1529 1019 1508 q 1058 1562 1038 1550 q 1102 1571 1079 1574 q 1139 1544 1125 1568 q 1184 1434 1172 1489 q 1181 1331 1196 1379 q 1115 1249 1165 1283 q 975 1203 1065 1214 q 1154 972 1090 1118 q 1218 638 1218 825 q 1201 454 1218 540 q 1150 294 1183 368 q 1069 160 1117 219 q 960 60 1021 101 q 826 -4 899 18 q 669 -26 753 -26 m 669 92 q 785 108 732 92 q 886 156 839 125 q 970 234 933 188 q 1033 342 1007 281 q 1074 476 1060 403 q 1088 638 1088 550 q 1057 867 1088 765 q 970 1038 1026 968 q 838 1144 914 1108 q 669 1181 761 1181 q 553 1164 608 1181 q 451 1116 499 1147 q 367 1038 404 1085 q 303 931 331 992 q 263 797 276 869 q 249 638 249 724 q 280 407 249 508 q 367 235 311 306 q 501 128 424 164 q 669 92 578 92 z "},"Ớ":{"ha":1336,"x_min":118,"x_max":1218,"o":"m 669 -26 q 442 23 543 -26 q 268 161 340 72 q 157 371 196 250 q 118 638 118 492 q 135 819 118 733 q 186 980 153 906 q 267 1113 219 1054 q 377 1213 315 1171 q 513 1277 439 1256 q 669 1299 586 1299 q 757 1292 715 1299 q 838 1269 799 1285 q 984 1291 932 1274 q 1056 1336 1036 1308 q 1067 1401 1075 1364 q 1033 1485 1058 1439 q 1028 1529 1019 1508 q 1058 1562 1038 1550 q 1102 1571 1079 1574 q 1139 1544 1125 1568 q 1184 1434 1172 1489 q 1181 1331 1196 1379 q 1115 1249 1165 1283 q 975 1203 1065 1214 q 1154 972 1090 1118 q 1218 638 1218 825 q 1201 454 1218 540 q 1150 294 1183 368 q 1069 160 1117 219 q 960 60 1021 101 q 826 -4 899 18 q 669 -26 753 -26 m 669 92 q 785 108 732 92 q 886 156 839 125 q 970 234 933 188 q 1033 342 1007 281 q 1074 476 1060 403 q 1088 638 1088 550 q 1057 867 1088 765 q 970 1038 1026 968 q 838 1144 914 1108 q 669 1181 761 1181 q 553 1164 608 1181 q 451 1116 499 1147 q 367 1038 404 1085 q 303 931 331 992 q 263 797 276 869 q 249 638 249 724 q 280 407 249 508 q 367 235 311 306 q 501 128 424 164 q 669 92 578 92 m 604 1357 q 571 1376 589 1357 q 553 1408 553 1394 q 554 1420 553 1415 q 564 1433 556 1425 l 756 1632 q 769 1643 763 1639 q 782 1647 775 1647 q 814 1635 796 1647 q 845 1606 832 1622 q 858 1575 858 1589 q 855 1558 858 1565 q 838 1540 851 1551 l 631 1371 q 616 1361 622 1365 q 604 1357 610 1357 z "},"Ợ":{"ha":1336,"x_min":118,"x_max":1218,"o":"m 669 -26 q 442 23 543 -26 q 268 161 340 72 q 157 371 196 250 q 118 638 118 492 q 135 819 118 733 q 186 980 153 906 q 267 1113 219 1054 q 377 1213 315 1171 q 513 1277 439 1256 q 669 1299 586 1299 q 757 1292 715 1299 q 838 1269 799 1285 q 984 1291 932 1274 q 1056 1336 1036 1308 q 1067 1401 1075 1364 q 1033 1485 1058 1439 q 1028 1529 1019 1508 q 1058 1562 1038 1550 q 1102 1571 1079 1574 q 1139 1544 1125 1568 q 1184 1434 1172 1489 q 1181 1331 1196 1379 q 1115 1249 1165 1283 q 975 1203 1065 1214 q 1154 972 1090 1118 q 1218 638 1218 825 q 1201 454 1218 540 q 1150 294 1183 368 q 1069 160 1117 219 q 960 60 1021 101 q 826 -4 899 18 q 669 -26 753 -26 m 669 92 q 785 108 732 92 q 886 156 839 125 q 970 234 933 188 q 1033 342 1007 281 q 1074 476 1060 403 q 1088 638 1088 550 q 1057 867 1088 765 q 970 1038 1026 968 q 838 1144 914 1108 q 669 1181 761 1181 q 553 1164 608 1181 q 451 1116 499 1147 q 367 1038 404 1085 q 303 931 331 992 q 263 797 276 869 q 249 638 249 724 q 280 407 249 508 q 367 235 311 306 q 501 128 424 164 q 669 92 578 92 m 668 -326 q 610 -305 629 -326 q 590 -239 590 -283 q 610 -173 590 -194 q 668 -151 629 -151 q 725 -173 706 -151 q 744 -239 744 -194 q 726 -305 746 -283 q 668 -326 706 -326 z "},"Ờ":{"ha":1336,"x_min":118,"x_max":1218,"o":"m 669 -26 q 442 23 543 -26 q 268 161 340 72 q 157 371 196 250 q 118 638 118 492 q 135 819 118 733 q 186 980 153 906 q 267 1113 219 1054 q 377 1213 315 1171 q 513 1277 439 1256 q 669 1299 586 1299 q 757 1292 715 1299 q 838 1269 799 1285 q 984 1291 932 1274 q 1056 1336 1036 1308 q 1067 1401 1075 1364 q 1033 1485 1058 1439 q 1028 1529 1019 1508 q 1058 1562 1038 1550 q 1102 1571 1079 1574 q 1139 1544 1125 1568 q 1184 1434 1172 1489 q 1181 1331 1196 1379 q 1115 1249 1165 1283 q 975 1203 1065 1214 q 1154 972 1090 1118 q 1218 638 1218 825 q 1201 454 1218 540 q 1150 294 1183 368 q 1069 160 1117 219 q 960 60 1021 101 q 826 -4 899 18 q 669 -26 753 -26 m 669 92 q 785 108 732 92 q 886 156 839 125 q 970 234 933 188 q 1033 342 1007 281 q 1074 476 1060 403 q 1088 638 1088 550 q 1057 867 1088 765 q 970 1038 1026 968 q 838 1144 914 1108 q 669 1181 761 1181 q 553 1164 608 1181 q 451 1116 499 1147 q 367 1038 404 1085 q 303 931 331 992 q 263 797 276 869 q 249 638 249 724 q 280 407 249 508 q 367 235 311 306 q 501 128 424 164 q 669 92 578 92 m 732 1357 q 720 1361 726 1357 q 706 1371 714 1365 l 499 1540 q 482 1558 486 1551 q 478 1575 478 1565 q 491 1606 478 1589 q 522 1635 504 1622 q 554 1647 540 1647 q 569 1643 563 1647 q 581 1632 575 1639 l 772 1433 q 783 1420 782 1425 q 785 1410 785 1415 q 766 1376 785 1394 q 732 1357 747 1357 z "},"Ở":{"ha":1336,"x_min":118,"x_max":1218,"o":"m 669 -26 q 442 23 543 -26 q 268 161 340 72 q 157 371 196 250 q 118 638 118 492 q 135 819 118 733 q 186 980 153 906 q 267 1113 219 1054 q 377 1213 315 1171 q 513 1277 439 1256 q 669 1299 586 1299 q 757 1292 715 1299 q 838 1269 799 1285 q 984 1291 932 1274 q 1056 1336 1036 1308 q 1067 1401 1075 1364 q 1033 1485 1058 1439 q 1028 1529 1019 1508 q 1058 1562 1038 1550 q 1102 1571 1079 1574 q 1139 1544 1125 1568 q 1184 1434 1172 1489 q 1181 1331 1196 1379 q 1115 1249 1165 1283 q 975 1203 1065 1214 q 1154 972 1090 1118 q 1218 638 1218 825 q 1201 454 1218 540 q 1150 294 1183 368 q 1069 160 1117 219 q 960 60 1021 101 q 826 -4 899 18 q 669 -26 753 -26 m 669 92 q 785 108 732 92 q 886 156 839 125 q 970 234 933 188 q 1033 342 1007 281 q 1074 476 1060 403 q 1088 638 1088 550 q 1057 867 1088 765 q 970 1038 1026 968 q 838 1144 914 1108 q 669 1181 761 1181 q 553 1164 608 1181 q 451 1116 499 1147 q 367 1038 404 1085 q 303 931 331 992 q 263 797 276 869 q 249 638 249 724 q 280 407 249 508 q 367 235 311 306 q 501 128 424 164 q 669 92 578 92 m 682 1686 q 792 1653 750 1686 q 833 1565 833 1621 q 817 1503 833 1531 q 763 1447 801 1476 q 738 1422 744 1433 q 735 1397 732 1411 l 736 1388 q 728 1361 740 1372 q 699 1346 717 1350 q 665 1346 681 1342 q 642 1364 649 1350 l 626 1401 q 626 1460 615 1433 q 668 1510 638 1488 q 695 1535 688 1524 q 703 1557 703 1546 q 691 1576 703 1568 q 660 1585 679 1585 q 620 1579 642 1585 q 586 1564 599 1574 q 528 1586 553 1543 q 536 1640 511 1618 q 604 1674 565 1661 q 682 1686 643 1686 z "},"Ỡ":{"ha":1336,"x_min":118,"x_max":1218,"o":"m 669 -26 q 442 23 543 -26 q 268 161 340 72 q 157 371 196 250 q 118 638 118 492 q 135 819 118 733 q 186 980 153 906 q 267 1113 219 1054 q 377 1213 315 1171 q 513 1277 439 1256 q 669 1299 586 1299 q 757 1292 715 1299 q 838 1269 799 1285 q 984 1291 932 1274 q 1056 1336 1036 1308 q 1067 1401 1075 1364 q 1033 1485 1058 1439 q 1028 1529 1019 1508 q 1058 1562 1038 1550 q 1102 1571 1079 1574 q 1139 1544 1125 1568 q 1184 1434 1172 1489 q 1181 1331 1196 1379 q 1115 1249 1165 1283 q 975 1203 1065 1214 q 1154 972 1090 1118 q 1218 638 1218 825 q 1201 454 1218 540 q 1150 294 1183 368 q 1069 160 1117 219 q 960 60 1021 101 q 826 -4 899 18 q 669 -26 753 -26 m 669 92 q 785 108 732 92 q 886 156 839 125 q 970 234 933 188 q 1033 342 1007 281 q 1074 476 1060 403 q 1088 638 1088 550 q 1057 867 1088 765 q 970 1038 1026 968 q 838 1144 914 1108 q 669 1181 761 1181 q 553 1164 608 1181 q 451 1116 499 1147 q 367 1038 404 1085 q 303 931 331 992 q 263 797 276 869 q 249 638 249 724 q 280 407 249 508 q 367 235 311 306 q 501 128 424 164 q 669 92 578 92 m 458 1394 q 411 1431 411 1394 q 448 1563 414 1518 q 550 1607 482 1607 q 624 1591 592 1607 q 683 1555 657 1575 q 733 1519 710 1535 q 778 1503 756 1503 q 808 1525 797 1503 q 821 1579 818 1547 q 868 1610 822 1610 q 906 1600 894 1610 q 918 1571 918 1590 q 882 1440 917 1483 q 778 1396 847 1396 q 704 1412 738 1396 q 644 1449 671 1428 q 594 1485 617 1469 q 550 1501 571 1501 q 521 1484 531 1501 q 508 1431 511 1467 q 494 1403 507 1413 q 458 1394 482 1394 z "},"Ŕ":{"ha":1001,"x_min":183,"x_max":975,"o":"m 244 -19 q 199 -10 214 -19 q 183 19 183 0 l 183 1239 q 199 1267 183 1258 q 246 1276 215 1276 l 482 1276 q 729 1247 633 1276 q 872 1149 825 1217 q 919 969 919 1082 q 904 865 919 914 q 860 773 889 815 q 791 697 832 731 q 697 638 750 663 q 578 597 643 613 q 439 575 514 582 q 596 401 514 488 q 767 234 678 315 q 951 75 856 153 q 971 42 967 64 q 949 -6 975 21 q 911 -23 931 -22 q 871 -7 892 -24 q 667 173 767 79 q 478 364 568 267 q 306 557 388 461 l 306 19 q 290 -10 306 0 q 244 -19 275 -19 m 306 672 q 432 678 374 672 q 540 697 490 685 q 630 727 590 710 q 701 769 669 744 q 753 824 732 793 q 784 890 774 854 q 794 969 794 926 q 763 1085 794 1042 q 665 1147 731 1128 q 501 1165 600 1165 l 306 1165 l 306 672 m 439 1357 q 406 1376 424 1357 q 388 1408 388 1394 q 389 1420 388 1415 q 399 1433 390 1425 l 590 1632 q 603 1643 597 1639 q 617 1647 610 1647 q 649 1635 631 1647 q 680 1606 667 1622 q 693 1575 693 1589 q 690 1558 693 1565 q 672 1540 686 1551 l 465 1371 q 451 1361 457 1365 q 439 1357 444 1357 z "},"Ř":{"ha":1001,"x_min":183,"x_max":975,"o":"m 244 -19 q 199 -10 214 -19 q 183 19 183 0 l 183 1239 q 199 1267 183 1258 q 246 1276 215 1276 l 482 1276 q 729 1247 633 1276 q 872 1149 825 1217 q 919 969 919 1082 q 904 865 919 914 q 860 773 889 815 q 791 697 832 731 q 697 638 750 663 q 578 597 643 613 q 439 575 514 582 q 596 401 514 488 q 767 234 678 315 q 951 75 856 153 q 971 42 967 64 q 949 -6 975 21 q 911 -23 931 -22 q 871 -7 892 -24 q 667 173 767 79 q 478 364 568 267 q 306 557 388 461 l 306 19 q 290 -10 306 0 q 244 -19 275 -19 m 306 672 q 432 678 374 672 q 540 697 490 685 q 630 727 590 710 q 701 769 669 744 q 753 824 732 793 q 784 890 774 854 q 794 969 794 926 q 763 1085 794 1042 q 665 1147 731 1128 q 501 1165 600 1165 l 306 1165 l 306 672 m 714 1647 q 745 1631 728 1647 q 763 1600 763 1615 q 762 1592 763 1597 q 754 1578 761 1586 l 564 1385 q 542 1367 554 1376 q 503 1357 531 1357 q 465 1367 476 1357 q 444 1385 453 1376 l 251 1578 q 244 1592 244 1586 q 243 1600 243 1597 q 261 1631 243 1615 q 292 1647 279 1647 q 309 1642 301 1647 q 326 1631 317 1638 l 503 1496 l 679 1631 q 697 1642 690 1638 q 714 1647 704 1647 z "},"Ŗ":{"ha":1001,"x_min":183,"x_max":975,"o":"m 244 -19 q 199 -10 214 -19 q 183 19 183 0 l 183 1239 q 199 1267 183 1258 q 246 1276 215 1276 l 482 1276 q 729 1247 633 1276 q 872 1149 825 1217 q 919 969 919 1082 q 904 865 919 914 q 860 773 889 815 q 791 697 832 731 q 697 638 750 663 q 578 597 643 613 q 439 575 514 582 q 596 401 514 488 q 767 234 678 315 q 951 75 856 153 q 971 42 967 64 q 949 -6 975 21 q 911 -23 931 -22 q 871 -7 892 -24 q 667 173 767 79 q 478 364 568 267 q 306 557 388 461 l 306 19 q 290 -10 306 0 q 244 -19 275 -19 m 306 672 q 432 678 374 672 q 540 697 490 685 q 630 727 590 710 q 701 769 669 744 q 753 824 732 793 q 784 890 774 854 q 794 969 794 926 q 763 1085 794 1042 q 665 1147 731 1128 q 501 1165 600 1165 l 306 1165 l 306 672 m 478 -410 q 457 -391 461 -403 q 460 -358 453 -379 q 485 -285 476 -317 q 495 -220 493 -253 q 497 -146 497 -187 q 510 -112 497 -122 q 550 -103 524 -103 q 599 -118 582 -103 q 617 -160 617 -133 q 607 -235 617 -194 q 581 -314 597 -275 q 542 -386 564 -353 q 514 -412 528 -408 q 478 -410 500 -417 z "},"Ś":{"ha":993,"x_min":101,"x_max":894,"o":"m 471 -26 q 380 -18 429 -26 q 281 8 331 -10 q 188 56 232 26 q 111 131 143 86 q 102 157 101 144 q 122 189 103 169 q 155 212 142 210 q 194 190 168 214 q 266 139 225 161 q 358 104 307 117 q 471 92 408 92 q 601 106 546 92 q 692 151 656 121 q 748 228 729 182 q 767 340 767 275 q 748 430 767 392 q 694 496 729 468 q 613 546 660 524 q 506 586 565 568 q 403 624 456 603 q 304 675 351 644 q 220 748 257 706 q 162 847 183 790 q 140 978 140 903 q 168 1115 140 1056 q 246 1215 196 1174 q 364 1278 296 1257 q 514 1299 432 1299 q 648 1279 586 1299 q 761 1226 710 1260 q 858 1150 813 1192 q 871 1122 874 1136 q 854 1092 868 1107 q 820 1067 836 1074 q 789 1071 804 1060 q 712 1128 753 1103 q 622 1167 671 1153 q 514 1181 574 1181 q 410 1167 456 1181 q 334 1130 365 1154 q 286 1067 303 1106 q 269 978 269 1029 q 289 876 269 918 q 344 802 308 833 q 430 749 381 771 q 536 710 479 728 q 660 664 597 690 q 776 596 724 638 q 862 492 829 554 q 894 340 894 431 q 865 181 894 250 q 781 67 836 113 q 648 -3 726 21 q 471 -26 569 -26 m 449 1357 q 415 1376 433 1357 q 397 1408 397 1394 q 399 1420 397 1415 q 408 1433 400 1425 l 600 1632 q 613 1643 607 1639 q 626 1647 619 1647 q 658 1635 640 1647 q 690 1606 676 1622 q 703 1575 703 1589 q 699 1558 703 1565 q 682 1540 696 1551 l 475 1371 q 460 1361 467 1365 q 449 1357 454 1357 z "},"Š":{"ha":993,"x_min":101,"x_max":894,"o":"m 471 -26 q 380 -18 429 -26 q 281 8 331 -10 q 188 56 232 26 q 111 131 143 86 q 102 157 101 144 q 122 189 103 169 q 155 212 142 210 q 194 190 168 214 q 266 139 225 161 q 358 104 307 117 q 471 92 408 92 q 601 106 546 92 q 692 151 656 121 q 748 228 729 182 q 767 340 767 275 q 748 430 767 392 q 694 496 729 468 q 613 546 660 524 q 506 586 565 568 q 403 624 456 603 q 304 675 351 644 q 220 748 257 706 q 162 847 183 790 q 140 978 140 903 q 168 1115 140 1056 q 246 1215 196 1174 q 364 1278 296 1257 q 514 1299 432 1299 q 648 1279 586 1299 q 761 1226 710 1260 q 858 1150 813 1192 q 871 1122 874 1136 q 854 1092 868 1107 q 820 1067 836 1074 q 789 1071 804 1060 q 712 1128 753 1103 q 622 1167 671 1153 q 514 1181 574 1181 q 410 1167 456 1181 q 334 1130 365 1154 q 286 1067 303 1106 q 269 978 269 1029 q 289 876 269 918 q 344 802 308 833 q 430 749 381 771 q 536 710 479 728 q 660 664 597 690 q 776 596 724 638 q 862 492 829 554 q 894 340 894 431 q 865 181 894 250 q 781 67 836 113 q 648 -3 726 21 q 471 -26 569 -26 m 724 1647 q 755 1631 738 1647 q 772 1600 772 1615 q 772 1592 772 1597 q 764 1578 771 1586 l 574 1385 q 552 1367 564 1376 q 513 1357 540 1357 q 474 1367 486 1357 q 454 1385 463 1376 l 261 1578 q 253 1592 254 1586 q 253 1600 253 1597 q 271 1631 253 1615 q 301 1647 289 1647 q 319 1642 311 1647 q 336 1631 326 1638 l 513 1496 l 689 1631 q 707 1642 700 1638 q 724 1647 714 1647 z "},"Ş":{"ha":993,"x_min":101,"x_max":894,"o":"m 471 -26 q 380 -18 429 -26 q 281 8 331 -10 q 188 56 232 26 q 111 131 143 86 q 102 157 101 144 q 122 189 103 169 q 155 212 142 210 q 194 190 168 214 q 266 139 225 161 q 358 104 307 117 q 471 92 408 92 q 601 106 546 92 q 692 151 656 121 q 748 228 729 182 q 767 340 767 275 q 748 430 767 392 q 694 496 729 468 q 613 546 660 524 q 506 586 565 568 q 403 624 456 603 q 304 675 351 644 q 220 748 257 706 q 162 847 183 790 q 140 978 140 903 q 168 1115 140 1056 q 246 1215 196 1174 q 364 1278 296 1257 q 514 1299 432 1299 q 648 1279 586 1299 q 761 1226 710 1260 q 858 1150 813 1192 q 871 1122 874 1136 q 854 1092 868 1107 q 820 1067 836 1074 q 789 1071 804 1060 q 712 1128 753 1103 q 622 1167 671 1153 q 514 1181 574 1181 q 410 1167 456 1181 q 334 1130 365 1154 q 286 1067 303 1106 q 269 978 269 1029 q 289 876 269 918 q 344 802 308 833 q 430 749 381 771 q 536 710 479 728 q 660 664 597 690 q 776 596 724 638 q 862 492 829 554 q 894 340 894 431 q 865 181 894 250 q 781 67 836 113 q 648 -3 726 21 q 471 -26 569 -26 m 469 -375 q 401 -367 446 -375 q 319 -336 357 -360 q 302 -310 304 -326 q 307 -279 300 -294 q 329 -254 317 -260 q 360 -257 342 -249 q 401 -271 375 -262 q 460 -279 428 -279 q 520 -269 503 -279 q 538 -232 538 -258 q 516 -194 538 -210 q 433 -187 494 -179 q 410 -186 418 -189 q 393 -174 401 -183 q 385 -154 386 -164 q 389 -135 385 -144 l 457 18 l 546 18 l 474 -146 l 432 -124 q 543 -108 494 -100 q 619 -149 592 -117 q 647 -232 647 -181 q 627 -308 647 -276 q 568 -358 607 -340 q 469 -375 529 -375 z "},"Ŝ":{"ha":993,"x_min":101,"x_max":894,"o":"m 471 -26 q 380 -18 429 -26 q 281 8 331 -10 q 188 56 232 26 q 111 131 143 86 q 102 157 101 144 q 122 189 103 169 q 155 212 142 210 q 194 190 168 214 q 266 139 225 161 q 358 104 307 117 q 471 92 408 92 q 601 106 546 92 q 692 151 656 121 q 748 228 729 182 q 767 340 767 275 q 748 430 767 392 q 694 496 729 468 q 613 546 660 524 q 506 586 565 568 q 403 624 456 603 q 304 675 351 644 q 220 748 257 706 q 162 847 183 790 q 140 978 140 903 q 168 1115 140 1056 q 246 1215 196 1174 q 364 1278 296 1257 q 514 1299 432 1299 q 648 1279 586 1299 q 761 1226 710 1260 q 858 1150 813 1192 q 871 1122 874 1136 q 854 1092 868 1107 q 820 1067 836 1074 q 789 1071 804 1060 q 712 1128 753 1103 q 622 1167 671 1153 q 514 1181 574 1181 q 410 1167 456 1181 q 334 1130 365 1154 q 286 1067 303 1106 q 269 978 269 1029 q 289 876 269 918 q 344 802 308 833 q 430 749 381 771 q 536 710 479 728 q 660 664 597 690 q 776 596 724 638 q 862 492 829 554 q 894 340 894 431 q 865 181 894 250 q 781 67 836 113 q 648 -3 726 21 q 471 -26 569 -26 m 301 1357 q 271 1374 289 1357 q 253 1404 253 1390 q 253 1414 253 1408 q 261 1426 254 1419 l 451 1619 q 474 1638 461 1629 q 513 1647 486 1647 q 551 1638 539 1647 q 572 1619 563 1629 l 764 1426 q 772 1414 771 1419 q 772 1404 772 1408 q 755 1374 772 1390 q 724 1357 738 1357 q 707 1362 714 1357 q 689 1375 700 1367 l 513 1508 l 336 1375 q 319 1362 326 1367 q 301 1357 311 1357 z "},"Ș":{"ha":993,"x_min":101,"x_max":894,"o":"m 471 -26 q 380 -18 429 -26 q 281 8 331 -10 q 188 56 232 26 q 111 131 143 86 q 102 157 101 144 q 122 189 103 169 q 155 212 142 210 q 194 190 168 214 q 266 139 225 161 q 358 104 307 117 q 471 92 408 92 q 601 106 546 92 q 692 151 656 121 q 748 228 729 182 q 767 340 767 275 q 748 430 767 392 q 694 496 729 468 q 613 546 660 524 q 506 586 565 568 q 403 624 456 603 q 304 675 351 644 q 220 748 257 706 q 162 847 183 790 q 140 978 140 903 q 168 1115 140 1056 q 246 1215 196 1174 q 364 1278 296 1257 q 514 1299 432 1299 q 648 1279 586 1299 q 761 1226 710 1260 q 858 1150 813 1192 q 871 1122 874 1136 q 854 1092 868 1107 q 820 1067 836 1074 q 789 1071 804 1060 q 712 1128 753 1103 q 622 1167 671 1153 q 514 1181 574 1181 q 410 1167 456 1181 q 334 1130 365 1154 q 286 1067 303 1106 q 269 978 269 1029 q 289 876 269 918 q 344 802 308 833 q 430 749 381 771 q 536 710 479 728 q 660 664 597 690 q 776 596 724 638 q 862 492 829 554 q 894 340 894 431 q 865 181 894 250 q 781 67 836 113 q 648 -3 726 21 q 471 -26 569 -26 m 411 -410 q 390 -391 394 -403 q 393 -358 386 -379 q 418 -285 410 -317 q 428 -220 426 -253 q 431 -146 431 -187 q 444 -112 431 -122 q 483 -103 457 -103 q 533 -118 515 -103 q 550 -160 550 -133 q 540 -235 550 -194 q 514 -314 531 -275 q 475 -386 497 -353 q 447 -412 461 -408 q 411 -410 433 -417 z "},"Ŧ":{"ha":996,"x_min":22,"x_max":974,"o":"m 499 -21 q 438 18 438 -21 l 438 1165 l 61 1165 q 31 1178 40 1165 q 22 1221 22 1190 q 31 1265 22 1253 q 61 1276 40 1276 l 936 1276 q 965 1265 957 1276 q 974 1221 974 1253 q 965 1178 974 1190 q 936 1165 957 1165 l 560 1165 l 560 18 q 544 -11 560 -1 q 499 -21 529 -21 m 239 588 q 207 603 214 588 q 200 636 200 618 q 207 672 200 656 q 239 689 214 689 l 760 689 q 790 672 783 689 q 797 636 797 656 q 790 603 797 618 q 760 588 783 588 l 239 588 z "},"Ť":{"ha":996,"x_min":22,"x_max":974,"o":"m 499 -21 q 438 18 438 -21 l 438 1165 l 61 1165 q 31 1178 40 1165 q 22 1221 22 1190 q 31 1265 22 1253 q 61 1276 40 1276 l 936 1276 q 965 1265 957 1276 q 974 1221 974 1253 q 965 1178 974 1190 q 936 1165 957 1165 l 560 1165 l 560 18 q 544 -11 560 -1 q 499 -21 529 -21 m 710 1647 q 741 1631 724 1647 q 758 1600 758 1615 q 758 1592 758 1597 q 750 1578 757 1586 l 560 1385 q 538 1367 550 1376 q 499 1357 526 1357 q 460 1367 472 1357 q 440 1385 449 1376 l 247 1578 q 240 1592 240 1586 q 239 1600 239 1597 q 257 1631 239 1615 q 288 1647 275 1647 q 305 1642 297 1647 q 322 1631 313 1638 l 499 1496 l 675 1631 q 693 1642 686 1638 q 710 1647 700 1647 z "},"Ţ":{"ha":996,"x_min":22,"x_max":974,"o":"m 499 -21 q 438 18 438 -21 l 438 1165 l 61 1165 q 31 1178 40 1165 q 22 1221 22 1190 q 31 1265 22 1253 q 61 1276 40 1276 l 936 1276 q 965 1265 957 1276 q 974 1221 974 1253 q 965 1178 974 1190 q 936 1165 957 1165 l 560 1165 l 560 18 q 544 -11 560 -1 q 499 -21 529 -21 m 478 -375 q 410 -367 454 -375 q 328 -336 365 -360 q 310 -310 313 -326 q 315 -279 308 -294 q 338 -254 325 -260 q 368 -257 350 -249 q 410 -271 383 -262 q 468 -279 436 -279 q 528 -269 511 -279 q 546 -232 546 -258 q 524 -194 546 -210 q 442 -187 503 -179 q 418 -186 426 -189 q 401 -174 410 -183 q 394 -154 394 -164 q 397 -135 393 -144 l 465 18 l 554 18 l 482 -146 l 440 -124 q 551 -108 503 -100 q 628 -149 600 -117 q 656 -232 656 -181 q 635 -308 656 -276 q 576 -358 615 -340 q 478 -375 538 -375 z "},"Ț":{"ha":996,"x_min":22,"x_max":974,"o":"m 499 -21 q 438 18 438 -21 l 438 1165 l 61 1165 q 31 1178 40 1165 q 22 1221 22 1190 q 31 1265 22 1253 q 61 1276 40 1276 l 936 1276 q 965 1265 957 1276 q 974 1221 974 1253 q 965 1178 974 1190 q 936 1165 957 1165 l 560 1165 l 560 18 q 544 -11 560 -1 q 499 -21 529 -21 m 419 -410 q 399 -391 403 -403 q 401 -358 394 -379 q 426 -285 418 -317 q 437 -220 435 -253 q 439 -146 439 -187 q 452 -112 439 -122 q 492 -103 465 -103 q 541 -118 524 -103 q 558 -160 558 -133 q 549 -235 558 -194 q 522 -314 539 -275 q 483 -386 506 -353 q 456 -412 469 -408 q 419 -410 442 -417 z "},"Ú":{"ha":1246,"x_min":182,"x_max":1064,"o":"m 626 -26 q 440 3 522 -26 q 301 87 358 32 q 213 220 243 142 q 182 399 182 299 l 182 1261 q 197 1290 182 1281 q 243 1299 213 1299 q 289 1290 274 1299 q 304 1261 304 1281 l 304 399 q 342 234 304 303 q 453 128 381 165 q 626 92 525 92 q 797 128 726 92 q 904 234 867 165 q 942 399 942 303 l 942 1261 q 957 1290 942 1281 q 1003 1299 972 1299 q 1064 1261 1064 1299 l 1064 399 q 1012 170 1064 265 q 862 24 960 75 q 626 -26 764 -26 m 558 1357 q 525 1376 543 1357 q 507 1408 507 1394 q 508 1420 507 1415 q 518 1433 510 1425 l 710 1632 q 723 1643 717 1639 q 736 1647 729 1647 q 768 1635 750 1647 q 799 1606 786 1622 q 813 1575 813 1589 q 809 1558 813 1565 q 792 1540 806 1551 l 585 1371 q 570 1361 576 1365 q 558 1357 564 1357 z "},"Ŭ":{"ha":1246,"x_min":182,"x_max":1064,"o":"m 626 -26 q 440 3 522 -26 q 301 87 358 32 q 213 220 243 142 q 182 399 182 299 l 182 1261 q 197 1290 182 1281 q 243 1299 213 1299 q 289 1290 274 1299 q 304 1261 304 1281 l 304 399 q 342 234 304 303 q 453 128 381 165 q 626 92 525 92 q 797 128 726 92 q 904 234 867 165 q 942 399 942 303 l 942 1261 q 957 1290 942 1281 q 1003 1299 972 1299 q 1064 1261 1064 1299 l 1064 399 q 1012 170 1064 265 q 862 24 960 75 q 626 -26 764 -26 m 622 1357 q 449 1419 515 1357 q 372 1607 382 1481 q 385 1635 371 1624 q 425 1647 399 1647 q 456 1637 447 1647 q 469 1607 464 1626 q 524 1512 488 1543 q 622 1481 560 1481 q 722 1512 685 1481 q 775 1607 758 1543 q 788 1637 781 1626 q 818 1647 796 1647 q 859 1635 844 1647 q 872 1607 874 1624 q 833 1471 867 1526 q 744 1386 799 1415 q 622 1357 690 1357 z "},"Ǔ":{"ha":1246,"x_min":182,"x_max":1064,"o":"m 626 -26 q 440 3 522 -26 q 301 87 358 32 q 213 220 243 142 q 182 399 182 299 l 182 1261 q 197 1290 182 1281 q 243 1299 213 1299 q 289 1290 274 1299 q 304 1261 304 1281 l 304 399 q 342 234 304 303 q 453 128 381 165 q 626 92 525 92 q 797 128 726 92 q 904 234 867 165 q 942 399 942 303 l 942 1261 q 957 1290 942 1281 q 1003 1299 972 1299 q 1064 1261 1064 1299 l 1064 399 q 1012 170 1064 265 q 862 24 960 75 q 626 -26 764 -26 m 833 1647 q 865 1631 847 1647 q 882 1600 882 1615 q 881 1592 882 1597 q 874 1578 881 1586 l 683 1385 q 662 1367 674 1376 q 622 1357 650 1357 q 584 1367 596 1357 q 564 1385 572 1376 l 371 1578 q 363 1592 364 1586 q 363 1600 363 1597 q 381 1631 363 1615 q 411 1647 399 1647 q 428 1642 421 1647 q 446 1631 436 1638 l 622 1496 l 799 1631 q 817 1642 810 1638 q 833 1647 824 1647 z "},"Û":{"ha":1246,"x_min":182,"x_max":1064,"o":"m 626 -26 q 440 3 522 -26 q 301 87 358 32 q 213 220 243 142 q 182 399 182 299 l 182 1261 q 197 1290 182 1281 q 243 1299 213 1299 q 289 1290 274 1299 q 304 1261 304 1281 l 304 399 q 342 234 304 303 q 453 128 381 165 q 626 92 525 92 q 797 128 726 92 q 904 234 867 165 q 942 399 942 303 l 942 1261 q 957 1290 942 1281 q 1003 1299 972 1299 q 1064 1261 1064 1299 l 1064 399 q 1012 170 1064 265 q 862 24 960 75 q 626 -26 764 -26 m 411 1357 q 381 1374 399 1357 q 363 1404 363 1390 q 363 1414 363 1408 q 371 1426 364 1419 l 561 1619 q 583 1638 571 1629 q 622 1647 596 1647 q 660 1638 649 1647 q 682 1619 672 1629 l 874 1426 q 881 1414 881 1419 q 882 1404 882 1408 q 865 1374 882 1390 q 833 1357 847 1357 q 817 1362 824 1357 q 799 1375 810 1367 l 622 1508 l 446 1375 q 428 1362 436 1367 q 411 1357 421 1357 z "},"Ü":{"ha":1246,"x_min":182,"x_max":1064,"o":"m 626 -26 q 440 3 522 -26 q 301 87 358 32 q 213 220 243 142 q 182 399 182 299 l 182 1261 q 197 1290 182 1281 q 243 1299 213 1299 q 289 1290 274 1299 q 304 1261 304 1281 l 304 399 q 342 234 304 303 q 453 128 381 165 q 626 92 525 92 q 797 128 726 92 q 904 234 867 165 q 942 399 942 303 l 942 1261 q 957 1290 942 1281 q 1003 1299 972 1299 q 1064 1261 1064 1299 l 1064 399 q 1012 170 1064 265 q 862 24 960 75 q 626 -26 764 -26 m 456 1403 q 397 1424 417 1403 q 378 1489 378 1446 q 397 1556 378 1533 q 456 1578 417 1578 q 513 1556 494 1578 q 532 1489 532 1533 q 515 1424 535 1446 q 456 1403 494 1403 m 790 1403 q 732 1424 751 1403 q 713 1489 713 1446 q 732 1556 713 1533 q 790 1578 751 1578 q 847 1556 828 1578 q 867 1489 867 1533 q 848 1424 868 1446 q 790 1403 828 1403 z "},"Ù":{"ha":1246,"x_min":182,"x_max":1064,"o":"m 626 -26 q 440 3 522 -26 q 301 87 358 32 q 213 220 243 142 q 182 399 182 299 l 182 1261 q 197 1290 182 1281 q 243 1299 213 1299 q 289 1290 274 1299 q 304 1261 304 1281 l 304 399 q 342 234 304 303 q 453 128 381 165 q 626 92 525 92 q 797 128 726 92 q 904 234 867 165 q 942 399 942 303 l 942 1261 q 957 1290 942 1281 q 1003 1299 972 1299 q 1064 1261 1064 1299 l 1064 399 q 1012 170 1064 265 q 862 24 960 75 q 626 -26 764 -26 m 686 1357 q 674 1361 681 1357 q 660 1371 668 1365 l 453 1540 q 436 1558 440 1551 q 432 1575 432 1565 q 445 1606 432 1589 q 476 1635 458 1622 q 508 1647 494 1647 q 523 1643 517 1647 q 535 1632 529 1639 l 726 1433 q 738 1420 736 1425 q 739 1410 739 1415 q 720 1376 739 1394 q 686 1357 701 1357 z "},"Ű":{"ha":1246,"x_min":182,"x_max":1064,"o":"m 626 -26 q 440 3 522 -26 q 301 87 358 32 q 213 220 243 142 q 182 399 182 299 l 182 1261 q 197 1290 182 1281 q 243 1299 213 1299 q 289 1290 274 1299 q 304 1261 304 1281 l 304 399 q 342 234 304 303 q 453 128 381 165 q 626 92 525 92 q 797 128 726 92 q 904 234 867 165 q 942 399 942 303 l 942 1261 q 957 1290 942 1281 q 1003 1299 972 1299 q 1064 1261 1064 1299 l 1064 399 q 1012 170 1064 265 q 862 24 960 75 q 626 -26 764 -26 m 483 1357 q 451 1376 469 1357 q 432 1410 432 1394 q 433 1419 432 1415 q 443 1433 435 1424 l 618 1632 q 633 1643 625 1639 q 647 1647 640 1647 q 678 1635 663 1647 q 706 1608 694 1624 q 717 1578 717 1592 q 713 1560 717 1568 q 696 1542 710 1553 l 510 1371 q 495 1361 501 1365 q 483 1357 489 1357 m 744 1357 q 712 1376 731 1357 q 693 1410 693 1394 q 694 1420 693 1415 q 706 1433 696 1425 l 886 1632 q 901 1643 893 1639 q 917 1647 908 1647 q 948 1635 932 1647 q 975 1608 964 1624 q 986 1578 986 1592 q 982 1560 986 1568 q 965 1542 978 1553 l 771 1371 q 757 1361 764 1365 q 744 1357 750 1357 z "},"Ū":{"ha":1246,"x_min":182,"x_max":1064,"o":"m 626 -26 q 440 3 522 -26 q 301 87 358 32 q 213 220 243 142 q 182 399 182 299 l 182 1261 q 197 1290 182 1281 q 243 1299 213 1299 q 289 1290 274 1299 q 304 1261 304 1281 l 304 399 q 342 234 304 303 q 453 128 381 165 q 626 92 525 92 q 797 128 726 92 q 904 234 867 165 q 942 399 942 303 l 942 1261 q 957 1290 942 1281 q 1003 1299 972 1299 q 1064 1261 1064 1299 l 1064 399 q 1012 170 1064 265 q 862 24 960 75 q 626 -26 764 -26 m 435 1443 q 404 1459 411 1443 q 397 1500 397 1475 q 404 1544 397 1526 q 435 1561 411 1561 l 811 1561 q 842 1544 836 1561 q 849 1500 849 1526 q 842 1459 849 1475 q 811 1443 836 1443 l 435 1443 z "},"Ų":{"ha":1246,"x_min":182,"x_max":1064,"o":"m 626 -26 q 440 3 522 -26 q 301 87 358 32 q 213 220 243 142 q 182 399 182 299 l 182 1261 q 197 1290 182 1281 q 243 1299 213 1299 q 289 1290 274 1299 q 304 1261 304 1281 l 304 399 q 342 234 304 303 q 453 128 381 165 q 626 92 525 92 q 797 128 726 92 q 904 234 867 165 q 942 399 942 303 l 942 1261 q 957 1290 942 1281 q 1003 1299 972 1299 q 1064 1261 1064 1299 l 1064 399 q 1012 170 1064 265 q 862 24 960 75 q 626 -26 764 -26 m 726 -342 q 633 -311 672 -342 q 593 -219 593 -281 q 606 -149 593 -182 q 642 -86 618 -117 q 702 -23 667 -56 q 785 46 738 10 l 871 47 l 871 35 q 809 -19 839 8 q 755 -72 779 -46 q 715 -126 731 -99 q 700 -179 700 -153 q 714 -223 700 -210 q 750 -236 728 -236 q 788 -228 771 -236 q 831 -199 804 -219 q 854 -191 840 -192 q 882 -203 868 -190 q 899 -235 896 -217 q 896 -264 903 -253 q 849 -306 879 -287 q 787 -333 819 -324 q 726 -342 754 -342 z "},"Ů":{"ha":1246,"x_min":182,"x_max":1064,"o":"m 626 -26 q 440 3 522 -26 q 301 87 358 32 q 213 220 243 142 q 182 399 182 299 l 182 1261 q 197 1290 182 1281 q 243 1299 213 1299 q 289 1290 274 1299 q 304 1261 304 1281 l 304 399 q 342 234 304 303 q 453 128 381 165 q 626 92 525 92 q 797 128 726 92 q 904 234 867 165 q 942 399 942 303 l 942 1261 q 957 1290 942 1281 q 1003 1299 972 1299 q 1064 1261 1064 1299 l 1064 399 q 1012 170 1064 265 q 862 24 960 75 q 626 -26 764 -26 m 622 1346 q 525 1367 568 1346 q 457 1428 482 1389 q 432 1515 432 1467 q 457 1602 432 1564 q 525 1662 482 1640 q 622 1683 568 1683 q 722 1662 678 1683 q 791 1602 767 1640 q 815 1515 815 1564 q 791 1428 815 1467 q 722 1367 767 1389 q 622 1346 678 1346 m 622 1429 q 690 1454 664 1429 q 717 1515 717 1479 q 690 1576 717 1551 q 622 1600 664 1600 q 556 1576 582 1600 q 531 1515 531 1551 q 556 1454 531 1479 q 622 1429 582 1429 z "},"Ũ":{"ha":1246,"x_min":182,"x_max":1064,"o":"m 626 -26 q 440 3 522 -26 q 301 87 358 32 q 213 220 243 142 q 182 399 182 299 l 182 1261 q 197 1290 182 1281 q 243 1299 213 1299 q 289 1290 274 1299 q 304 1261 304 1281 l 304 399 q 342 234 304 303 q 453 128 381 165 q 626 92 525 92 q 797 128 726 92 q 904 234 867 165 q 942 399 942 303 l 942 1261 q 957 1290 942 1281 q 1003 1299 972 1299 q 1064 1261 1064 1299 l 1064 399 q 1012 170 1064 265 q 862 24 960 75 q 626 -26 764 -26 m 413 1394 q 365 1431 365 1394 q 402 1563 368 1518 q 504 1607 436 1607 q 578 1591 546 1607 q 638 1555 611 1575 q 687 1519 664 1535 q 732 1503 710 1503 q 762 1525 751 1503 q 775 1579 772 1547 q 822 1610 776 1610 q 860 1600 849 1610 q 872 1571 872 1590 q 836 1440 871 1483 q 732 1396 801 1396 q 658 1412 692 1396 q 598 1449 625 1428 q 548 1485 571 1469 q 504 1501 525 1501 q 475 1484 485 1501 q 463 1431 465 1467 q 449 1403 461 1413 q 413 1394 436 1394 z "},"Ǘ":{"ha":1246,"x_min":182,"x_max":1064,"o":"m 626 -26 q 440 3 522 -26 q 301 87 358 32 q 213 220 243 142 q 182 399 182 299 l 182 1261 q 197 1290 182 1281 q 243 1299 213 1299 q 289 1290 274 1299 q 304 1261 304 1281 l 304 399 q 342 234 304 303 q 453 128 381 165 q 626 92 525 92 q 797 128 726 92 q 904 234 867 165 q 942 399 942 303 l 942 1261 q 957 1290 942 1281 q 1003 1299 972 1299 q 1064 1261 1064 1299 l 1064 399 q 1012 170 1064 265 q 862 24 960 75 q 626 -26 764 -26 m 456 1403 q 397 1424 417 1403 q 378 1489 378 1446 q 397 1556 378 1533 q 456 1578 417 1578 q 513 1556 494 1578 q 532 1489 532 1533 q 515 1424 535 1446 q 456 1403 494 1403 m 790 1403 q 732 1424 751 1403 q 713 1489 713 1446 q 732 1556 713 1533 q 790 1578 751 1578 q 847 1556 828 1578 q 867 1489 867 1533 q 848 1424 868 1446 q 790 1403 828 1403 m 558 1615 q 525 1634 543 1615 q 507 1667 507 1653 q 508 1678 507 1674 q 518 1692 510 1683 l 710 1890 q 723 1901 717 1897 q 736 1906 729 1906 q 768 1893 750 1906 q 799 1864 786 1881 q 813 1833 813 1847 q 809 1817 813 1824 q 792 1799 806 1810 l 585 1629 q 570 1619 576 1624 q 558 1615 564 1615 z "},"Ǚ":{"ha":1246,"x_min":182,"x_max":1064,"o":"m 626 -26 q 440 3 522 -26 q 301 87 358 32 q 213 220 243 142 q 182 399 182 299 l 182 1261 q 197 1290 182 1281 q 243 1299 213 1299 q 289 1290 274 1299 q 304 1261 304 1281 l 304 399 q 342 234 304 303 q 453 128 381 165 q 626 92 525 92 q 797 128 726 92 q 904 234 867 165 q 942 399 942 303 l 942 1261 q 957 1290 942 1281 q 1003 1299 972 1299 q 1064 1261 1064 1299 l 1064 399 q 1012 170 1064 265 q 862 24 960 75 q 626 -26 764 -26 m 456 1403 q 397 1424 417 1403 q 378 1489 378 1446 q 397 1556 378 1533 q 456 1578 417 1578 q 513 1556 494 1578 q 532 1489 532 1533 q 515 1424 535 1446 q 456 1403 494 1403 m 790 1403 q 732 1424 751 1403 q 713 1489 713 1446 q 732 1556 713 1533 q 790 1578 751 1578 q 847 1556 828 1578 q 867 1489 867 1533 q 848 1424 868 1446 q 790 1403 828 1403 m 833 1906 q 865 1890 847 1906 q 882 1858 882 1874 q 881 1850 882 1856 q 874 1836 881 1844 l 683 1643 q 662 1625 674 1635 q 622 1615 650 1615 q 584 1625 596 1615 q 564 1643 572 1635 l 371 1836 q 363 1850 364 1844 q 363 1858 363 1856 q 381 1890 363 1874 q 411 1906 399 1906 q 428 1901 421 1906 q 446 1889 436 1896 l 622 1754 l 799 1889 q 817 1901 810 1896 q 833 1906 824 1906 z "},"Ǜ":{"ha":1246,"x_min":182,"x_max":1064,"o":"m 626 -26 q 440 3 522 -26 q 301 87 358 32 q 213 220 243 142 q 182 399 182 299 l 182 1261 q 197 1290 182 1281 q 243 1299 213 1299 q 289 1290 274 1299 q 304 1261 304 1281 l 304 399 q 342 234 304 303 q 453 128 381 165 q 626 92 525 92 q 797 128 726 92 q 904 234 867 165 q 942 399 942 303 l 942 1261 q 957 1290 942 1281 q 1003 1299 972 1299 q 1064 1261 1064 1299 l 1064 399 q 1012 170 1064 265 q 862 24 960 75 q 626 -26 764 -26 m 456 1403 q 397 1424 417 1403 q 378 1489 378 1446 q 397 1556 378 1533 q 456 1578 417 1578 q 513 1556 494 1578 q 532 1489 532 1533 q 515 1424 535 1446 q 456 1403 494 1403 m 790 1403 q 732 1424 751 1403 q 713 1489 713 1446 q 732 1556 713 1533 q 790 1578 751 1578 q 847 1556 828 1578 q 867 1489 867 1533 q 848 1424 868 1446 q 790 1403 828 1403 m 686 1615 q 674 1619 681 1615 q 660 1629 668 1624 l 453 1799 q 436 1817 440 1810 q 432 1833 432 1824 q 445 1864 432 1847 q 476 1893 458 1881 q 508 1906 494 1906 q 523 1901 517 1906 q 535 1890 529 1897 l 726 1692 q 738 1678 736 1683 q 739 1668 739 1674 q 720 1634 739 1653 q 686 1615 701 1615 z "},"Ǖ":{"ha":1246,"x_min":182,"x_max":1064,"o":"m 626 -26 q 440 3 522 -26 q 301 87 358 32 q 213 220 243 142 q 182 399 182 299 l 182 1261 q 197 1290 182 1281 q 243 1299 213 1299 q 289 1290 274 1299 q 304 1261 304 1281 l 304 399 q 342 234 304 303 q 453 128 381 165 q 626 92 525 92 q 797 128 726 92 q 904 234 867 165 q 942 399 942 303 l 942 1261 q 957 1290 942 1281 q 1003 1299 972 1299 q 1064 1261 1064 1299 l 1064 399 q 1012 170 1064 265 q 862 24 960 75 q 626 -26 764 -26 m 456 1403 q 397 1424 417 1403 q 378 1489 378 1446 q 397 1556 378 1533 q 456 1578 417 1578 q 513 1556 494 1578 q 532 1489 532 1533 q 515 1424 535 1446 q 456 1403 494 1403 m 790 1403 q 732 1424 751 1403 q 713 1489 713 1446 q 732 1556 713 1533 q 790 1578 751 1578 q 847 1556 828 1578 q 867 1489 867 1533 q 848 1424 868 1446 q 790 1403 828 1403 m 435 1701 q 404 1717 411 1701 q 397 1758 397 1733 q 404 1802 397 1785 q 435 1819 411 1819 l 811 1819 q 842 1802 836 1819 q 849 1758 849 1785 q 842 1717 849 1733 q 811 1701 836 1701 l 435 1701 z "},"Ụ":{"ha":1246,"x_min":182,"x_max":1064,"o":"m 626 -26 q 440 3 522 -26 q 301 87 358 32 q 213 220 243 142 q 182 399 182 299 l 182 1261 q 197 1290 182 1281 q 243 1299 213 1299 q 289 1290 274 1299 q 304 1261 304 1281 l 304 399 q 342 234 304 303 q 453 128 381 165 q 626 92 525 92 q 797 128 726 92 q 904 234 867 165 q 942 399 942 303 l 942 1261 q 957 1290 942 1281 q 1003 1299 972 1299 q 1064 1261 1064 1299 l 1064 399 q 1012 170 1064 265 q 862 24 960 75 q 626 -26 764 -26 m 622 -326 q 564 -305 583 -326 q 544 -239 544 -283 q 564 -173 544 -194 q 622 -151 583 -151 q 679 -173 660 -151 q 699 -239 699 -194 q 680 -305 700 -283 q 622 -326 660 -326 z "},"Ủ":{"ha":1246,"x_min":182,"x_max":1064,"o":"m 626 -26 q 440 3 522 -26 q 301 87 358 32 q 213 220 243 142 q 182 399 182 299 l 182 1261 q 197 1290 182 1281 q 243 1299 213 1299 q 289 1290 274 1299 q 304 1261 304 1281 l 304 399 q 342 234 304 303 q 453 128 381 165 q 626 92 525 92 q 797 128 726 92 q 904 234 867 165 q 942 399 942 303 l 942 1261 q 957 1290 942 1281 q 1003 1299 972 1299 q 1064 1261 1064 1299 l 1064 399 q 1012 170 1064 265 q 862 24 960 75 q 626 -26 764 -26 m 636 1686 q 746 1653 704 1686 q 788 1565 788 1621 q 772 1503 788 1531 q 717 1447 756 1476 q 692 1422 699 1433 q 689 1397 686 1411 l 690 1388 q 683 1361 694 1372 q 653 1346 671 1350 q 619 1346 635 1342 q 596 1364 603 1350 l 581 1401 q 581 1460 569 1433 q 622 1510 592 1488 q 649 1535 642 1524 q 657 1557 657 1546 q 645 1576 657 1568 q 614 1585 633 1585 q 574 1579 596 1585 q 540 1564 553 1574 q 482 1586 507 1543 q 490 1640 465 1618 q 558 1674 519 1661 q 636 1686 597 1686 z "},"Ư":{"ha":1246,"x_min":182,"x_max":1331,"o":"m 1282 1543 q 1324 1426 1318 1485 q 1302 1319 1331 1368 q 1205 1240 1274 1269 q 1022 1210 1136 1210 l 1022 1296 q 1162 1322 1118 1296 q 1207 1390 1206 1347 q 1176 1483 1208 1432 q 1171 1528 1163 1507 q 1200 1560 1179 1549 q 1244 1569 1221 1572 q 1282 1543 1268 1567 m 626 -26 q 440 3 522 -26 q 301 87 358 32 q 213 220 243 142 q 182 399 182 299 l 182 1261 q 197 1290 182 1281 q 243 1299 213 1299 q 289 1290 274 1299 q 304 1261 304 1281 l 304 399 q 342 234 304 303 q 453 128 381 165 q 626 92 525 92 q 797 128 726 92 q 904 234 867 165 q 942 399 942 303 l 942 1261 q 957 1290 942 1281 q 1003 1299 972 1299 q 1064 1261 1064 1299 l 1064 399 q 1012 170 1064 265 q 862 24 960 75 q 626 -26 764 -26 z "},"Ứ":{"ha":1246,"x_min":182,"x_max":1331,"o":"m 1282 1543 q 1324 1426 1318 1485 q 1302 1319 1331 1368 q 1205 1240 1274 1269 q 1022 1210 1136 1210 l 1022 1296 q 1162 1322 1118 1296 q 1207 1390 1206 1347 q 1176 1483 1208 1432 q 1171 1528 1163 1507 q 1200 1560 1179 1549 q 1244 1569 1221 1572 q 1282 1543 1268 1567 m 626 -26 q 440 3 522 -26 q 301 87 358 32 q 213 220 243 142 q 182 399 182 299 l 182 1261 q 197 1290 182 1281 q 243 1299 213 1299 q 289 1290 274 1299 q 304 1261 304 1281 l 304 399 q 342 234 304 303 q 453 128 381 165 q 626 92 525 92 q 797 128 726 92 q 904 234 867 165 q 942 399 942 303 l 942 1261 q 957 1290 942 1281 q 1003 1299 972 1299 q 1064 1261 1064 1299 l 1064 399 q 1012 170 1064 265 q 862 24 960 75 q 626 -26 764 -26 m 558 1357 q 525 1376 543 1357 q 507 1408 507 1394 q 508 1420 507 1415 q 518 1433 510 1425 l 710 1632 q 723 1643 717 1639 q 736 1647 729 1647 q 768 1635 750 1647 q 799 1606 786 1622 q 813 1575 813 1589 q 809 1558 813 1565 q 792 1540 806 1551 l 585 1371 q 570 1361 576 1365 q 558 1357 564 1357 z "},"Ự":{"ha":1246,"x_min":182,"x_max":1331,"o":"m 1282 1543 q 1324 1426 1318 1485 q 1302 1319 1331 1368 q 1205 1240 1274 1269 q 1022 1210 1136 1210 l 1022 1296 q 1162 1322 1118 1296 q 1207 1390 1206 1347 q 1176 1483 1208 1432 q 1171 1528 1163 1507 q 1200 1560 1179 1549 q 1244 1569 1221 1572 q 1282 1543 1268 1567 m 626 -26 q 440 3 522 -26 q 301 87 358 32 q 213 220 243 142 q 182 399 182 299 l 182 1261 q 197 1290 182 1281 q 243 1299 213 1299 q 289 1290 274 1299 q 304 1261 304 1281 l 304 399 q 342 234 304 303 q 453 128 381 165 q 626 92 525 92 q 797 128 726 92 q 904 234 867 165 q 942 399 942 303 l 942 1261 q 957 1290 942 1281 q 1003 1299 972 1299 q 1064 1261 1064 1299 l 1064 399 q 1012 170 1064 265 q 862 24 960 75 q 626 -26 764 -26 m 622 -326 q 564 -305 583 -326 q 544 -239 544 -283 q 564 -173 544 -194 q 622 -151 583 -151 q 679 -173 660 -151 q 699 -239 699 -194 q 680 -305 700 -283 q 622 -326 660 -326 z "},"Ừ":{"ha":1246,"x_min":182,"x_max":1331,"o":"m 1282 1543 q 1324 1426 1318 1485 q 1302 1319 1331 1368 q 1205 1240 1274 1269 q 1022 1210 1136 1210 l 1022 1296 q 1162 1322 1118 1296 q 1207 1390 1206 1347 q 1176 1483 1208 1432 q 1171 1528 1163 1507 q 1200 1560 1179 1549 q 1244 1569 1221 1572 q 1282 1543 1268 1567 m 626 -26 q 440 3 522 -26 q 301 87 358 32 q 213 220 243 142 q 182 399 182 299 l 182 1261 q 197 1290 182 1281 q 243 1299 213 1299 q 289 1290 274 1299 q 304 1261 304 1281 l 304 399 q 342 234 304 303 q 453 128 381 165 q 626 92 525 92 q 797 128 726 92 q 904 234 867 165 q 942 399 942 303 l 942 1261 q 957 1290 942 1281 q 1003 1299 972 1299 q 1064 1261 1064 1299 l 1064 399 q 1012 170 1064 265 q 862 24 960 75 q 626 -26 764 -26 m 686 1357 q 674 1361 681 1357 q 660 1371 668 1365 l 453 1540 q 436 1558 440 1551 q 432 1575 432 1565 q 445 1606 432 1589 q 476 1635 458 1622 q 508 1647 494 1647 q 523 1643 517 1647 q 535 1632 529 1639 l 726 1433 q 738 1420 736 1425 q 739 1410 739 1415 q 720 1376 739 1394 q 686 1357 701 1357 z "},"Ử":{"ha":1246,"x_min":182,"x_max":1331,"o":"m 1282 1543 q 1324 1426 1318 1485 q 1302 1319 1331 1368 q 1205 1240 1274 1269 q 1022 1210 1136 1210 l 1022 1296 q 1162 1322 1118 1296 q 1207 1390 1206 1347 q 1176 1483 1208 1432 q 1171 1528 1163 1507 q 1200 1560 1179 1549 q 1244 1569 1221 1572 q 1282 1543 1268 1567 m 626 -26 q 440 3 522 -26 q 301 87 358 32 q 213 220 243 142 q 182 399 182 299 l 182 1261 q 197 1290 182 1281 q 243 1299 213 1299 q 289 1290 274 1299 q 304 1261 304 1281 l 304 399 q 342 234 304 303 q 453 128 381 165 q 626 92 525 92 q 797 128 726 92 q 904 234 867 165 q 942 399 942 303 l 942 1261 q 957 1290 942 1281 q 1003 1299 972 1299 q 1064 1261 1064 1299 l 1064 399 q 1012 170 1064 265 q 862 24 960 75 q 626 -26 764 -26 m 636 1686 q 746 1653 704 1686 q 788 1565 788 1621 q 772 1503 788 1531 q 717 1447 756 1476 q 692 1422 699 1433 q 689 1397 686 1411 l 690 1388 q 683 1361 694 1372 q 653 1346 671 1350 q 619 1346 635 1342 q 596 1364 603 1350 l 581 1401 q 581 1460 569 1433 q 622 1510 592 1488 q 649 1535 642 1524 q 657 1557 657 1546 q 645 1576 657 1568 q 614 1585 633 1585 q 574 1579 596 1585 q 540 1564 553 1574 q 482 1586 507 1543 q 490 1640 465 1618 q 558 1674 519 1661 q 636 1686 597 1686 z "},"Ữ":{"ha":1246,"x_min":182,"x_max":1331,"o":"m 1282 1543 q 1324 1426 1318 1485 q 1302 1319 1331 1368 q 1205 1240 1274 1269 q 1022 1210 1136 1210 l 1022 1296 q 1162 1322 1118 1296 q 1207 1390 1206 1347 q 1176 1483 1208 1432 q 1171 1528 1163 1507 q 1200 1560 1179 1549 q 1244 1569 1221 1572 q 1282 1543 1268 1567 m 626 -26 q 440 3 522 -26 q 301 87 358 32 q 213 220 243 142 q 182 399 182 299 l 182 1261 q 197 1290 182 1281 q 243 1299 213 1299 q 289 1290 274 1299 q 304 1261 304 1281 l 304 399 q 342 234 304 303 q 453 128 381 165 q 626 92 525 92 q 797 128 726 92 q 904 234 867 165 q 942 399 942 303 l 942 1261 q 957 1290 942 1281 q 1003 1299 972 1299 q 1064 1261 1064 1299 l 1064 399 q 1012 170 1064 265 q 862 24 960 75 q 626 -26 764 -26 m 413 1394 q 365 1431 365 1394 q 402 1563 368 1518 q 504 1607 436 1607 q 578 1591 546 1607 q 638 1555 611 1575 q 687 1519 664 1535 q 732 1503 710 1503 q 762 1525 751 1503 q 775 1579 772 1547 q 822 1610 776 1610 q 860 1600 849 1610 q 872 1571 872 1590 q 836 1440 871 1483 q 732 1396 801 1396 q 658 1412 692 1396 q 598 1449 625 1428 q 548 1485 571 1469 q 504 1501 525 1501 q 475 1484 485 1501 q 463 1431 465 1467 q 449 1403 461 1413 q 413 1394 436 1394 z "},"Ẃ":{"ha":1728,"x_min":17,"x_max":1711,"o":"m 444 -19 q 394 -7 413 -19 q 368 36 376 6 l 22 1236 q 26 1269 17 1256 q 65 1293 35 1283 q 112 1299 93 1303 q 136 1272 131 1296 l 447 174 l 792 1249 q 816 1288 800 1276 q 863 1299 832 1299 q 910 1288 894 1299 q 935 1249 926 1276 l 1279 175 l 1592 1272 q 1617 1299 1599 1296 q 1663 1293 1636 1303 q 1702 1269 1693 1283 q 1706 1236 1711 1256 l 1357 36 q 1331 -7 1349 6 q 1279 -19 1314 -19 q 1230 -7 1246 -19 q 1203 36 1214 6 l 863 1104 l 522 36 q 495 -7 513 6 q 444 -19 478 -19 m 800 1357 q 767 1376 785 1357 q 749 1408 749 1394 q 750 1420 749 1415 q 760 1433 751 1425 l 951 1632 q 965 1643 958 1639 q 978 1647 971 1647 q 1010 1635 992 1647 q 1041 1606 1028 1622 q 1054 1575 1054 1589 q 1051 1558 1054 1565 q 1033 1540 1047 1551 l 826 1371 q 812 1361 818 1365 q 800 1357 806 1357 z "},"Ŵ":{"ha":1728,"x_min":17,"x_max":1711,"o":"m 444 -19 q 394 -7 413 -19 q 368 36 376 6 l 22 1236 q 26 1269 17 1256 q 65 1293 35 1283 q 112 1299 93 1303 q 136 1272 131 1296 l 447 174 l 792 1249 q 816 1288 800 1276 q 863 1299 832 1299 q 910 1288 894 1299 q 935 1249 926 1276 l 1279 175 l 1592 1272 q 1617 1299 1599 1296 q 1663 1293 1636 1303 q 1702 1269 1693 1283 q 1706 1236 1711 1256 l 1357 36 q 1331 -7 1349 6 q 1279 -19 1314 -19 q 1230 -7 1246 -19 q 1203 36 1214 6 l 863 1104 l 522 36 q 495 -7 513 6 q 444 -19 478 -19 m 653 1357 q 622 1374 640 1357 q 604 1404 604 1390 q 605 1414 604 1408 q 613 1426 606 1419 l 803 1619 q 825 1638 813 1629 q 864 1647 838 1647 q 902 1638 890 1647 q 924 1619 914 1629 l 1115 1426 q 1123 1414 1122 1419 q 1124 1404 1124 1408 q 1106 1374 1124 1390 q 1075 1357 1089 1357 q 1058 1362 1065 1357 q 1040 1375 1051 1367 l 864 1508 l 688 1375 q 670 1362 678 1367 q 653 1357 663 1357 z "},"Ẅ":{"ha":1728,"x_min":17,"x_max":1711,"o":"m 444 -19 q 394 -7 413 -19 q 368 36 376 6 l 22 1236 q 26 1269 17 1256 q 65 1293 35 1283 q 112 1299 93 1303 q 136 1272 131 1296 l 447 174 l 792 1249 q 816 1288 800 1276 q 863 1299 832 1299 q 910 1288 894 1299 q 935 1249 926 1276 l 1279 175 l 1592 1272 q 1617 1299 1599 1296 q 1663 1293 1636 1303 q 1702 1269 1693 1283 q 1706 1236 1711 1256 l 1357 36 q 1331 -7 1349 6 q 1279 -19 1314 -19 q 1230 -7 1246 -19 q 1203 36 1214 6 l 863 1104 l 522 36 q 495 -7 513 6 q 444 -19 478 -19 m 697 1403 q 639 1424 658 1403 q 619 1489 619 1446 q 639 1556 619 1533 q 697 1578 658 1578 q 755 1556 736 1578 q 774 1489 774 1533 q 756 1424 776 1446 q 697 1403 736 1403 m 1032 1403 q 974 1424 993 1403 q 954 1489 954 1446 q 974 1556 954 1533 q 1032 1578 993 1578 q 1089 1556 1069 1578 q 1108 1489 1108 1533 q 1090 1424 1110 1446 q 1032 1403 1069 1403 z "},"Ẁ":{"ha":1728,"x_min":17,"x_max":1711,"o":"m 444 -19 q 394 -7 413 -19 q 368 36 376 6 l 22 1236 q 26 1269 17 1256 q 65 1293 35 1283 q 112 1299 93 1303 q 136 1272 131 1296 l 447 174 l 792 1249 q 816 1288 800 1276 q 863 1299 832 1299 q 910 1288 894 1299 q 935 1249 926 1276 l 1279 175 l 1592 1272 q 1617 1299 1599 1296 q 1663 1293 1636 1303 q 1702 1269 1693 1283 q 1706 1236 1711 1256 l 1357 36 q 1331 -7 1349 6 q 1279 -19 1314 -19 q 1230 -7 1246 -19 q 1203 36 1214 6 l 863 1104 l 522 36 q 495 -7 513 6 q 444 -19 478 -19 m 928 1357 q 916 1361 922 1357 q 901 1371 910 1365 l 694 1540 q 678 1558 682 1551 q 674 1575 674 1565 q 687 1606 674 1589 q 718 1635 700 1622 q 750 1647 736 1647 q 765 1643 758 1647 q 776 1632 771 1639 l 968 1433 q 979 1420 978 1425 q 981 1410 981 1415 q 962 1376 981 1394 q 928 1357 943 1357 z "},"Ý":{"ha":889,"x_min":4,"x_max":885,"o":"m 444 -19 q 383 19 383 -19 l 383 540 l 14 1224 q 13 1257 4 1242 q 49 1286 21 1272 q 92 1301 75 1300 q 122 1278 110 1301 l 444 672 l 768 1278 q 799 1301 782 1301 q 842 1286 815 1300 q 877 1257 869 1272 q 876 1224 885 1242 l 506 539 l 506 19 q 444 -19 506 -19 m 381 1357 q 347 1376 365 1357 q 329 1408 329 1394 q 331 1420 329 1415 q 340 1433 332 1425 l 532 1632 q 545 1643 539 1639 q 558 1647 551 1647 q 590 1635 572 1647 q 622 1606 608 1622 q 635 1575 635 1589 q 631 1558 635 1565 q 614 1540 628 1551 l 407 1371 q 392 1361 399 1365 q 381 1357 386 1357 z "},"Ŷ":{"ha":889,"x_min":4,"x_max":885,"o":"m 444 -19 q 383 19 383 -19 l 383 540 l 14 1224 q 13 1257 4 1242 q 49 1286 21 1272 q 92 1301 75 1300 q 122 1278 110 1301 l 444 672 l 768 1278 q 799 1301 782 1301 q 842 1286 815 1300 q 877 1257 869 1272 q 876 1224 885 1242 l 506 539 l 506 19 q 444 -19 506 -19 m 233 1357 q 203 1374 221 1357 q 185 1404 185 1390 q 185 1414 185 1408 q 193 1426 186 1419 l 383 1619 q 406 1638 393 1629 q 444 1647 418 1647 q 483 1638 471 1647 q 504 1619 494 1629 l 696 1426 q 703 1414 703 1419 q 704 1404 704 1408 q 687 1374 704 1390 q 656 1357 669 1357 q 639 1362 646 1357 q 621 1375 632 1367 l 444 1508 l 268 1375 q 251 1362 258 1367 q 233 1357 243 1357 z "},"Ÿ":{"ha":889,"x_min":4,"x_max":885,"o":"m 444 -19 q 383 19 383 -19 l 383 540 l 14 1224 q 13 1257 4 1242 q 49 1286 21 1272 q 92 1301 75 1300 q 122 1278 110 1301 l 444 672 l 768 1278 q 799 1301 782 1301 q 842 1286 815 1300 q 877 1257 869 1272 q 876 1224 885 1242 l 506 539 l 506 19 q 444 -19 506 -19 m 278 1403 q 219 1424 239 1403 q 200 1489 200 1446 q 219 1556 200 1533 q 278 1578 239 1578 q 335 1556 317 1578 q 354 1489 354 1533 q 337 1424 357 1446 q 278 1403 317 1403 m 613 1403 q 554 1424 574 1403 q 535 1489 535 1446 q 554 1556 535 1533 q 613 1578 574 1578 q 669 1556 650 1578 q 689 1489 689 1533 q 670 1424 690 1446 q 613 1403 650 1403 z "},"Ỳ":{"ha":889,"x_min":4,"x_max":885,"o":"m 444 -19 q 383 19 383 -19 l 383 540 l 14 1224 q 13 1257 4 1242 q 49 1286 21 1272 q 92 1301 75 1300 q 122 1278 110 1301 l 444 672 l 768 1278 q 799 1301 782 1301 q 842 1286 815 1300 q 877 1257 869 1272 q 876 1224 885 1242 l 506 539 l 506 19 q 444 -19 506 -19 m 508 1357 q 497 1361 503 1357 q 482 1371 490 1365 l 275 1540 q 258 1558 263 1551 q 254 1575 254 1565 q 267 1606 254 1589 q 299 1635 281 1622 q 331 1647 317 1647 q 345 1643 339 1647 q 357 1632 351 1639 l 549 1433 q 560 1420 558 1425 q 561 1410 561 1415 q 542 1376 561 1394 q 508 1357 524 1357 z "},"Ỵ":{"ha":889,"x_min":4,"x_max":885,"o":"m 444 -19 q 383 19 383 -19 l 383 540 l 14 1224 q 13 1257 4 1242 q 49 1286 21 1272 q 92 1301 75 1300 q 122 1278 110 1301 l 444 672 l 768 1278 q 799 1301 782 1301 q 842 1286 815 1300 q 877 1257 869 1272 q 876 1224 885 1242 l 506 539 l 506 19 q 444 -19 506 -19 m 436 -326 q 378 -305 397 -326 q 358 -239 358 -283 q 378 -173 358 -194 q 436 -151 397 -151 q 493 -173 474 -151 q 513 -239 513 -194 q 494 -305 514 -283 q 436 -326 474 -326 z "}}}
